<?xml version="1.0" encoding="utf-8"?>
<!-- Generator: Adobe Illustrator 27.5.0, SVG Export Plug-In . SVG Version: 6.00 Build 0)  -->
<svg version="1.1" id="Layer_1" xmlns="http://www.w3.org/2000/svg" xmlns:xlink="http://www.w3.org/1999/xlink" x="0px" y="0px"
	 viewBox="0 0 2608.776 2000" style="enable-background:new 0 0 2608.776 2000;" xml:space="preserve">
<g>
	<g>
		<rect x="0" y="0" style="fill:#FFFFFF;" width="2608.776" height="2000"/>
		<path style="fill:#F7C9CF;" d="M426.809,1817.228c-257.333-69.691-245.357-396.116-112.667-565.417
			s154.939-228.641,107.397-500.19c-76-434.094,444.552-822.094,1098.291-466.094
			c552.094,300.648,1129.709,921.244,713.105,1531.702C1861.936,1817.228,426.809,1817.228,426.809,1817.228z"/>
		<g>
			<path style="fill:#1D6E87;" d="M2402.208,1809.964H246.485c-3.758,0-6.832,3.108-6.926,7.007
				c-0.001,0.049-0.002,0.098-0.003,0.146c-0.098,4.043,3.03,7.376,6.926,7.376h2155.727c4.048,0,7.331-3.251,7.331-7.264
				C2409.539,1813.215,2406.256,1809.964,2402.208,1809.964z"/>
		</g>
	</g>
	<g>
		<g>
			<path style="fill:#6090FE;" d="M1777.726,1500.614H856.78c-21.553,0-39.024-17.472-39.024-39.024V382.634
				c0-21.553,17.472-39.024,39.024-39.024h920.946c21.552,0,39.024,17.472,39.024,39.024v1078.955
				C1816.75,1483.142,1799.278,1500.614,1777.726,1500.614z"/>
			<rect x="835.849" y="554.273" style="fill:#BCBBE8;" width="962.808" height="905.868"/>
		</g>
		<path style="fill:#CDC9ED;" d="M835.849,1460.142V381.915c0-11.973,9.707-21.68,21.68-21.68h919.448
			c11.973,0,21.68,9.706,21.68,21.68v1078.227c0,11.974-9.708,21.68-21.68,21.68H857.529
			C845.556,1481.822,835.849,1472.116,835.849,1460.142z"/>
		<path style="fill:#2D6163;" d="M1776.04,360.236H858.467c-12.472,0-22.618,9.322-22.618,20.781v77.308h962.808v-77.308
			C1798.657,369.558,1788.511,360.236,1776.04,360.236z"/>
		<polygon style="fill:#E34830;" points="866.091,398.358 907.267,420.202 907.267,376.515 		"/>
		<rect x="835.849" y="435.604" style="fill:#E4E3ED;" width="962.808" height="111.465"/>
		<path style="fill:#88B6B8;" d="M1712.544,515.357H921.963c-8.358,0-15.133-6.775-15.133-15.133l0,0
			c0-8.358,6.775-15.133,15.133-15.133h790.581c8.358,0,15.133,6.775,15.133,15.133l0,0
			C1727.676,508.581,1720.901,515.357,1712.544,515.357z"/>
		<g>
			<g>
				<rect x="982.411" y="1094.927" style="fill:#E4E3ED;" width="157.419" height="91.007"/>
				<rect x="982.411" y="989.55" style="fill:#E4E3ED;" width="157.419" height="91.007"/>
				<rect x="982.411" y="1305.681" style="fill:#E4E3ED;" width="157.419" height="91.007"/>
				<rect x="982.411" y="1200.303" style="fill:#E4E3ED;" width="157.419" height="91.008"/>
				<rect x="982.411" y="704.953" style="fill:#E4E3ED;" width="157.419" height="72.247"/>
				<rect x="982.411" y="791.569" style="fill:#E4E3ED;" width="157.419" height="78.234"/>
				<rect x="987.839" y="798.753" style="fill:#E4E3ED;" width="146.562" height="63.864"/>
				<rect x="982.411" y="884.173" style="fill:#E4E3ED;" width="157.419" height="91.008"/>
				<rect x="1487.237" y="1200.303" style="fill:#E4E3ED;" width="157.419" height="91.008"/>
				<rect x="1150.687" y="1305.681" style="fill:#E4E3ED;" width="157.419" height="91.007"/>
				<rect x="1487.237" y="1094.927" style="fill:#E4E3ED;" width="157.419" height="91.007"/>
				<rect x="1487.237" y="884.173" style="fill:#E4E3ED;" width="157.419" height="91.008"/>
				<rect x="1487.237" y="989.55" style="fill:#E4E3ED;" width="157.419" height="91.007"/>
				<rect x="1318.962" y="1305.681" style="fill:#E4E3ED;" width="157.419" height="91.007"/>
				<rect x="1487.237" y="1305.681" style="fill:#E4E3ED;" width="157.419" height="91.007"/>
				<rect x="982.411" y="618.336" style="fill:#E4E3ED;" width="157.419" height="72.248"/>
				<rect x="1150.687" y="1200.303" style="fill:#E4E3ED;" width="157.419" height="91.008"/>
				<rect x="1150.687" y="1094.927" style="fill:#E4E3ED;" width="157.419" height="91.007"/>
				<rect x="1487.237" y="791.569" style="fill:#E4E3ED;" width="157.419" height="78.234"/>
				<rect x="1150.687" y="618.336" style="fill:#E4E3ED;" width="157.419" height="72.248"/>
				<rect x="1150.687" y="704.953" style="fill:#E4E3ED;" width="157.419" height="72.247"/>
				<rect x="1150.687" y="884.173" style="fill:#E4E3ED;" width="157.419" height="91.008"/>
				<rect x="1318.962" y="1200.303" style="fill:#E4E3ED;" width="157.419" height="91.008"/>
				<rect x="1150.687" y="791.569" style="fill:#E4E3ED;" width="157.419" height="78.234"/>
				<rect x="1150.687" y="989.55" style="fill:#E4E3ED;" width="157.419" height="91.007"/>
				<rect x="1318.962" y="704.953" style="fill:#E4E3ED;" width="157.419" height="72.247"/>
				<rect x="1318.962" y="791.569" style="fill:#E4E3ED;" width="157.419" height="78.234"/>
				<rect x="1318.962" y="1094.927" style="fill:#E4E3ED;" width="157.419" height="91.007"/>
				<rect x="1318.962" y="618.336" style="fill:#E4E3ED;" width="157.419" height="72.248"/>
				<rect x="1318.962" y="884.173" style="fill:#E4E3ED;" width="157.419" height="91.008"/>
				<rect x="1318.962" y="989.55" style="fill:#E4E3ED;" width="157.419" height="91.007"/>
				<rect x="1655.512" y="1305.681" style="fill:#E4E3ED;" width="137.717" height="91.007"/>
				<rect x="1150.687" y="1411.057" style="fill:#E4E3ED;" width="157.419" height="42.238"/>
				<rect x="1318.962" y="1411.057" style="fill:#E4E3ED;" width="157.419" height="42.238"/>
				<rect x="1487.237" y="1411.057" style="fill:#E4E3ED;" width="157.419" height="42.238"/>
				<rect x="841.277" y="1411.057" style="fill:#E4E3ED;" width="130.277" height="42.238"/>
				<rect x="841.277" y="1305.681" style="fill:#E4E3ED;" width="130.277" height="91.007"/>
				<rect x="982.411" y="1411.057" style="fill:#E4E3ED;" width="157.419" height="42.238"/>
				<rect x="1655.512" y="1411.057" style="fill:#E4E3ED;" width="137.717" height="42.238"/>
				<rect x="1655.512" y="1200.303" style="fill:#E4E3ED;" width="137.717" height="91.008"/>
				<rect x="1655.512" y="791.569" style="fill:#E4E3ED;" width="137.717" height="78.234"/>
				<rect x="1487.237" y="704.953" style="fill:#E4E3ED;" width="157.419" height="72.247"/>
				<rect x="1492.664" y="712.137" style="fill:#E4E3ED;" width="146.562" height="57.876"/>
				<rect x="1655.512" y="884.173" style="fill:#E4E3ED;" width="137.717" height="91.008"/>
				<rect x="1655.512" y="704.953" style="fill:#E4E3ED;" width="137.717" height="72.247"/>
				<rect x="1655.512" y="989.55" style="fill:#E4E3ED;" width="137.717" height="91.007"/>
				<rect x="1655.512" y="1094.927" style="fill:#E4E3ED;" width="137.717" height="91.007"/>
				<rect x="841.277" y="1200.303" style="fill:#E4E3ED;" width="130.277" height="91.008"/>
				<rect x="1655.512" y="618.336" style="fill:#E4E3ED;" width="137.717" height="72.248"/>
				<rect x="1487.237" y="618.336" style="fill:#E4E3ED;" width="157.419" height="72.248"/>
				<rect x="841.277" y="791.569" style="fill:#E4E3ED;" width="130.277" height="78.234"/>
				<rect x="841.277" y="559.261" style="fill:#E4E3ED;" width="957.38" height="44.705"/>
				<rect x="841.277" y="1094.927" style="fill:#E4E3ED;" width="130.277" height="91.007"/>
				<rect x="841.277" y="989.55" style="fill:#E4E3ED;" width="130.277" height="91.007"/>
				<rect x="841.277" y="884.173" style="fill:#E4E3ED;" width="130.277" height="91.008"/>
				<rect x="841.277" y="618.336" style="fill:#E4E3ED;" width="130.277" height="72.248"/>
				<rect x="841.277" y="704.953" style="fill:#E4E3ED;" width="130.277" height="72.247"/>
			</g>
		</g>
		<path style="fill:#E4E3ED;" d="M1654.591,424.268h-31.013c-2.022,0-3.662-1.64-3.662-3.662l0,0c0-2.022,1.64-3.662,3.662-3.662
			h31.013c2.022,0,3.661,1.64,3.661,3.662l0,0C1658.252,422.628,1656.613,424.268,1654.591,424.268z"/>
		<g>
			<rect x="1680.779" y="396.844" style="fill:#E4E3ED;" width="35.486" height="27.424"/>
			
				<rect x="1688.19" y="396.192" transform="matrix(-1.836970e-16 1 -1 -1.836970e-16 2109.0784 -1287.9666)" style="fill:#6F6D7D;" width="20.665" height="28.728"/>
		</g>
		<g>
			<path style="fill:#E4E3ED;" d="M1760.952,424.268c-0.107-0.124-9.584-11.224-9.684-11.352h-0.119
				c-0.73,1.022-8.992,11.225-9.095,11.352h-5.906l12.165-13.727l-11.692-13.405h5.965c6.395,7.735,7.541,9.073,8.917,10.95h0.176
				c2.079-2.978,3.651-4.593,9.037-10.95h5.905l-12.105,13.204l12.4,13.929H1760.952z"/>
		</g>
	</g>
	<path style="fill:#FF5345;" d="M1535.019,1207.888c7.633,2.13,19.777,10.308,30.333,19.185
		c11.877-14.302,41.797-49.771,61.898-65.107c-26.881,31.201-47.726,56.94-60.454,89.609
		C1558.867,1230.076,1544.934,1215.783,1535.019,1207.888z"/>
	<path style="fill:#FF5345;" d="M1024.953,702.44c7.633,2.13,19.777,10.308,30.333,19.185
		c11.877-14.302,41.797-49.771,61.899-65.107c-26.881,31.201-47.726,56.94-60.454,89.609
		C1048.801,724.627,1034.868,710.335,1024.953,702.44z"/>
	<path style="fill:#FF5345;" d="M1366.868,1007.068c7.633,2.13,19.777,10.308,30.333,19.185
		c11.877-14.302,41.797-49.771,61.899-65.107c-26.881,31.201-47.726,56.94-60.454,89.609
		C1390.716,1029.256,1376.783,1014.963,1366.868,1007.068z"/>
	<path style="fill:#FF5345;" d="M859.747,1007.068c7.633,2.13,19.777,10.308,30.333,19.185
		c11.877-14.302,41.797-49.771,61.898-65.107c-26.88,31.201-47.726,56.94-60.455,89.609
		C883.595,1029.256,869.663,1014.963,859.747,1007.068z"/>
	<path style="fill:#FF5345;" d="M1519.83,797.543c7.633,2.13,19.777,10.308,30.333,19.185
		c11.877-14.302,41.797-49.771,61.898-65.107c-26.88,31.201-47.726,56.94-60.455,89.609
		C1543.678,819.731,1529.745,805.438,1519.83,797.543z"/>
	<path style="fill:#FF5345;" d="M1024.953,1323.711c7.633,2.13,19.777,10.308,30.333,19.185
		c11.877-14.302,41.797-49.771,61.899-65.107c-26.881,31.2-47.726,56.94-60.454,89.609
		C1048.801,1345.899,1034.868,1331.606,1024.953,1323.711z"/>
	<path style="fill:#FF5345;" d="M1202.462,1323.711c7.633,2.13,19.777,10.308,30.333,19.185
		c11.877-14.302,41.797-49.771,61.899-65.107c-26.881,31.2-47.726,56.94-60.455,89.609
		C1226.309,1345.899,1212.376,1331.606,1202.462,1323.711z"/>
	<g>
		<g>
			<path style="fill:#F7A491;" d="M943.644,794.002c-0.929-8.64-24.814-15.599-31.838-17.671c-7.023-2.072-2.47-0.386-10.261,2.118
				c-0.95,0.305-24.548,36.281-24.548,36.281c-7.445,11.721-75.71,116.049-98.705,131.888
				c-23.486,16.177-117.083,44.394-117.083,44.394l-4.279,59.745c0,0,129.217-44.292,156.875-68.038
				c22.903-19.664,68.56-114.349,90.328-149.247l0.025,0.015C909.823,826.181,944.572,802.641,943.644,794.002z"/>
			<path style="fill:#1D6E87;" d="M1063.351,608.304L904.739,809.115l-0.139,0.175c-2.96,3.747-8.396,4.385-12.143,1.425
				c-3.747-2.959-4.385-8.395-1.425-12.143c0.067-0.085,0.159-0.195,0.229-0.277l166.93-194.134l0.056-0.065
				c1.191-1.385,3.28-1.543,4.665-0.352C1064.26,604.905,1064.44,606.92,1063.351,608.304z"/>
			<path style="fill:#F47458;" d="M926.694,781.317l-21.956,27.797l-0.139,0.175c-2.783,3.522-7.753,4.296-11.451,1.918
				c0.504,0.788,1.145,1.506,1.918,2.118c3.748,2.96,9.183,2.322,12.143-1.425l0.139-0.176l22.854-28.934
				C929.048,782.276,927.871,781.785,926.694,781.317z"/>
			<path style="fill:#F7A491;" d="M925.911,768.952c0,0,23.458,20.792,17.56,29.491c-6.52,9.614-14.849,14.795-15.295,11.906
				c-0.446-2.889,5.034-16.907,5.034-16.907s-7.424-9.401-8.877-14.479C922.878,773.885,921.789,768.64,925.911,768.952z"/>
			<path style="fill:#F7A491;" d="M914.944,780.047c0,0-14.757,6.354-15.597,4.53c-0.84-1.823,2.198-6.127,2.198-6.127
				s19.863-15.084,20.588-9.671C922.857,774.192,914.944,780.047,914.944,780.047z"/>
			<path style="fill:#F7A491;" d="M941.034,776.334c0,0-12.752-14.463-13.251-9.637c-0.603,5.822,10.039,22.688,15.259,22.688
				C948.261,789.384,948.261,784.365,941.034,776.334z"/>
			<path style="fill:#FFFFFF;" d="M641.794,985.238c0,0,106.37-34.213,125.446-43.336c19.076-9.123,96.21-122.75,96.21-122.75
				l42.299,21.564c0,0-94.344,153.439-98.49,160.073l-130.786,63.293L641.794,985.238z"/>
			<path style="fill:#F7A491;" d="M621.741,1728.703c0,0-5.48,31.875-8.393,37.043c-2.912,5.168,21.287,33.556,34.49,28.944
				c7.442-2.599,8.705-25.991,8.705-25.991l-5.391-6.635l7.452-27.89L621.741,1728.703z"/>
			<path style="fill:#07345A;" d="M612.997,1764.435c0,0,15.444,3.098,22.683,3.398c9.343,0.39,20.052-0.582,20.052-0.582
				s19.264,7.239,25.416,10.254c13.693,6.711,30.004,15.052,34.357,21.644c1.397,2.116,1.256,9.268-3.887,10.63
				c-19.837,5.248-89.563,4.166-102.381-1.074C594.452,1802.66,612.997,1764.435,612.997,1764.435z"/>
			<path style="fill:#F7A491;" d="M499.198,1728.703c0,0-5.48,31.875-8.392,37.043c-2.913,5.168,21.286,33.556,34.489,28.944
				c7.443-2.599,8.706-25.991,8.706-25.991l-5.392-6.635l7.452-27.89L499.198,1728.703z"/>
			<path style="fill:#07345A;" d="M490.454,1764.435c0,0,15.445,3.098,22.683,3.398c9.343,0.39,20.052-0.582,20.052-0.582
				s19.264,7.239,25.416,10.254c13.694,6.711,30.004,15.052,34.357,21.644c1.397,2.116,1.418,10.229-3.887,10.63
				c-22.082,1.662-90.924,1.929-103.742-3.313C470.549,1800.423,490.454,1764.435,490.454,1764.435z"/>
			<g>
				<path style="fill:#13375B;" d="M708.683,1234.693l24.107,62.436c0,0,15.729,149.003,6.57,238.2
					c-3.83,37.302-78.878,223.003-78.878,223.003s-10.367,3.11-23.638,1.244c-5.646-0.794-22.497-3.732-22.497-3.732l52.234-225.879
					l-20.301-90.428l-28.728-178.75L708.683,1234.693z"/>
				<path style="fill:#355389;" d="M592.415,1237.949l-20.684,69.521l-8.91,222.363l-75.268,212.947
					c0,0,22.393,12.441,56.606,11.197l83.354-202.58l72.378-256.125l-2.873-55.178L592.415,1237.949z"/>
			</g>
			<path style="fill:#FF3B3B;" d="M599.885,983.035c0,0-31.075,4.321-39.254,10.327c-9.211,6.765-37.737,38.319-37.737,38.319
				s59.372,170.07,57.074,200.33c-2.299,30.26-8.811,75.076-8.811,75.076s115.296,7.278,158.962-9.959
				c0,0-13.789-68.565-13.789-86.567c0-18.003-20.268-195.481-25.781-204.905c-5.513-9.424-35.082-23.418-40.964-23.753
				C627.56,980.649,599.885,983.035,599.885,983.035z"/>
			<path style="fill:#FFFFFF;" d="M762.124,1440.472c0.739-3.618-29.608-173.691-30.107-179.777
				c-4.938-60.441-21.671-245.682-42.921-271.212c-2.553-2.375-8.878-4.357-15.823-5.208c-11.65-1.428-23.728-2.413-23.728-2.413
				s14.372,11.742,17.91,16.748c15.835,22.402,22.303,48.386,25.799,76.085c10.137,80.321,19.357,373.223,22.957,374.522
				C720.233,1450.668,760.485,1448.495,762.124,1440.472z"/>
			<path style="fill:#184655;" d="M612.464,827.243c0,0-21.101-14.266-30.023,10.723c0.069-0.197-7.451-0.125-8.467,0.219
				c-4.339,1.467-8.532,5.989-12.402,8.465c-13.781,8.821-20.134,25.962-20.884,41.7c-0.911,19.103,6.985,33.072,19.546,46.866
				c3.702,4.065,7.658,8.034,12.504,10.631c5.848,3.134,10.47,0.646,15.967,1.977c4.627,1.119,6.253,6.006,11.711,4.244
				c7.651-2.47,15.683-12.05,25.168-10.632c9.473,1.416,31.351-7.11,31.407-7.132c28.104-10.96,9.126-65.352,3.74-84.657
				C655.667,831.496,629.851,820.677,612.464,827.243z"/>
			<path style="fill:#F7A491;" d="M637.855,950.834l7.301,19.917l3.934,11.133c0,0,0.273,19.925-4.373,25.088
				c-7.995,8.886-40.883-24.044-40.883-24.044l-10.417-62.655L637.855,950.834z"/>
			<path style="fill:#F47458;" d="M596.796,940.579c12.508,19.393,34.057,28.253,48.429,30.362l-7.37-20.106l-44.438-30.56
				L596.796,940.579z"/>
			<path style="fill:#F7A491;" d="M601.958,855.916c16.747-10.242,38.724-2.468,45.615,15.603
				c2.996,7.855,6.339,17.826,9.007,28.946c6.418,26.744-1.711,55.947-13.905,58.64c-12.193,2.693-49.73-7.247-59.369-45.099
				C577.356,890.637,584.385,866.662,601.958,855.916z"/>
			<path style="fill:#F7A491;" d="M592.956,915.036c1.308,5.924-1.558,11.593-6.401,12.662c-4.844,1.07-9.831-2.864-11.139-8.788
				c-1.308-5.923,1.558-11.593,6.402-12.662C586.662,905.178,591.648,909.113,592.956,915.036z"/>
			<path style="fill:#FFFFFF;" d="M603.565,982.744c0,0-50.945,5.228-63.967,13.789c-8.279,5.443-1.798,66.103-1.798,66.103
				s11.719,91.634,10.092,137.929c-0.158,4.482-0.381,8.881-0.663,13.191c-4.551,69.672-41.788,236.49-38.544,239.438
				c20.973,11.703,135.426,11.233,136.75,1.968C656.632,1376.783,603.565,982.744,603.565,982.744z"/>
			<path style="fill:#B4BFD3;" d="M547.993,1196.82c-0.024,1.278-0.058,2.526-0.101,3.744c-0.155,4.406-0.375,8.734-0.649,12.977
				l69.697-32.467L547.993,1196.82z"/>
			<path style="fill:#F8A492;" d="M692.049,1129.791c-2.373,1.094-6.272,3.002-8.866,4.746c-2.804,1.885-5.971,2.738-8.564,3.974
				c-5.146,2.451-8.868,4.303-8.849,4.04c0.025-0.34-1.324-0.556,1.242-2.325c3.084-2.127,10.611-5.244,14.912-8.712
				c2.437-1.967,7.778-5.778,7.778-5.778s7.023-7.219,6.745-7.755c-1.508-2.899-7.675,0.732-10.646,3.822
				c-2.888,1.036-8.396,5.199-8.396,5.199s-12.984,6.005-13.821,4.227c-0.357-0.757,7.186-5.368,13.894-11.016
				c6.228-5.243,11.681-11.522,10.851-12.867c-1.407-2.281-8.932,2.83-8.932,2.83s-5.084,3.854-6.868,5.01
				c-2.092,1.353-8.656,4.944-8.656,4.944s-23.412,11.464-24.057,9.71c-0.646-1.754-0.462-6.957,0.753-8.158
				c1.214-1.199,4.354-2.557,5.793-3.478c1.88-1.202,4.776-4.249,3.438-5.794c-1.337-1.547-12.385,2.57-12.385,2.57
				s-6.532,3.007-9.463,7.013c-10.158,13.881-7.463,14.943-8.813,16.69c-1.597,2.065-34.458,14.062-34.458,14.062
				s-98.658,24.477-103.94,26.24l13.118,39.792c6.075-0.85,116.489-45.079,127.693-50.323c0,0,15.566-1.45,25.319-2.678
				c9.753-1.226,18.571-6.662,21.275-7.424c0.399-0.111,9.268-3.16,19.256-9.757c8.607-5.687-2.085-4.112-2.085-4.112
				s-17.785,7.76-18.124,6.287c-0.261-1.136,9.688-4.814,19.276-11.009c2.466-1.593,4.893-3.174,7.111-4.644
				C699.403,1131.261,698.768,1126.697,692.049,1129.791z"/>
			<path style="fill:#FFFFFF;" d="M543.953,994.459c0,0-16.588,2.281-30.895,22.809c-14.307,20.527-45.856,109.037-55.711,142.914
				c-9.953,34.213-4.903,53.215,17.491,58.813c22.394,5.599,142.102-37.921,142.102-37.921l-11.197-41.057
				c0,0-79.307,17.541-82.11,16.174l24.882-42.922C548.514,1113.269,568.005,1043.808,543.953,994.459z"/>
		</g>
		<path style="fill:#184655;" d="M630.615,926.133c0,0-16.07,5.247-17.382,11.15c-1.312,5.903,0.656,14.43,8.527,20.989
			c7.871,6.56,24.706,2.515,29.297-1.093c4.591-3.607,8.089-18.912,3.498-27.439S630.615,926.133,630.615,926.133z"/>
		<path style="fill:#F7A491;" d="M625.368,938.485c0,0,0.096,6.578,2.295,7.762c2.132,1.148,4.828,2.114,7.324,2.351
			c4.045,0.382,7.694-1.343,9.821-4.458c0.209-0.307,0.4-0.625,0.564-0.953c1.64-3.28,1.968-9.074,1.968-9.074
			s-6.778-1.64-10.714-0.984C632.692,933.785,625.368,938.485,625.368,938.485z"/>
	</g>
	<g>
		<g>
			<g>
				<g>
					<path style="fill:#FFFFFF;" d="M1744.41,1752.966l2.373,36.442c0.873,12.194,11.465,21.372,23.659,20.499l1.257-0.09
						c12.194-0.873,21.372-11.465,20.499-23.659l-2.373-36.442L1744.41,1752.966z"/>
					<path style="fill:#F0F0F0;" d="M1782.225,1806.262c-3.051,1.998-6.631,3.276-10.526,3.555l-1.256,0.09
						c-12.194,0.873-22.787-8.305-23.66-20.499l-2.372-36.442l22.707-1.625l2.372,36.442
						C1770.084,1796.081,1775.185,1802.974,1782.225,1806.262z"/>
					<polygon style="fill:#FF3B3B;" points="1684.187,823.261 1744.411,1752.965 1789.825,1749.715 1729.601,820.011 
						1705.667,801.054 					"/>
					<polygon style="fill:#E0E0E0;" points="1706.894,821.636 1767.118,1751.34 1744.411,1752.965 1684.187,823.261 					"/>
					<path style="fill:#FFFFFF;" d="M1696.192,770.583l-12.005,52.678c3.887,14.402,17.458,16.183,26.036-2.096
						c5.12-10.911,16.803,21.254,19.378-1.155l-19.384-50.431L1696.192,770.583z"/>
					<path style="fill:#B3B3B3;" d="M1741.834,1746.509l0.678,9.478c0.067,0.942,0.886,1.651,1.828,1.583l46.211-3.307
						c0.942-0.068,1.651-0.886,1.583-1.828l-0.678-9.478c-0.067-0.942-0.886-1.651-1.828-1.583l-46.211,3.307
						C1742.475,1744.749,1741.766,1745.567,1741.834,1746.509z"/>
				</g>
				<path style="fill:#FF3B3B;" d="M1699.258,748.108l-3.067,22.475c3.412,4.023,8.088,3.689,14.026-1.004l-6.236-21.809
					c-0.315-1.1-1.357-1.829-2.498-1.748h0C1700.34,746.104,1699.412,746.974,1699.258,748.108z"/>
			</g>
		</g>
		<g>
			<g>
				<path style="fill:#F7A491;" d="M2020.445,1341.089c0,0,1.173-5.746,1.415-7.685c0.284-2.276,0.609-9.155,0.609-9.155
					s0.008-24.021-1.769-23.879c-1.776,0.142-4.077,4.264-4.598,5.747c-0.519,1.48-1.272,3.165-1.792,4.647
					c-0.52,1.482-2.051,2.322-3.941,1.804c-1.889-0.518-1.098-6.878-0.387-9.02c2.218-6.682,11.741-23.342,12.673-25.149
					c1.102-2.136-6.557-43.803-8.046-58.285h-0.007c-3.144-23.635-7.561-47.775-7.906-50.276l-42.092-93.035l28.097-28.694
					c0,0,48.163,102.594,49.986,107.998c0.867,2.574,3.91,57.918,3.888,57.921c-0.219,27.346-0.481,51.443-0.398,56.072
					c0,0,3.966,13.783,7.009,22.41c3.044,8.628,2.379,17.789,2.861,20.345c0.071,0.375,2.212,9.083,0.743,19.992
					c-1.266,9.404-4.407-0.144-4.407-0.144s-0.809-17.878-2.215-17.589c-1.085,0.223-0.063,9.968-1.354,20.386
					c-0.332,2.68-0.67,5.323-0.999,7.748c-0.865,6.364-5.052,7.607-5.215,0.79c-0.059-2.408-0.058-6.407,0.35-9.254
					c0.44-3.076-0.157-6.053-0.186-8.699c-0.057-5.254-0.032-9.085-0.249-8.967c-0.282,0.154-1.034-0.889-1.474,1.942
					c-0.531,3.404-0.045,10.906-1.217,15.847c-0.663,2.802-1.692,8.746-1.692,8.746s-2.728,9.443-3.304,9.418
					c-3.123-0.132-3.116-7.468-1.711-11.15c-0.323-2.817,0.937-9.037,0.937-9.037s-0.299-13.184-2.176-13.192
					c-1.544-0.009-6.958,31.631-10.08,31.277C2019.249,1350.681,2020.445,1341.089,2020.445,1341.089z"/>
			</g>
			<path style="fill:#B75742;" d="M1981.717,1130.693c0,0,17.465-3.02,26.736-6.469c12.353-4.596,20.483-8.624,20.483-8.624
				s-13.565-58.054-30.49-93.306c-6.995-14.571-14.068-21.602-23.933-23.286c-0.06-0.012-20.799,13.655-19.975,46.572
				C1954.73,1053.307,1981.717,1130.693,1981.717,1130.693z"/>
			<g>
				<path style="fill:#F7A491;" d="M1928.004,1325.786l-22.64,208.293c0,0,11.065,44.047,9.731,56.561
					c-1.334,12.514-24.608,176.672-24.608,176.672l0.982,9.21l0.026,27.192h-86.39c0,0,18.336-8.456,43.985-25.166
					c1.897-1.236,6.267-5.177,7.331-13.033c6.848-50.597-6.702-219.369-6.702-219.369l-10.673-219.687L1928.004,1325.786z"/>
				<path style="fill:#F7A491;" d="M1997.431,1369.601c4.878,1.271,12.388,180.367,16.428,188.304
					c25.616,50.324,31.704,203.321,31.704,203.321l7.443,21.785l7.973,26.717c0,0-25.581,7.003-38.994-0.621l1.488-26.337
					l1.362-24.086l-64.627-190.614l-35.362-194.424L1997.431,1369.601z"/>
				<path style="fill:#FF3B3B;" d="M1868.9,1022.672c10.425-14.67,53.438-57.161,58.215-57.073c13.93,0.25,59.653,0.269,68.59,4.943
					l-0.053,10.006c-0.239,44.741-5.952,89.297-17.205,132.599c-7.844,30.182-15.277,62.412-14.361,73.987l-0.218,0.217
					c-26.455,26.298-68.177,24.231-92.372-4.575l0,0c0,0,0.105-32.081-3.621-61.348
					C1862.039,1075.583,1843.003,1059.109,1868.9,1022.672z"/>
				<path style="fill:#F7A491;" d="M1941.132,920.062c0,0-1.205,29.843,1.399,41.157c2.604,11.316,6.076,12.17-16.278,15.613
					c-8.781,1.354-17.249,3.37-17.249,3.37s2.295-16.615,2.641-23.628c0.572-11.552-2.583-47.224-2.583-47.224L1941.132,920.062z"/>
				<path style="fill:#F47458;" d="M1924.109,934.912c-4.6,2.559-8.896,4.07-12.858,4.697c-0.76-14.091-2.19-30.259-2.19-30.259
					l30.595,10.218C1936.105,925.671,1931.058,931.044,1924.109,934.912z"/>
				<path style="fill:#F7A491;" d="M1934.035,836.477c0,0,12.772,4.507,19.825,18.576c7.052,14.066,9.684,53.608-18.109,69.074
					c-13.756,7.655-29.627,9.108-37.096,2.374c-7.621-6.871-6.693-22.134-5.93-34.828
					C1894.238,866.538,1899.767,828.483,1934.035,836.477z"/>
				<path style="fill:#F7A491;" d="M1954.514,886.115c-1.577,6.602,0.529,12.973,4.703,14.232c4.175,1.259,8.838-3.073,10.415-9.674
					c1.577-6.603-0.528-12.973-4.703-14.232C1960.754,875.182,1956.091,879.515,1954.514,886.115z"/>
				<path style="fill:#F47458;" d="M2023.479,1782.663c11.798,5.409,24.422,2.069,29.531,0.342l8.193,26.818
					c0,0-25.76,7.63-39.173,0.006L2023.479,1782.663z"/>
				<path style="fill:#F47458;" d="M2012.27,1475.968c-0.011,0.029-0.021,0.027-0.03-0.003L2012.27,1475.968z"/>
				<path style="fill:#F47458;" d="M1892.387,1810.468h-89.811c-3.322-0.308-4.131-3.103-2.979-4.825
					c2.371-3.547,12.848-6.148,24.625-11.799c20.657,2.241,64.002-12.438,67.263-17.374
					C1893.366,1786.35,1894.233,1810.046,1892.387,1810.468z"/>
				<path style="fill:#F8A492;" d="M1711.997,1090.521c-1.741-2.418-7.565-14.247-7.565-14.247s-6.037-20.266-4.785-20
					c0.744,0.157,3.227,3.027,6.177,9.161c1.801,3.748,3.772,10.31,5.637,13.551c3.271,5.687,6.929,8.063,6.022,5.866
					c-0.661-1.6-2.901-2.917-4.873-6.325c-4.8-8.296-9.042-21.86-7.196-21.586c1.625,0.24,6.265,9.592,11.406,16.86
					c2.243,3.173,8.606,7.145,12.601,9.661c-0.048-1.794-0.538-3.592-0.811-4.448c-0.509-1.585-7.64-11.048-4.851-12.239
					c2.791-1.191,19.769,19.3,19.769,19.3l6.974,11.881l0.617,0.455l0.025-0.001c0,0,84.701,33.209,87.542,32.31
					c6.663-2.112,29.426-68.09,29.426-68.09l47.391,8.545c0.684-0.37-49.82,98.205-59.239,103.038
					c-8.27,4.244-96.317-41.625-112.855-51.44c-22.779-8.767-31.671-19.193-35.365-24.53c-1.986-2.871-9.62-15.338-9.62-15.338
					s-1.638-17.279-0.396-17.431c4.178-0.512,5.333,15.772,5.333,15.772s5.651,7.686,6.633,8.695
					C1712.429,1092.442,1711.997,1090.521,1711.997,1090.521z"/>
				<path style="fill:#B75742;" d="M1946.089,1005.144c6.469,27.413-28.03,88.53-28.03,88.53s-49.146-23.869-57.784-34.154
					c0,0,33.898-55.941,36.001-59.598c4.537-7.892,20.46-24.202,31.189-21.207
					C1934.298,980.621,1946.089,1005.144,1946.089,1005.144z"/>
				<path style="fill:#184655;" d="M1938.278,937.546c-3.673-25.152-45.385-76.395-29.276-97.808
					c13.036-17.329,35.763-12.144,50.243-7.163c65.67,22.591,61.896,105.143,82.626,118.053
					c37.582,23.405,60.702,37.981,63.411,90.713c3.215,62.539-49.902,94.48-113.776,79.177
					c-34.345-8.227-43.448-19.465-57.22-51.897c-6.21-14.62-18.732-60.222-15.303-82.504
					C1922.051,966.169,1941.235,957.804,1938.278,937.546z"/>
				<path style="fill:#F7A491;" d="M1913.316,891.448c0,7.446,2.703,13.482,6.037,13.482s6.037-6.036,6.037-13.482
					c0-7.445-2.703-13.481-6.037-13.481S1913.316,884.003,1913.316,891.448z"/>
				<path style="fill:#032B9C;" d="M1830.978,1461.277l-3.073-123.571c-0.532-34.924,6.381-69.536,20.238-101.339l23.353-53.591
					c9.447,3.093,18.351,5.727,28.279,6.875c21.596,2.495,42.837,0.017,64.311-2.517c0.066,0.837,0.164,1.569,0.296,2.184
					c3.897,18.199,25.603,58.771,34.748,114.223c10.38,62.947,14.261,157.092,12.963,164.478
					C1912.849,1472.528,1889.193,1476.107,1830.978,1461.277z"/>
			</g>
		</g>
	</g>
</g>
</svg>
