<?xml version="1.0" encoding="utf-8"?>
<!-- Generator: Adobe Illustrator 27.5.0, SVG Export Plug-In . SVG Version: 6.00 Build 0)  -->
<svg version="1.1" id="Layer_1" xmlns="http://www.w3.org/2000/svg" xmlns:xlink="http://www.w3.org/1999/xlink" x="0px" y="0px"
	 viewBox="0 0 1200 1200" style="enable-background:new 0 0 1200 1200;" xml:space="preserve">
<g>
	<rect x="1.043" y="1" style="fill:#FFD45B;" width="1200.001" height="1200"/>
</g>
<g>
	<path style="fill:#C7B299;" d="M883.189,610.956c0,145.293-117.782,263.073-263.074,263.073
		c-145.294,0-263.08-117.78-263.08-263.073c0-145.291,117.786-263.075,263.08-263.075
		C765.407,347.881,883.189,465.665,883.189,610.956z"/>
	<g>
		<g>
			<path style="fill:#FFFFFF;" d="M459.049,401.327v347.785c10.098,4.237,17.334,14.249,17.334,25.69c0,0.568-0.025,1.14-0.06,1.703
				l287.499,12.112l5.218-387.29H459.049z"/>
			<g>
				<g>
					<polygon points="445.225,393.649 445.225,748.569 462.374,748.569 462.374,410.8 760.753,410.8 760.753,778.616 
						497.935,778.616 497.935,795.765 777.899,795.765 777.899,393.649 					"/>
				</g>
				<polygon style="fill:#26BDCF;" points="445.914,749.81 496.965,795.477 497.662,749.487 				"/>
				<g>
					<path style="fill:#F05B26;" d="M710.958,372.189h-63.752c-2.837,14.19-15.367,24.895-30.403,24.895
						c-15.03,0-27.56-10.704-30.41-24.895h-63.734c-8.352,0-15.098,6.775-15.098,15.153v25.224h218.525v-25.224
						C726.085,378.964,719.302,372.189,710.958,372.189z"/>
					<path d="M616.803,335.019c-17.12,0-31.019,13.91-31.019,31.038c0,2.1,0.209,4.144,0.609,6.132
						c2.85,14.19,15.38,24.895,30.41,24.895c15.036,0,27.566-10.704,30.403-24.895c0.403-1.988,0.615-4.032,0.615-6.132
						C647.821,348.929,633.936,335.019,616.803,335.019z M616.803,379.353c-5.115,0-9.497-2.929-11.716-7.165
						c-0.962-1.841-1.556-3.913-1.556-6.132c0-7.354,5.933-13.297,13.271-13.297c7.365,0,13.283,5.944,13.283,13.297
						c0,2.219-0.6,4.291-1.557,6.132C626.318,376.425,621.936,379.353,616.803,379.353z"/>
				</g>
				<g>
					<g>
						<rect x="531.412" y="481.213" width="215.308" height="11.325"/>
						<rect x="531.412" y="575.755" width="215.308" height="11.302"/>
						<rect x="531.412" y="670.28" width="215.308" height="11.318"/>
					</g>
					<g>
						<g>
							<path d="M497.027,511.827c-1.425,0-2.77-0.586-3.755-1.611l-8.495-8.9c-1.969-2.067-1.885-5.338,0.18-7.313
								c2.078-1.969,5.345-1.9,7.313,0.166l4.449,4.676l15.023-18.303c1.807-2.21,5.07-2.538,7.274-0.723
								c2.219,1.813,2.525,5.073,0.719,7.277l-18.718,22.825c-0.943,1.153-2.329,1.837-3.795,1.877
								C497.152,511.827,497.082,511.827,497.027,511.827L497.027,511.827z"/>
						</g>
						<g>
							<path d="M497.027,598.005c-1.425,0-2.779-0.572-3.755-1.605l-8.495-8.902c-1.969-2.08-1.885-5.344,0.195-7.311
								c2.063-1.978,5.329-1.893,7.297,0.179l4.449,4.661l15.016-18.314c1.814-2.212,5.078-2.519,7.282-0.726
								c2.219,1.807,2.525,5.072,0.719,7.284l-18.704,22.841c-0.957,1.152-2.343,1.842-3.809,1.885
								C497.152,598.005,497.082,598.005,497.027,598.005L497.027,598.005z"/>
						</g>
						<g>
							<path d="M497.027,684.174c-1.425,0-2.77-0.568-3.755-1.598l-8.495-8.897c-1.969-2.058-1.885-5.336,0.18-7.31
								c2.078-1.97,5.345-1.879,7.313,0.168l4.449,4.681l15.023-18.314c1.807-2.212,5.07-2.534,7.274-0.721
								c2.219,1.811,2.525,5.082,0.719,7.271l-18.718,22.829c-0.943,1.158-2.329,1.835-3.795,1.891
								C497.152,684.174,497.082,684.174,497.027,684.174L497.027,684.174z"/>
						</g>
					</g>
				</g>
			</g>
		</g>
		<g>
			<g>
				<path style="fill:#FFD45B;" d="M589.869,653.476c1.054,9.532,5.76,32.749,10.604,53.731
					c11.48,24.061,39.829,44.301,62.143,44.301h17.099c22.313,0,50.658-20.239,62.139-44.301
					c4.845-20.982,9.55-44.198,10.604-53.731H589.869z"/>
			</g>
			<g>
				<g>
					<rect x="666.537" y="758.788" width="9.25" height="75.972"/>
				</g>
				<g>
					<path d="M700.885,839.387h-59.461c-2.552,0-4.625-2.071-4.625-4.627c0-2.55,2.073-4.623,4.625-4.623h59.359
						c2.556,0,4.676,2.073,4.676,4.623C705.459,837.315,703.439,839.387,700.885,839.387z"/>
				</g>
				<g>
					<rect x="602.631" y="839.063" style="fill:#26BDCF;" width="137.063" height="38.798"/>
				</g>
				<g>
					<g>
						<path d="M728.879,739.277l-4.82-7.892c7.17-4.382,26.493-18.949,32.156-25.02c13.4-14.315,23.089-32.926,27.617-52.89h-27.409
							v-9.245h38.576l-0.966,5.432c-4.218,23.747-15.25,46.128-31.061,63.019C756.646,719.456,736.809,734.43,728.879,739.277z"/>
					</g>
					<g>
						<path d="M613.446,739.277c-7.931-4.848-27.769-19.821-34.097-26.606c-15.808-16.881-26.84-39.262-31.059-63.009l-0.965-5.432
							h38.576v9.245h-27.409c4.527,19.964,14.217,38.57,27.612,52.882c5.667,6.078,24.991,20.646,32.161,25.027L613.446,739.277z"/>
					</g>
					<g>
						<path d="M679.714,760.757h-17.099c-26.08,0-57.809-22.457-70.726-50.064l-0.313-0.915
							c-2.89-12.488-12.232-53.847-11.017-61.635l0.611-3.912h179.983l0.611,3.912c1.215,7.788-8.127,49.147-11.016,61.635
							l-0.315,0.915C737.517,738.3,705.791,760.757,679.714,760.757z M600.473,707.206c11.48,24.061,39.829,44.301,62.143,44.301
							h17.099c22.313,0,50.658-20.239,62.139-44.301c4.845-20.982,9.55-44.198,10.604-53.731H589.869
							C590.923,663.008,595.629,686.225,600.473,707.206z"/>
					</g>
				</g>
			</g>
		</g>
	</g>
</g>
<g>
	<rect x="1034.916" y="617.499" width="6.667" height="7.085"/>
	<rect x="1019.14" y="617.499" width="6.664" height="7.085"/>
	<rect x="1003.363" y="617.499" width="6.668" height="7.085"/>
	<rect x="987.586" y="617.499" width="6.665" height="7.085"/>
	<rect x="971.808" y="617.499" width="6.666" height="7.085"/>
	<rect x="956.033" y="617.499" width="6.669" height="7.085"/>
	<rect x="940.254" y="617.499" width="6.667" height="7.085"/>
	<rect x="924.479" y="617.499" width="6.666" height="7.085"/>
	<rect x="908.701" y="617.499" width="6.667" height="7.085"/>
	<rect x="892.923" y="617.499" width="6.67" height="7.085"/>
	<rect x="877.152" y="617.499" width="6.663" height="7.085"/>
	<rect x="861.371" y="617.499" width="6.665" height="7.085"/>
	<rect x="845.593" y="617.499" width="6.67" height="7.085"/>
</g>
<g>
	<rect x="934.74" y="827.194" width="124.566" height="4.096"/>
	<rect x="934.74" y="814.083" width="81.949" height="4.096"/>
</g>
<g>
	<rect x="771.207" y="940.08" width="124.566" height="4.096"/>
	<rect x="771.207" y="926.97" width="81.949" height="4.096"/>
</g>
<g>
	<path d="M480.361,964.514c0,0.67-0.035,1.235-0.105,1.688c-0.077,0.459-0.186,0.824-0.329,1.101
		c-0.143,0.274-0.309,0.474-0.501,0.593c-0.192,0.119-0.397,0.182-0.612,0.182h-11.199v12.206c0,0.243-0.064,0.453-0.182,0.631
		c-0.123,0.181-0.326,0.335-0.612,0.467c-0.292,0.139-0.672,0.239-1.157,0.31c-0.479,0.068-1.073,0.107-1.797,0.107
		c-0.719,0-1.32-0.039-1.799-0.107c-0.479-0.071-0.864-0.172-1.15-0.31c-0.292-0.132-0.502-0.286-0.637-0.467
		c-0.129-0.178-0.193-0.388-0.193-0.631v-12.206H448.92c-0.211,0-0.41-0.063-0.591-0.182c-0.181-0.119-0.345-0.318-0.485-0.593
		c-0.146-0.276-0.262-0.642-0.343-1.101c-0.089-0.453-0.124-1.018-0.124-1.688c0-0.652,0.035-1.208,0.105-1.68
		c0.069-0.468,0.175-0.838,0.305-1.112c0.134-0.278,0.285-0.476,0.455-0.597c0.162-0.122,0.354-0.182,0.572-0.182h11.273v-12.17
		c0-0.24,0.064-0.461,0.193-0.667c0.135-0.202,0.345-0.372,0.637-0.502c0.286-0.136,0.672-0.239,1.15-0.308
		c0.478-0.069,1.08-0.108,1.799-0.108c0.724,0,1.318,0.039,1.797,0.108c0.485,0.068,0.865,0.172,1.157,0.308
		c0.286,0.13,0.489,0.3,0.612,0.502c0.117,0.206,0.182,0.427,0.182,0.667v12.17h11.305c0.191,0,0.379,0.06,0.56,0.182
		c0.181,0.121,0.339,0.318,0.468,0.597c0.134,0.274,0.232,0.645,0.309,1.112C480.326,963.306,480.361,963.861,480.361,964.514z"/>
</g>
<g>
	<polygon style="fill:#F05B26;" points="618.887,171.278 527.673,171.278 527.673,258.043 549.953,258.043 544.912,287.582 
		567.319,258.043 618.887,258.043 	"/>
	<g>
		<path d="M568.791,227.605c-1.253,0-2.438-0.518-3.303-1.419l-7.477-7.83c-1.731-1.818-1.654-4.697,0.16-6.434
			c1.828-1.729,4.699-1.67,6.434,0.145l3.912,4.117l13.218-16.104c1.588-1.944,4.461-2.233,6.401-0.636
			c1.95,1.594,2.223,4.46,0.631,6.402l-16.465,20.083c-0.83,1.013-2.053,1.614-3.34,1.653
			C568.901,227.605,568.84,227.605,568.791,227.605L568.791,227.605z"/>
	</g>
</g>
<g>
	<g>
		<path d="M557.97,929.195l20.12-13.986c0.645-0.086,1.239-0.424,1.643-0.997c0.32-0.467,0.445-1.004,0.414-1.529
			c0.031-0.523-0.094-1.063-0.414-1.53c-0.403-0.572-0.998-0.91-1.643-0.996l-20.12-13.986c-1.088-0.756-2.584-0.487-3.34,0.604
			c-0.754,1.082-0.483,2.577,0.606,3.33l18.092,12.578l-18.092,12.577c-1.089,0.755-1.359,2.249-0.606,3.336
			C555.386,929.68,556.882,929.947,557.97,929.195z"/>
	</g>
	<g>
		<path d="M536.443,929.195l20.12-13.986c0.638-0.086,1.246-0.424,1.643-0.997c0.322-0.467,0.446-1.004,0.414-1.529
			c0.032-0.523-0.092-1.063-0.414-1.53c-0.397-0.572-1.006-0.91-1.643-0.996l-20.12-13.986c-1.088-0.756-2.582-0.487-3.335,0.604
			c-0.756,1.082-0.487,2.577,0.599,3.33l18.101,12.578l-18.101,12.577c-1.086,0.755-1.354,2.249-0.599,3.336
			C533.861,929.68,535.355,929.947,536.443,929.195z"/>
	</g>
	<g>
		<path d="M514.92,930.115l20.121-13.981c0.644-0.086,1.244-0.431,1.637-0.999c0.326-0.468,0.451-1.002,0.416-1.53
			c0.035-0.523-0.09-1.063-0.416-1.529c-0.393-0.573-0.993-0.91-1.637-0.998l-20.121-13.984c-1.092-0.76-2.586-0.488-3.337,0.6
			c-0.755,1.087-0.485,2.584,0.599,3.337l18.099,12.575l-18.099,12.576c-1.084,0.756-1.353,2.248-0.599,3.336
			C512.334,930.604,513.828,930.87,514.92,930.115z"/>
	</g>
	<g>
		<path d="M493.393,930.115l20.126-13.981c0.64-0.086,1.237-0.431,1.635-0.999c0.327-0.468,0.449-1.002,0.415-1.53
			c0.034-0.523-0.088-1.063-0.415-1.529c-0.397-0.573-0.995-0.91-1.635-0.998l-20.126-13.984c-1.087-0.76-2.582-0.488-3.338,0.6
			c-0.75,1.087-0.486,2.584,0.605,3.337l18.095,12.575l-18.095,12.576c-1.092,0.756-1.355,2.248-0.605,3.336
			C490.81,930.604,492.306,930.87,493.393,930.115z"/>
	</g>
</g>
<g>
	<g>
		<path d="M1031.604,680.575l20.12-13.986c0.643-0.087,1.237-0.424,1.642-0.997c0.321-0.467,0.444-1.007,0.414-1.529
			c0.03-0.525-0.093-1.063-0.414-1.53c-0.404-0.572-0.999-0.911-1.642-0.997l-20.12-13.985c-1.089-0.756-2.587-0.488-3.342,0.604
			c-0.752,1.083-0.482,2.578,0.605,3.332l18.092,12.577l-18.092,12.577c-1.088,0.754-1.357,2.249-0.605,3.335
			C1029.018,681.059,1030.516,681.326,1031.604,680.575z"/>
	</g>
	<g>
		<path d="M1010.076,680.575l20.12-13.986c0.641-0.087,1.246-0.424,1.643-0.997c0.326-0.467,0.449-1.007,0.414-1.529
			c0.035-0.525-0.088-1.063-0.414-1.53c-0.396-0.572-1.002-0.911-1.643-0.997l-20.12-13.985c-1.086-0.756-2.581-0.488-3.334,0.604
			c-0.758,1.083-0.488,2.578,0.597,3.332l18.102,12.577l-18.102,12.577c-1.085,0.754-1.355,2.249-0.597,3.335
			C1007.495,681.059,1008.99,681.326,1010.076,680.575z"/>
	</g>
	<g>
		<path d="M988.554,681.495l20.12-13.982c0.643-0.086,1.246-0.43,1.639-0.998c0.323-0.468,0.449-1.005,0.414-1.529
			c0.035-0.525-0.091-1.065-0.414-1.532c-0.393-0.57-0.996-0.909-1.639-0.997l-20.12-13.983c-1.092-0.76-2.587-0.489-3.336,0.599
			c-0.758,1.088-0.489,2.584,0.599,3.338l18.096,12.576l-18.096,12.573c-1.088,0.757-1.356,2.25-0.599,3.337
			C985.967,681.982,987.462,682.249,988.554,681.495z"/>
	</g>
	<g>
		<path d="M967.027,681.495l20.126-13.982c0.639-0.086,1.237-0.43,1.635-0.998c0.325-0.468,0.448-1.005,0.414-1.529
			c0.034-0.525-0.089-1.065-0.414-1.532c-0.398-0.57-0.996-0.909-1.635-0.997l-20.126-13.983c-1.088-0.76-2.581-0.489-3.339,0.599
			c-0.749,1.088-0.487,2.584,0.605,3.338l18.094,12.576l-18.094,12.573c-1.093,0.757-1.354,2.25-0.605,3.337
			C964.446,681.982,965.939,682.249,967.027,681.495z"/>
	</g>
</g>
<g>
	<path style="fill:#F05B26;stroke:#000000;stroke-width:5;stroke-miterlimit:10;" d="M474.422,860.126
		c0,48.918-39.654,88.56-88.546,88.56c-48.927,0-88.564-39.642-88.564-88.56c0-48.864,39.637-88.518,88.564-88.518
		C434.768,771.608,474.422,811.262,474.422,860.126z"/>
	<path style="fill:#FFFFFF;" d="M455.099,860.126c0,38.249-30.989,69.222-69.223,69.222c-38.207,0-69.193-30.973-69.193-69.222
		c0-38.188,30.986-69.163,69.193-69.163C424.109,790.963,455.099,821.938,455.099,860.126z"/>
	<path style="fill:#F05B26;" d="M433.688,860.126c0,26.448-21.392,47.844-47.811,47.844c-26.421,0-47.832-21.396-47.832-47.844
		c0-26.365,21.411-47.802,47.832-47.802C412.296,812.324,433.688,833.761,433.688,860.126z"/>
	<path style="fill:#FFFFFF;" d="M409.738,860.126c0,13.187-10.689,23.878-23.862,23.878c-13.175,0-23.846-10.691-23.846-23.878
		c0-13.142,10.671-23.82,23.846-23.82C399.049,836.306,409.738,846.984,409.738,860.126z"/>
	<g>
		<g>
			<polygon style="fill:#F9A729;stroke:#000000;stroke-width:5;stroke-linejoin:round;stroke-miterlimit:10;" points="
				431.949,814.077 428.763,798.221 452.793,774.162 455.994,790.018 			"/>
			<polygon style="fill:#F9A729;stroke:#000000;stroke-width:5;stroke-linejoin:round;stroke-miterlimit:10;" points="
				432.695,813.521 448.558,816.744 472.572,792.698 456.729,789.497 			"/>
		</g>
		<path d="M388.454,861.541c-1.232,1.263-3.237,1.263-4.495,0l0,0c-1.256-1.25-1.256-3.256,0-4.497l82.278-82.291
			c1.256-1.235,3.289-1.235,4.52,0l0,0c1.254,1.235,1.254,3.263,0,4.52L388.454,861.541z"/>
	</g>
</g>
<g>
	<path d="M1066.384,743.406c0,0.671-0.037,1.235-0.105,1.691c-0.073,0.457-0.185,0.821-0.324,1.099
		c-0.147,0.274-0.313,0.472-0.505,0.593c-0.194,0.117-0.397,0.182-0.613,0.182h-11.2v12.207c0,0.24-0.06,0.45-0.18,0.63
		c-0.119,0.179-0.325,0.333-0.613,0.466c-0.288,0.14-0.672,0.24-1.153,0.311c-0.479,0.069-1.076,0.108-1.797,0.108
		c-0.724,0-1.32-0.039-1.801-0.108c-0.481-0.07-0.864-0.171-1.152-0.311c-0.289-0.133-0.499-0.287-0.633-0.466
		c-0.129-0.18-0.195-0.39-0.195-0.63v-12.207h-11.167c-0.215,0-0.412-0.064-0.593-0.182c-0.18-0.121-0.342-0.318-0.484-0.593
		c-0.146-0.277-0.262-0.642-0.346-1.099c-0.084-0.456-0.124-1.021-0.124-1.691c0-0.651,0.038-1.207,0.107-1.681
		c0.072-0.467,0.175-0.838,0.307-1.112c0.13-0.274,0.282-0.475,0.452-0.595c0.166-0.121,0.359-0.182,0.575-0.182h11.272v-12.17
		c0-0.242,0.066-0.462,0.195-0.666c0.134-0.201,0.344-0.375,0.633-0.505c0.288-0.136,0.671-0.236,1.152-0.307
		c0.48-0.069,1.077-0.108,1.801-0.108c0.721,0,1.317,0.039,1.797,0.108c0.481,0.07,0.865,0.171,1.153,0.307
		c0.288,0.13,0.494,0.304,0.613,0.505c0.12,0.204,0.18,0.424,0.18,0.666v12.17h11.309c0.19,0,0.375,0.061,0.56,0.182
		c0.178,0.12,0.337,0.32,0.466,0.595c0.135,0.274,0.235,0.646,0.309,1.112C1066.347,742.199,1066.384,742.755,1066.384,743.406z"/>
</g>
<g>
	<path d="M366.241,279.793c0,0.671-0.034,1.235-0.105,1.691c-0.072,0.457-0.183,0.823-0.324,1.1
		c-0.146,0.274-0.313,0.473-0.505,0.592c-0.192,0.116-0.397,0.182-0.613,0.182h-11.199v12.205c0,0.243-0.061,0.453-0.181,0.632
		c-0.12,0.181-0.324,0.335-0.614,0.466c-0.289,0.138-0.671,0.24-1.153,0.31c-0.479,0.07-1.078,0.108-1.798,0.108
		s-1.32-0.039-1.798-0.108c-0.482-0.07-0.864-0.172-1.154-0.31c-0.29-0.131-0.499-0.285-0.633-0.466
		c-0.129-0.179-0.197-0.389-0.197-0.632v-12.205h-11.167c-0.213,0-0.412-0.065-0.593-0.182c-0.178-0.12-0.341-0.318-0.484-0.592
		c-0.146-0.277-0.259-0.643-0.345-1.1c-0.085-0.456-0.122-1.02-0.122-1.691c0-0.651,0.035-1.206,0.105-1.679
		c0.073-0.467,0.175-0.837,0.306-1.112c0.131-0.277,0.283-0.476,0.452-0.596c0.166-0.122,0.359-0.181,0.576-0.181h11.271v-12.171
		c0-0.242,0.068-0.461,0.197-0.668c0.134-0.201,0.343-0.371,0.633-0.503c0.29-0.134,0.672-0.236,1.154-0.306
		c0.478-0.07,1.077-0.108,1.798-0.108s1.32,0.038,1.798,0.108c0.482,0.07,0.864,0.172,1.153,0.306
		c0.29,0.132,0.494,0.302,0.614,0.503c0.12,0.207,0.181,0.426,0.181,0.668v12.171h11.308c0.189,0,0.376,0.059,0.56,0.181
		c0.178,0.12,0.335,0.318,0.466,0.596c0.132,0.275,0.234,0.646,0.307,1.112C366.207,278.587,366.241,279.141,366.241,279.793z"/>
</g>
<g>
	<rect x="298.3" y="730.178" width="124.563" height="4.096"/>
	<rect x="340.915" y="743.289" width="81.948" height="4.096"/>
</g>
<g>
	<rect x="215.314" y="850.65" width="40.857" height="4.096"/>
	<rect x="229.292" y="863.761" width="26.879" height="4.098"/>
</g>
<g>
	
		<line style="fill:none;stroke:#000000;stroke-width:4;stroke-linecap:round;stroke-linejoin:round;stroke-miterlimit:10;" x1="307.23" y1="619.372" x2="307.23" y2="627.623"/>
	
		<line style="fill:none;stroke:#000000;stroke-width:4;stroke-linecap:round;stroke-linejoin:round;stroke-miterlimit:10;" x1="290.181" y1="623.942" x2="294.309" y2="631.091"/>
	
		<line style="fill:none;stroke:#000000;stroke-width:4;stroke-linecap:round;stroke-linejoin:round;stroke-miterlimit:10;" x1="277.7" y1="636.421" x2="284.846" y2="640.549"/>
	
		<line style="fill:none;stroke:#000000;stroke-width:4;stroke-linecap:round;stroke-linejoin:round;stroke-miterlimit:10;" x1="273.131" y1="653.476" x2="281.384" y2="653.476"/>
	
		<line style="fill:none;stroke:#000000;stroke-width:4;stroke-linecap:round;stroke-linejoin:round;stroke-miterlimit:10;" x1="277.7" y1="670.521" x2="284.846" y2="666.398"/>
	
		<line style="fill:none;stroke:#000000;stroke-width:4;stroke-linecap:round;stroke-linejoin:round;stroke-miterlimit:10;" x1="290.181" y1="683.009" x2="294.309" y2="675.861"/>
	
		<line style="fill:none;stroke:#000000;stroke-width:4;stroke-linecap:round;stroke-linejoin:round;stroke-miterlimit:10;" x1="307.23" y1="687.578" x2="307.23" y2="679.324"/>
	
		<line style="fill:none;stroke:#000000;stroke-width:4;stroke-linecap:round;stroke-linejoin:round;stroke-miterlimit:10;" x1="324.286" y1="683.009" x2="320.161" y2="675.861"/>
	
		<line style="fill:none;stroke:#000000;stroke-width:4;stroke-linecap:round;stroke-linejoin:round;stroke-miterlimit:10;" x1="336.766" y1="670.521" x2="329.619" y2="666.398"/>
	
		<line style="fill:none;stroke:#000000;stroke-width:4;stroke-linecap:round;stroke-linejoin:round;stroke-miterlimit:10;" x1="341.335" y1="653.476" x2="333.081" y2="653.476"/>
	
		<line style="fill:none;stroke:#000000;stroke-width:4;stroke-linecap:round;stroke-linejoin:round;stroke-miterlimit:10;" x1="336.766" y1="636.421" x2="329.619" y2="640.549"/>
	
		<line style="fill:none;stroke:#000000;stroke-width:4;stroke-linecap:round;stroke-linejoin:round;stroke-miterlimit:10;" x1="324.286" y1="623.942" x2="320.161" y2="631.091"/>
	
		<polyline style="fill:none;stroke:#000000;stroke-width:4;stroke-linecap:round;stroke-linejoin:round;stroke-miterlimit:10;" points="
		307.23,634.241 307.23,653.476 295.876,661.462 	"/>
</g>
<g>
	<path style="fill:#F05B26;" d="M175.194,882.616c-1.845,0-3.592-0.762-4.867-2.09l-11.015-11.542
		c-2.551-2.679-2.44-6.919,0.237-9.476c2.695-2.552,6.925-2.46,9.477,0.216l5.769,6.061l19.473-23.722
		c2.341-2.868,6.574-3.297,9.432-0.941c2.876,2.35,3.276,6.573,0.932,9.432l-24.263,29.595c-1.22,1.49-3.021,2.378-4.919,2.429
		C175.357,882.616,175.267,882.616,175.194,882.616L175.194,882.616z"/>
</g>
<g>
	<rect x="91.76" y="565.633" width="104.895" height="2.458"/>
	<rect x="226.159" y="565.633" width="104.895" height="2.458"/>
	<rect x="350.722" y="565.633" width="9.832" height="2.458"/>
</g>
<g>
	<rect x="845.026" y="510.368" width="49.585" height="2.458"/>
	<rect x="908.557" y="510.368" width="49.581" height="2.458"/>
	<rect x="967.436" y="510.368" width="4.648" height="2.458"/>
</g>
<g>
	<rect x="422.932" y="538.854" width="6.667" height="7.083"/>
	<rect x="407.154" y="538.854" width="6.666" height="7.083"/>
	<rect x="391.377" y="538.854" width="6.669" height="7.083"/>
	<rect x="375.601" y="538.854" width="6.665" height="7.083"/>
	<rect x="359.821" y="538.854" width="6.669" height="7.083"/>
	<rect x="344.048" y="538.854" width="6.668" height="7.083"/>
	<rect x="328.269" y="538.854" width="6.668" height="7.083"/>
	<rect x="312.495" y="538.854" width="6.665" height="7.083"/>
	<rect x="296.715" y="538.854" width="6.668" height="7.083"/>
	<rect x="280.939" y="538.854" width="6.668" height="7.083"/>
	<rect x="265.165" y="538.854" width="6.665" height="7.083"/>
	<rect x="249.386" y="538.854" width="6.665" height="7.083"/>
	<rect x="233.608" y="538.854" width="6.668" height="7.083"/>
</g>
<g>
	<rect x="1009.392" y="322.692" width="6.669" height="7.083"/>
	<rect x="993.615" y="322.692" width="6.665" height="7.083"/>
	<rect x="977.839" y="322.692" width="6.666" height="7.083"/>
	<rect x="962.064" y="322.692" width="6.662" height="7.083"/>
	<rect x="946.283" y="322.692" width="6.667" height="7.083"/>
	<rect x="930.509" y="322.692" width="6.668" height="7.083"/>
	<rect x="914.729" y="322.692" width="6.668" height="7.083"/>
	<rect x="898.954" y="322.692" width="6.666" height="7.083"/>
	<rect x="883.177" y="322.692" width="6.666" height="7.083"/>
	<rect x="867.4" y="322.692" width="6.667" height="7.083"/>
	<rect x="851.626" y="322.692" width="6.666" height="7.083"/>
	<rect x="835.847" y="322.692" width="6.665" height="7.083"/>
	<rect x="820.07" y="322.692" width="6.669" height="7.083"/>
</g>
<g>
	<rect x="1106.57" y="461.126" width="3.759" height="7.084"/>
	<rect x="1097.684" y="461.126" width="3.754" height="7.084"/>
	<rect x="1088.794" y="461.126" width="3.756" height="7.084"/>
	<rect x="1079.9" y="461.126" width="3.758" height="7.084"/>
	<rect x="1071.012" y="461.126" width="3.755" height="7.084"/>
	<rect x="1062.122" y="461.126" width="3.757" height="7.084"/>
	<rect x="1053.229" y="461.126" width="3.76" height="7.084"/>
	<rect x="1044.34" y="461.126" width="3.757" height="7.084"/>
	<rect x="1035.448" y="461.126" width="3.757" height="7.084"/>
	<rect x="1026.56" y="461.126" width="3.758" height="7.084"/>
	<rect x="1017.672" y="461.126" width="3.757" height="7.084"/>
	<rect x="1008.78" y="461.126" width="3.755" height="7.084"/>
	<rect x="999.892" y="461.126" width="3.755" height="7.084"/>
</g>
<g>
	<rect x="596.394" y="309.766" width="6.095" height="7.082"/>
	<rect x="581.969" y="309.766" width="6.093" height="7.082"/>
	<rect x="567.545" y="309.766" width="6.096" height="7.082"/>
	<rect x="553.117" y="309.766" width="6.096" height="7.082"/>
	<rect x="538.691" y="309.766" width="6.097" height="7.082"/>
	<rect x="524.268" y="309.766" width="6.094" height="7.082"/>
	<rect x="509.839" y="309.766" width="6.102" height="7.082"/>
	<rect x="495.42" y="309.766" width="6.09" height="7.082"/>
	<rect x="480.988" y="309.766" width="6.097" height="7.082"/>
	<rect x="466.564" y="309.766" width="6.1" height="7.082"/>
	<rect x="452.145" y="309.766" width="6.094" height="7.082"/>
	<rect x="437.718" y="309.766" width="6.091" height="7.082"/>
	<rect x="423.293" y="309.766" width="6.097" height="7.082"/>
</g>
<g>
	<rect x="338.892" y="337.612" width="124.563" height="4.098"/>
	<rect x="338.892" y="324.503" width="81.95" height="4.093"/>
</g>
<g>
	<rect x="655.162" y="299.814" width="124.564" height="4.099"/>
	<rect x="655.162" y="286.706" width="81.949" height="4.092"/>
</g>
<path d="M817.556,283.154c-5.276,0-10.391-1.033-15.216-3.074c-4.652-1.965-8.834-4.782-12.426-8.376
	c-3.59-3.59-6.402-7.771-8.372-12.424c-2.042-4.823-3.07-9.938-3.07-15.216c0-5.279,1.028-10.393,3.07-15.216
	c1.97-4.65,4.782-8.831,8.372-12.425c3.592-3.588,7.773-6.405,12.426-8.373c4.825-2.04,9.94-3.077,15.216-3.077
	c5.279,0,10.4,1.036,15.217,3.077c4.654,1.968,8.834,4.785,12.425,8.373c3.592,3.594,6.407,7.774,8.379,12.425
	c2.039,4.82,3.072,9.938,3.072,15.216c0,5.278-1.033,10.396-3.072,15.216c-1.972,4.654-4.787,8.834-8.379,12.424
	c-3.591,3.594-7.771,6.411-12.425,8.376C827.956,282.121,822.835,283.154,817.556,283.154z M818.974,280.273l1.835-0.692
	c0.064-0.026,0.134-0.047,0.2-0.076l0.074-0.026c0.168-0.07,0.339-0.15,0.515-0.231c0.022-0.006,0.045-0.018,0.069-0.032
	l-0.018,0.006l0.037-0.012l0.022-0.014c0.135-0.07,0.27-0.135,0.402-0.21l0.13-0.065c0.149-0.081,0.305-0.166,0.454-0.262
	l0.035-0.024c0.169-0.105,0.332-0.207,0.497-0.315l0.121-0.09c0.13-0.091,0.248-0.173,0.364-0.261
	c0.052-0.041,0.097-0.072,0.147-0.105c0.141-0.108,0.297-0.229,0.447-0.356c0.018-0.021,0.047-0.041,0.075-0.065
	c0.131-0.111,0.264-0.218,0.393-0.341l0.148-0.126c0.115-0.111,0.227-0.213,0.338-0.315l0.111-0.112
	c0.146-0.14,0.292-0.286,0.432-0.432l0.109-0.122c0.106-0.118,0.223-0.231,0.33-0.354c0.049-0.055,0.099-0.114,0.15-0.166
	c0.104-0.123,0.216-0.251,0.321-0.378l0.035-0.038c0.021-0.035,0.053-0.063,0.075-0.096c0.122-0.149,0.258-0.313,0.392-0.487
	c0.023-0.033,0.065-0.082,0.099-0.129l0.035-0.053c0.093-0.113,0.191-0.239,0.286-0.373c0.035-0.053,0.087-0.123,0.141-0.193
	c0.111-0.148,0.226-0.315,0.337-0.482l0.113-0.166c0.105-0.151,0.215-0.315,0.319-0.479c0.041-0.064,0.102-0.148,0.147-0.233
	c0.076-0.125,0.156-0.254,0.24-0.377c0.033-0.061,0.081-0.134,0.129-0.204l0.012-0.026c0.117-0.199,0.232-0.397,0.342-0.595
	l0.123-0.21c0.09-0.161,0.156-0.295,0.242-0.436c0.045-0.09,0.099-0.186,0.15-0.283c0.075-0.14,0.146-0.28,0.215-0.42l0.019-0.026
	c0.041-0.079,0.077-0.154,0.116-0.23c0.104-0.213,0.206-0.421,0.31-0.637l0.14-0.292c0.064-0.134,0.128-0.272,0.185-0.412
	l0.152-0.327c0.047-0.114,0.101-0.233,0.146-0.348l0.049-0.099c0.052-0.129,0.104-0.257,0.162-0.383l0.198-0.502l0.597-1.454
	l-1.753-0.347c-0.127-0.029-0.262-0.055-0.396-0.082c-0.129-0.023-0.264-0.05-0.401-0.075c-0.563-0.1-1.135-0.196-1.695-0.281
	c-0.115-0.021-0.233-0.035-0.35-0.051l-0.036-0.006c-0.506-0.076-1.017-0.14-1.505-0.205l-0.117-0.015
	c-0.076-0.008-0.159-0.02-0.234-0.026c-0.542-0.063-1.114-0.122-1.738-0.183l-0.433-0.033c-0.62-0.058-1.157-0.096-1.659-0.126
	l-0.186-0.008c-0.379-0.026-0.756-0.04-1.129-0.053l-1.612-0.064V280.273z M814.084,279.499c0.075,0.023,0.143,0.056,0.22,0.082
	l1.839,0.692v-16.72l-1.616,0.064c-0.367,0.012-0.742,0.026-1.114,0.046l-0.206,0.015c-0.483,0.029-1.025,0.068-1.641,0.123
	l-0.442,0.035c-0.62,0.061-1.185,0.12-1.735,0.178c-0.094,0.012-0.193,0.026-0.292,0.042l-0.105,0.011
	c-0.462,0.059-0.945,0.123-1.438,0.192c0,0-0.344,0.053-0.436,0.07c-0.531,0.08-1.068,0.164-1.648,0.275
	c-0.099,0.017-0.465,0.081-0.465,0.081c-0.136,0.036-0.271,0.056-0.404,0.085l-1.705,0.348l0.661,1.611
	c0.062,0.152,0.122,0.31,0.186,0.462l0.033,0.073c0.101,0.236,0.193,0.455,0.293,0.667l0.101,0.234
	c0.086,0.181,0.162,0.355,0.245,0.531l0.111,0.233c0.108,0.219,0.215,0.439,0.326,0.655l0.1,0.192
	c0.076,0.164,0.162,0.321,0.244,0.487c0.036,0.059,0.135,0.237,0.135,0.237c0.088,0.16,0.175,0.321,0.264,0.481l0.099,0.178
	c0.117,0.205,0.234,0.403,0.35,0.602l0.128,0.204c0.096,0.15,0.182,0.283,0.264,0.425l0.134,0.212
	c0.113,0.172,0.223,0.333,0.334,0.497c0.034,0.059,0.092,0.134,0.092,0.134c0.118,0.175,0.235,0.347,0.358,0.508l0.126,0.181
	c0.095,0.134,0.193,0.26,0.292,0.383l0.02,0.026c0.041,0.05,0.073,0.102,0.116,0.151c0.135,0.169,0.268,0.339,0.398,0.503
	c0.028,0.029,0.064,0.07,0.099,0.105c0.105,0.135,0.215,0.257,0.325,0.386c0.037,0.041,0.072,0.076,0.104,0.117l0.038,0.037
	c0.108,0.125,0.226,0.247,0.337,0.371l0.087,0.096c0.158,0.166,0.305,0.313,0.45,0.452l0.116,0.117
	c0.104,0.096,0.229,0.21,0.352,0.321l0.128,0.114c0.143,0.129,0.28,0.25,0.423,0.365l0.045,0.041
	c0.152,0.127,0.309,0.248,0.468,0.362l0.097,0.076c0.147,0.11,0.281,0.207,0.409,0.291l0.102,0.076
	c0.318,0.216,0.658,0.42,1.004,0.607c0.033,0.026,0.07,0.047,0.109,0.065c0.143,0.07,0.28,0.145,0.435,0.216
	c0.004,0.009,0.074,0.04,0.074,0.04c0.175,0.082,0.356,0.158,0.531,0.237L814.084,279.499z M798.872,274.998
	c0.111,0.07,0.229,0.134,0.341,0.204c0.805,0.473,1.638,0.923,2.479,1.332c0.105,0.058,0.228,0.116,0.352,0.175
	c0.468,0.221,0.964,0.438,1.465,0.657l4.328,1.831l-2.773-3.79c-0.019-0.023-0.13-0.187-0.13-0.187
	c-0.128-0.184-0.255-0.367-0.386-0.554l-0.21-0.316c-0.121-0.199-0.251-0.396-0.385-0.596l-0.182-0.292
	c-0.146-0.24-0.285-0.481-0.425-0.724c0,0-0.094-0.155-0.118-0.199c-0.181-0.315-0.354-0.636-0.548-0.992l-0.024-0.053l-0.017-0.023
	c-0.158-0.31-0.319-0.625-0.474-0.943l-0.15-0.3c-0.117-0.252-0.235-0.509-0.355-0.765c-0.054-0.123-0.106-0.229-0.152-0.339
	c-0.118-0.263-0.227-0.52-0.339-0.77l-0.149-0.366c-0.115-0.272-0.22-0.545-0.331-0.826l-0.099-0.233l-0.433-1.124
	c0,0-1.408,0.426-1.477,0.453c-0.276,0.081-0.549,0.172-0.823,0.263c-0.241,0.076-0.484,0.157-0.731,0.242
	c-0.245,0.09-0.49,0.178-0.734,0.263c-0.251,0.09-0.499,0.183-0.735,0.277c-0.234,0.093-0.468,0.187-0.709,0.28
	c-0.23,0.1-0.461,0.193-0.682,0.287c-0.245,0.105-0.485,0.213-0.73,0.32l-0.299,0.141l-1.767,0.8l1.412,1.329
	c1.104,1.031,2.282,2.005,3.51,2.893c0.794,0.572,1.616,1.121,2.439,1.621L798.872,274.998z M834.525,266.925l-0.111,0.278
	c-0.105,0.257-0.204,0.508-0.303,0.765c-0.05,0.1-0.083,0.192-0.124,0.287l-0.058,0.14c-0.099,0.225-0.2,0.456-0.299,0.677
	c-0.052,0.128-0.104,0.239-0.158,0.356l-0.033,0.07c-0.101,0.222-0.212,0.455-0.317,0.678l-0.028,0.058
	c-0.047,0.103-0.099,0.205-0.146,0.309c-0.141,0.281-0.28,0.555-0.427,0.829c-0.023,0.053-0.058,0.118-0.093,0.182
	c-0.169,0.327-0.352,0.647-0.531,0.966l-0.152,0.263c-0.127,0.219-0.264,0.447-0.397,0.666c-0.062,0.107-0.13,0.212-0.191,0.312
	c-0.134,0.204-0.257,0.397-0.381,0.59l-0.21,0.316c-0.128,0.187-0.262,0.376-0.396,0.569c0,0-0.101,0.149-0.124,0.178l-2.738,3.76
	l4.291-1.807c0.362-0.149,0.729-0.312,1.14-0.499c3.504-1.626,6.698-3.784,9.498-6.408l1.415-1.329l-1.893-0.858
	c-0.069-0.029-0.152-0.07-0.227-0.099c-0.205-0.1-0.435-0.198-0.658-0.289c-0.237-0.102-0.475-0.201-0.715-0.301
	c-0.233-0.096-0.468-0.187-0.701-0.273c-0.233-0.1-0.489-0.193-0.753-0.287c-0.227-0.082-0.455-0.164-0.693-0.245
	c-0.258-0.1-0.527-0.181-0.789-0.269c-0.245-0.081-0.492-0.164-0.742-0.24c-0.136-0.043-0.256-0.078-0.385-0.116l-1.139-0.338
	L834.525,266.925z M781.529,246.871c0.271,3.472,1.03,6.876,2.28,10.119c1.254,3.282,2.981,6.354,5.131,9.132l0.661,0.853
	l0.956-0.491c0.193-0.1,0.385-0.198,0.579-0.291l0.174-0.082c0.404-0.199,0.83-0.392,1.261-0.584l0.282-0.129
	c0.439-0.19,0.888-0.379,1.324-0.549l0.088-0.04c0.414-0.157,0.843-0.327,1.324-0.499c0,0,0.206-0.073,0.253-0.09
	c0.479-0.173,0.958-0.333,1.424-0.485c0,0,0.206-0.064,0.251-0.082l0.188-0.059c0.099-0.035,0.203-0.064,0.303-0.09l1.262-0.386
	v-0.003l0.023-0.006l-0.356-1.284l-0.033-0.123c-0.124-0.467-0.241-0.92-0.358-1.381L798.469,260
	c-0.132-0.569-0.256-1.101-0.36-1.621c0,0-0.047-0.246-0.058-0.298c-0.095-0.461-0.19-0.943-0.275-1.425
	c0,0-0.048-0.274-0.061-0.353c-0.104-0.575-0.197-1.145-0.273-1.693l-0.017-0.099c-0.012-0.062-0.017-0.12-0.023-0.179
	c-0.072-0.469-0.136-0.969-0.193-1.465l-0.054-0.417c-0.074-0.655-0.135-1.204-0.18-1.714c-0.006-0.07-0.013-0.122-0.018-0.175
	v-0.064c-0.046-0.508-0.09-1.01-0.116-1.512c-0.013-0.164-0.023-0.321-0.034-0.473v-0.041c-0.038-0.563-0.066-1.129-0.09-1.676
	l-0.053-1.317l-1.289-0.003h-13.949L781.529,246.871z M835.865,263.121l1.239,0.383c0.118,0.031,0.235,0.07,0.352,0.107l0.132,0.047
	c0.099,0.029,0.181,0.049,0.264,0.076c0.479,0.158,0.951,0.322,1.396,0.473l0.303,0.117c0.427,0.152,0.849,0.313,1.244,0.468
	l0.14,0.053c0.427,0.169,0.841,0.344,1.296,0.543l0.342,0.151c0.443,0.192,0.827,0.374,1.188,0.552
	c0.065,0.026,0.13,0.062,0.187,0.091l0.148,0.076c0.156,0.076,0.309,0.152,0.459,0.227l0.954,0.491l0.659-0.844
	c0.082-0.1,0.156-0.201,0.231-0.303l0.042-0.056c0.591-0.783,1.151-1.591,1.67-2.418c0.451-0.703,0.882-1.441,1.285-2.19l0.232-0.44
	c0,0,0.197-0.391,0.253-0.493c1.413-2.818,2.45-5.822,3.081-8.934c0.148-0.706,0.276-1.445,0.379-2.208
	c0.105-0.729,0.183-1.471,0.241-2.216l0.111-1.398h-15.183l-0.115,1.227v0.062c-0.025,0.499-0.048,1.03-0.082,1.722l-0.011,0.144
	c-0.013,0.117-0.018,0.23-0.025,0.348c-0.034,0.505-0.069,0.986-0.11,1.468c0,0-0.023,0.228-0.029,0.299
	c-0.047,0.514-0.099,1.045-0.176,1.687c-0.011,0.096-0.057,0.473-0.057,0.473c-0.054,0.468-0.117,0.938-0.188,1.404l-0.048,0.33
	c-0.069,0.52-0.162,1.063-0.27,1.647l-0.062,0.395c-0.089,0.466-0.175,0.934-0.268,1.396l-0.066,0.32
	c-0.117,0.537-0.238,1.089-0.362,1.608c0,0-0.063,0.26-0.082,0.339c-0.105,0.432-0.221,0.894-0.342,1.343
	c0,0-0.031,0.111-0.037,0.146l-0.351,1.276l0.033,0.009V263.121z M799.808,250.658c0.041,0.476,0.099,0.982,0.163,1.585
	c0.016,0.117,0.028,0.237,0.047,0.356c0.134,1.098,0.298,2.201,0.489,3.279c0.018,0.105,0.058,0.353,0.058,0.353
	c0.1,0.549,0.2,1.028,0.286,1.472l0.031,0.134c0.093,0.464,0.204,0.957,0.344,1.547l0.093,0.371c0.105,0.432,0.217,0.85,0.328,1.264
	l0.362,1.402l1.213-0.257c0.474-0.099,0.957-0.198,1.497-0.297l0.172-0.029c0.545-0.1,1.111-0.199,1.695-0.287
	c0.15-0.023,0.293-0.046,0.437-0.064c1.25-0.187,2.522-0.339,3.796-0.456c0.116-0.012,0.485-0.044,0.485-0.044
	c0.585-0.049,1.12-0.09,1.635-0.122l0.328-0.02c0.575-0.029,1.109-0.056,1.622-0.076l1.254-0.041v-15.252h-16.634l0.041,1.335
	c0,0.04,0.007,0.155,0.007,0.155c0.021,0.508,0.045,1.03,0.082,1.541l0.022,0.358c0.033,0.561,0.082,1.12,0.127,1.662
	L799.808,250.658z M818.974,260.724l1.251,0.044c0.51,0.02,1.033,0.046,1.605,0.076c0.082,0.009,0.429,0.029,0.429,0.029
	c0.528,0.035,1.021,0.07,1.498,0.114c0.2,0.014,0.393,0.032,0.586,0.044c0.687,0.064,1.282,0.129,1.826,0.193
	c0.047,0.006,0.188,0.026,0.188,0.026c0.565,0.07,1.128,0.148,1.676,0.224c0.134,0.023,0.256,0.041,0.385,0.059l0.176,0.029
	c0.535,0.084,1.027,0.168,1.498,0.254c0,0,0.276,0.043,0.337,0.055c0.478,0.087,0.968,0.184,1.47,0.291l1.215,0.254l0.327-1.276
	c0.122-0.449,0.243-0.916,0.367-1.43l0.075-0.298c0.146-0.616,0.258-1.115,0.357-1.579l0.023-0.12
	c0.099-0.479,0.191-0.969,0.279-1.465l0.07-0.392c0.078-0.438,0.178-1.011,0.264-1.597l0.013-0.067
	c0.076-0.513,0.138-1.027,0.21-1.547l0.052-0.461c0.054-0.472,0.107-0.952,0.15-1.434c0,0,0.018-0.149,0.024-0.219
	c0.043-0.484,0.088-1.01,0.123-1.605c0.012-0.167,0.022-0.333,0.035-0.497c0.028-0.443,0.054-0.891,0.07-1.331l0.076-1.624h-16.655
	V260.724z M844.56,221.642c-0.146,0.076-0.29,0.146-0.442,0.222c0,0-0.302,0.152-0.346,0.169c-0.354,0.176-0.753,0.363-1.212,0.564
	c-0.072,0.032-0.324,0.143-0.324,0.143c-0.448,0.197-0.875,0.374-1.295,0.54l-0.111,0.045c-0.366,0.145-0.782,0.3-1.301,0.49
	l-0.265,0.093c-0.467,0.17-0.933,0.33-1.412,0.485l-0.451,0.14c-0.115,0.041-0.236,0.078-0.36,0.117l-1.202,0.362l0.319,1.213
	l0.061,0.208c0.115,0.452,0.236,0.908,0.348,1.369l0.076,0.324c0.124,0.522,0.245,1.065,0.362,1.615c0,0,0.054,0.251,0.066,0.327
	c0.093,0.447,0.179,0.908,0.262,1.375l0.073,0.406c0.095,0.558,0.189,1.11,0.264,1.646c0.017,0.105,0.029,0.207,0.048,0.31
	c0.07,0.485,0.128,0.952,0.188,1.419l0.019,0.129c0.01,0.114,0.027,0.228,0.038,0.342c0.077,0.645,0.129,1.177,0.176,1.682
	c0.007,0.078,0.029,0.303,0.029,0.303c0.041,0.487,0.076,0.969,0.104,1.457l0.042,0.518c0.034,0.686,0.063,1.214,0.082,1.713v0.041
	l0.111,1.226l1.232,0.017h13.95l-0.106-1.395c-0.264-3.468-1.028-6.872-2.273-10.119c-1.26-3.281-2.982-6.353-5.131-9.129
	l-0.658-0.855L844.56,221.642z M831.897,225.965c-3.731,0.782-7.66,1.252-11.673,1.393l-1.251,0.04v15.251h16.648l-0.063-1.5
	c-0.023-0.499-0.048-1.01-0.076-1.518c-0.013-0.123-0.018-0.255-0.028-0.386c-0.042-0.596-0.083-1.147-0.13-1.682l-0.013-0.073
	c-0.046-0.476-0.099-0.977-0.169-1.586c0,0-0.035-0.314-0.045-0.399c-0.066-0.54-0.134-1.042-0.204-1.526l-0.012-0.106
	c-0.083-0.496-0.165-1.021-0.271-1.611l-0.064-0.38c-0.094-0.487-0.187-0.969-0.279-1.442l-0.029-0.146
	c-0.114-0.537-0.232-1.06-0.352-1.56c-0.033-0.134-0.063-0.239-0.087-0.344c-0.111-0.456-0.221-0.894-0.337-1.331l-0.362-1.349
	L831.897,225.965z M799.795,237.559c-0.045,0.514-0.089,1.069-0.134,1.699l-0.022,0.365c-0.037,0.514-0.061,1.028-0.082,1.544
	l-0.071,1.477l1.36,0.005h15.297v-15.251l-1.254-0.04c-0.596-0.023-1.196-0.056-1.651-0.079c-0.069-0.006-0.148-0.009-0.217-0.015
	c-0.565-0.034-1.126-0.075-1.741-0.129c-0.145-0.012-0.304-0.026-0.449-0.04c-0.724-0.064-1.349-0.128-1.915-0.195l-0.04-0.009
	c-0.556-0.064-1.144-0.146-1.821-0.245c-0.13-0.018-0.258-0.041-0.379-0.059l-0.124-0.018c-0.549-0.087-1.081-0.176-1.575-0.266
	l-0.292-0.05c-0.479-0.091-0.976-0.186-1.469-0.292l-1.213-0.251l-0.311,1.203c-0.011,0.065-0.032,0.135-0.052,0.195
	c-0.104,0.42-0.216,0.835-0.321,1.252l-0.093,0.374c-0.14,0.602-0.251,1.086-0.344,1.551l-0.031,0.143
	c-0.093,0.461-0.187,0.94-0.279,1.466c-0.025,0.111-0.047,0.233-0.065,0.355c-0.191,1.087-0.355,2.187-0.489,3.275l-0.047,0.357
	c-0.052,0.487-0.116,1.054-0.17,1.617L799.795,237.559z M788.938,222.006c-2.146,2.776-3.874,5.848-5.128,9.129
	c-1.25,3.241-2.01,6.65-2.28,10.119l-0.103,1.395h15.244l0.047-1.249v-0.064c0.023-0.505,0.052-1.038,0.09-1.684l0.034-0.515
	c0.026-0.499,0.07-0.995,0.109-1.488c0,0,0.018-0.207,0.024-0.248c0.052-0.561,0.111-1.121,0.18-1.717
	c0.013-0.093,0.054-0.426,0.054-0.426c0.058-0.496,0.121-0.99,0.193-1.483l0.039-0.263c0.076-0.537,0.169-1.104,0.269-1.681
	c0.023-0.117,0.048-0.24,0.065-0.359c0.086-0.487,0.181-0.966,0.279-1.433c0,0,0.041-0.226,0.054-0.293
	c0.104-0.505,0.228-1.039,0.36-1.626l0.082-0.321c0.111-0.449,0.223-0.898,0.347-1.348c0.011-0.039,0.016-0.073,0.028-0.108
	l0.36-1.302l-0.017-0.006l0.006-0.017l-1.268-0.388c-0.093-0.029-0.185-0.062-0.28-0.091l-0.472-0.151
	c-0.461-0.145-0.935-0.306-1.396-0.473l-0.29-0.105c-0.474-0.17-0.89-0.327-1.274-0.479l-0.134-0.053
	c-0.385-0.154-0.795-0.327-1.285-0.54c-0.11-0.047-0.216-0.094-0.321-0.14c-0.426-0.19-0.83-0.377-1.209-0.56
	c-0.045-0.02-0.344-0.172-0.344-0.172c-0.146-0.07-0.298-0.146-0.444-0.222l-0.956-0.49L788.938,222.006z M804.438,219.385
	c-0.095,0.202-0.193,0.409-0.286,0.622c-0.023,0.053-0.054,0.112-0.072,0.173c-0.198,0.429-0.398,0.899-0.595,1.387l-0.579,1.451
	l1.712,0.341c0.133,0.029,0.268,0.059,0.409,0.082l0.426,0.081c0.572,0.102,1.139,0.199,1.681,0.28
	c0.136,0.021,0.269,0.042,0.404,0.059c0.489,0.073,0.985,0.14,1.488,0.204l0.346,0.041c0.587,0.072,1.178,0.131,1.763,0.184
	c0.087,0.009,0.414,0.034,0.414,0.034c0.626,0.057,1.174,0.094,1.689,0.124l0.169,0.012c0.407,0.026,0.815,0.041,1.231,0.055
	l1.505,0.059v-16.705l-1.773,0.653c-0.082,0.032-0.172,0.061-0.252,0.097l-0.041,0.012l-0.047,0.023
	c-0.169,0.067-0.345,0.143-0.513,0.228c-0.031,0.009-0.054,0.02-0.077,0.032c-0.152,0.075-0.296,0.151-0.45,0.227
	c-0.028,0.017-0.064,0.038-0.099,0.059c-0.351,0.193-0.69,0.403-1.009,0.619l-0.09,0.064c-0.146,0.097-0.274,0.19-0.409,0.286
	c-0.023,0.02-0.104,0.081-0.104,0.081c-0.156,0.12-0.314,0.246-0.472,0.374l-0.052,0.041l-0.013,0.011
	c-0.133,0.109-0.268,0.228-0.403,0.352l-0.122,0.11c-0.129,0.111-0.253,0.225-0.374,0.342c0,0-0.076,0.078-0.1,0.102
	c-0.14,0.134-0.285,0.28-0.438,0.438l-0.075,0.079c-0.135,0.142-0.252,0.271-0.367,0.405c-0.041,0.044-0.087,0.09-0.13,0.14
	c-0.116,0.129-0.236,0.275-0.36,0.425c-0.024,0.026-0.047,0.055-0.069,0.078c-0.13,0.16-0.27,0.338-0.41,0.514
	c-0.037,0.044-0.076,0.094-0.111,0.146c-0.104,0.134-0.21,0.273-0.314,0.414c-0.035,0.05-0.071,0.103-0.109,0.149
	c-0.264,0.371-0.527,0.751-0.801,1.17l-0.118,0.188c-0.095,0.158-0.193,0.315-0.292,0.47c-0.017,0.038-0.058,0.091-0.088,0.149
	c-0.122,0.205-0.244,0.415-0.367,0.624c-0.019,0.024-0.058,0.105-0.058,0.105c-0.111,0.193-0.217,0.386-0.328,0.587l-0.095,0.178
	c-0.099,0.187-0.203,0.385-0.302,0.59l-0.059,0.099c-0.117,0.237-0.233,0.479-0.35,0.722
	C804.483,219.288,804.461,219.336,804.438,219.385z M818.974,224.573l1.346-0.052c3.556-0.135,7.035-0.537,10.357-1.197l1.536-0.305
	l-0.586-1.453c-2.761-6.853-6.637-11.485-10.911-13.056l-1.742-0.639V224.573z M803.519,210.761
	c-0.36,0.149-0.734,0.315-1.144,0.504c-3.49,1.621-6.69,3.777-9.499,6.403l-1.394,1.308l1.785,0.837
	c0.099,0.046,0.193,0.093,0.298,0.135c0.215,0.102,0.455,0.204,0.689,0.307c0.232,0.096,0.457,0.189,0.677,0.28
	c0.245,0.102,0.491,0.198,0.744,0.294c0.23,0.091,0.466,0.181,0.697,0.262c0.247,0.094,0.509,0.185,0.767,0.275
	c0.24,0.083,0.477,0.164,0.723,0.245c0.264,0.085,0.527,0.17,0.794,0.254c0.088,0.026,0.356,0.107,0.356,0.107l1.152,0.348
	l0.432-1.131c0.019-0.046,0.035-0.093,0.051-0.14l0.06-0.133c0.099-0.263,0.204-0.514,0.303-0.762
	c0.042-0.103,0.178-0.404,0.178-0.404c0.096-0.242,0.195-0.481,0.307-0.715l0.013-0.033c0.053-0.113,0.104-0.236,0.156-0.35
	c0.116-0.253,0.234-0.505,0.358-0.756l0.045-0.094c0.028-0.067,0.065-0.133,0.093-0.204c0.177-0.356,0.333-0.666,0.489-0.961
	l0.031-0.05c0.162-0.309,0.338-0.633,0.548-0.998l0.101-0.17c0.15-0.268,0.297-0.516,0.447-0.764c0,0,0.143-0.216,0.177-0.278
	c0.128-0.201,0.264-0.411,0.401-0.621c0.061-0.095,0.118-0.181,0.178-0.269c0.146-0.213,0.286-0.415,0.432-0.616l0.1-0.143
	l2.825-3.798L803.519,210.761z M830.046,212.719c1.712,2.369,3.225,5.22,4.473,8.479l0.433,1.115c0,0,1.406-0.414,1.505-0.446
	c0.274-0.085,0.537-0.173,0.801-0.257c0.24-0.079,0.475-0.158,0.706-0.24c0.268-0.09,0.532-0.184,0.796-0.283
	c0.226-0.085,0.455-0.169,0.678-0.257c0.242-0.093,0.494-0.192,0.74-0.291c0.233-0.097,0.46-0.193,0.69-0.286
	c0.225-0.1,0.455-0.199,0.682-0.301c0.109-0.049,0.227-0.103,0.344-0.161l1.73-0.814l-1.387-1.308
	c-2.8-2.626-5.994-4.779-9.498-6.403c-0.386-0.181-0.765-0.35-1.14-0.504l-4.274-1.801L830.046,212.719z"/>
<g>
	<path d="M936.965,953.263c0,0.671-0.035,1.233-0.105,1.688c-0.074,0.459-0.187,0.823-0.327,1.1c-0.146,0.274-0.31,0.475-0.5,0.593
		c-0.193,0.118-0.397,0.182-0.616,0.182h-11.198v12.209c0,0.24-0.063,0.451-0.181,0.628c-0.121,0.181-0.325,0.336-0.611,0.468
		c-0.293,0.138-0.674,0.241-1.155,0.311c-0.479,0.068-1.077,0.106-1.8,0.106c-0.718,0-1.32-0.038-1.8-0.106
		c-0.478-0.069-0.862-0.173-1.149-0.311c-0.292-0.132-0.502-0.287-0.636-0.468c-0.128-0.177-0.194-0.388-0.194-0.628v-12.209
		h-11.168c-0.21,0-0.408-0.063-0.59-0.182c-0.183-0.118-0.346-0.318-0.485-0.593c-0.146-0.276-0.264-0.641-0.344-1.1
		c-0.089-0.455-0.121-1.018-0.121-1.688c0-0.65,0.032-1.209,0.102-1.681c0.07-0.468,0.178-0.837,0.305-1.111
		c0.134-0.277,0.286-0.477,0.455-0.597c0.163-0.12,0.356-0.182,0.572-0.182h11.273v-12.172c0-0.241,0.066-0.46,0.194-0.665
		c0.134-0.202,0.344-0.372,0.636-0.503c0.287-0.136,0.672-0.238,1.149-0.307c0.479-0.069,1.082-0.109,1.8-0.109
		c0.723,0,1.32,0.04,1.8,0.109c0.482,0.068,0.862,0.171,1.155,0.307c0.286,0.131,0.49,0.301,0.611,0.503
		c0.117,0.205,0.181,0.424,0.181,0.665v12.172h11.306c0.191,0,0.379,0.062,0.56,0.182c0.182,0.12,0.339,0.319,0.468,0.597
		c0.134,0.274,0.234,0.644,0.309,1.111C936.93,952.054,936.965,952.612,936.965,953.263z"/>
</g>
<g id="XMLID_2_">
	<g>
		<path style="fill:#26BDCF;stroke:#000000;stroke-width:4;stroke-linejoin:round;stroke-miterlimit:10;" d="M330.015,435.979
			c3.07-5.139,7.135-9.754,12.15-13.49l-0.067,0.042l-2.689-12.005l11.378-5.465l7.687,9.602L358.4,414.7
			c6.025-1.575,12.181-1.889,18.105-1.041l6.593-10.351l11.885,4.175l-1.346,12.172c5.159,3.043,9.79,7.126,13.526,12.082
			l11.938-2.682l5.476,11.395l-9.565,7.645c1.57,6.023,1.859,12.165,1.016,18.115l10.328,6.539l-4.167,11.922l-12.177-1.347
			c-3.037,5.159-7.115,9.792-12.098,13.526l2.666,11.922l-11.372,5.461l-7.631-9.537c-6.03,1.555-12.199,1.834-18.126,0.984
			l-6.584,10.359l-11.9-4.183l1.364-12.208c-5.158-3.039-9.767-7.137-13.497-12.087l-11.969,2.689l-5.467-11.389l9.587-7.658
			c-1.54-6.01-1.819-12.159-0.975-18.078l-10.375-6.578l4.168-11.918L330.015,435.979z M385.54,452.217
			c-4.126-8.587-14.411-12.175-22.991-8.06c-8.582,4.125-12.192,14.391-8.072,22.974c4.12,8.583,14.409,12.208,22.986,8.094
			C386.045,471.104,389.665,460.793,385.54,452.217z"/>
	</g>
	<g>
		<path style="fill:none;stroke:#000000;stroke-width:4;stroke-linecap:round;stroke-linejoin:round;stroke-miterlimit:10;" d="
			M330.015,435.979c0.009,0.029-0.017,0.043-0.017,0.043"/>
		<path style="fill:none;stroke:#000000;stroke-width:4;stroke-linecap:round;stroke-linejoin:round;stroke-miterlimit:10;" d="
			M330.015,435.979l-12.21-1.35l-4.168,11.918l10.375,6.578c-0.844,5.919-0.565,12.068,0.975,18.078l-9.587,7.658l5.467,11.389
			l11.969-2.689c3.73,4.95,8.339,9.048,13.497,12.087l-1.364,12.208l11.9,4.183l6.584-10.359c5.927,0.85,12.096,0.57,18.126-0.984
			l7.631,9.537l11.372-5.461l-2.666-11.922c4.982-3.734,9.061-8.367,12.098-13.526l12.177,1.347l4.167-11.922l-10.328-6.539
			c0.844-5.95,0.555-12.092-1.016-18.115l9.565-7.645l-5.476-11.395l-11.938,2.682c-3.736-4.956-8.367-9.039-13.526-12.082
			l1.346-12.172l-11.885-4.175l-6.593,10.351c-5.925-0.848-12.08-0.534-18.105,1.041l0.074-0.037l-7.687-9.602l-11.378,5.465
			l2.689,12.005l0.067-0.042C337.15,426.226,333.085,430.841,330.015,435.979z"/>
		<path style="fill:none;stroke:#000000;stroke-width:4;stroke-linejoin:round;stroke-miterlimit:10;" d="M354.477,467.13
			c-4.121-8.583-0.511-18.849,8.072-22.974c8.58-4.114,18.865-0.526,22.991,8.06c4.125,8.576,0.505,18.888-8.077,23.007
			C368.887,479.338,358.597,475.713,354.477,467.13z"/>
		<path style="fill:none;stroke:#000000;stroke-width:4;stroke-linecap:round;stroke-linejoin:round;stroke-miterlimit:10;" d="
			M340.32,473.935c-3.942-8.201-4.193-17.211-1.378-25.165c2.779-7.966,8.603-14.839,16.803-18.774"/>
	</g>
</g>
<g>
	
		<rect x="890.08" y="802.292" transform="matrix(0.0027 -1 1 0.0027 9.7063 1785.819)" style="fill:#F05B26;stroke:#000000;stroke-width:4;stroke-linecap:round;" width="20.11" height="171.503"/>
	<rect x="899.17" y="802.291" transform="matrix(0.0027 -1 1 0.0027 9.706 1785.8197)" width="1.932" height="171.505"/>
	
		<rect x="984.75" y="882.121" transform="matrix(0.0027 -1 1 0.0027 103.8374 1880.7078)" style="fill:#26BDCF;" width="20.108" height="12.35"/>
	<path style="fill:none;stroke:#000000;stroke-width:4;stroke-miterlimit:10;" d="M1003.7,896.965c0,0,0,0,0.002,0l2.984,0.007
		c2.796,0.008,5.072-2.257,5.082-5.058l0.017-7.153c0.008-2.799-2.256-5.074-5.054-5.082l-2.981-0.009c-0.003,0-0.004,0-0.004,0
		L1003.7,896.965z"/>
	<path style="fill:none;stroke:#000000;stroke-width:4;stroke-linecap:round;" d="M812.342,897.498c0.181,0,0.333,0.04,0.507,0.05
		l0.051-19.81c-0.015-0.002-0.027-0.008-0.041-0.013l-25.347,10.033l24.403,9.781C812.061,897.531,812.191,897.498,812.342,897.498z
		"/>
	<polygon style="fill:#231F20;stroke:#000000;stroke-width:4;stroke-miterlimit:10;" points="794.295,885.22 787.512,887.748 
		794.278,890.306 	"/>
</g>
<g>
	
		<rect x="1003.466" y="511.055" style="fill:#F69220;stroke:#000000;stroke-width:4;stroke-linecap:round;stroke-linejoin:round;stroke-miterlimit:10;" width="17.068" height="75.241"/>
	
		<rect x="1030.941" y="504.856" style="fill:#F05B26;stroke:#000000;stroke-width:4;stroke-linecap:round;stroke-linejoin:round;stroke-miterlimit:10;" width="17.076" height="81.439"/>
	
		<rect x="1058.426" y="564.952" style="fill:#23BED0;stroke:#000000;stroke-width:4;stroke-linecap:round;stroke-linejoin:round;stroke-miterlimit:10;" width="17.074" height="21.344"/>
	
		<rect x="1085.909" y="535.597" style="fill:#F69220;stroke:#000000;stroke-width:4;stroke-linecap:round;stroke-linejoin:round;stroke-miterlimit:10;" width="17.076" height="50.699"/>
	
		<rect x="975.98" y="521.729" style="fill:#F69220;stroke:#000000;stroke-width:4;stroke-linecap:round;stroke-linejoin:round;stroke-miterlimit:10;" width="17.076" height="64.567"/>
</g>
<g>
	<g>
		<defs>
			<path id="SVGID_1_" d="M946.172,460.615c0.56,0.058,22.689,0.594,23.265,0.608l70.824,1.676
				c12.036,0.285,21.968-6.805,22.184-15.828l0.004-0.254c0.215-9.023-9.372-16.578-21.406-16.864l-92.392-2.185
				c-0.572-0.018-1.139-0.012-1.699,0.016L946.172,460.615z"/>
		</defs>
		<clipPath id="SVGID_00000106840216406207061020000005287848897100069510_">
			<use xlink:href="#SVGID_1_"  style="overflow:visible;"/>
		</clipPath>
		<g style="clip-path:url(#SVGID_00000106840216406207061020000005287848897100069510_);">
			<g>
				<polygon style="fill:#F59121;" points="1017.607,391.128 955.662,482.766 942.344,477.591 1004.285,385.954 				"/>
			</g>
			<g>
				<polygon style="fill:#F59121;" points="1045.788,402.061 983.844,493.702 970.518,488.528 1032.463,396.893 				"/>
			</g>
			<g>
				<polygon style="fill:#F59121;" points="1073.964,412.998 1012.018,504.64 998.698,499.468 1060.646,407.829 				"/>
			</g>
		</g>
	</g>
	<g>
		<path d="M918.982,443.55c-0.813,34.158-29.262,61.291-63.421,60.48c-34.16-0.807-61.287-29.252-60.478-63.415
			c0.81-34.159,29.251-61.292,63.413-60.481C892.653,380.939,919.787,409.39,918.982,443.55z M804.09,440.833
			c-0.691,29.184,22.49,53.492,51.69,54.186c29.188,0.693,53.498-22.493,54.191-51.684c0.688-29.189-22.498-53.5-51.689-54.189
			C829.093,388.453,804.785,411.643,804.09,440.833z"/>
	</g>
	<g>
		
			<rect x="925.262" y="428.296" transform="matrix(0.0236 -0.9997 0.9997 0.0236 465.2705 1364.0166)" width="11.276" height="31.065"/>
	</g>
	<g>
		<path d="M1066.948,446.919l-0.002,0.26c-0.275,11.496-12.288,20.569-26.792,20.225l-70.825-1.676
			c-0.227-0.01-22.73-0.555-23.523-0.615l-4.244-0.35l0.981-41.337l4.253-0.153c0.644-0.015,1.303-0.033,1.964-0.018l92.385,2.189
			C1055.649,425.787,1067.223,435.425,1066.948,446.919z M950.785,456.245c6.335,0.165,17.574,0.445,18.758,0.473l70.827,1.678
			c9.367,0.221,17.413-5.016,17.563-11.431l0.005-0.253c0.157-6.422-7.635-12.036-17.008-12.25l-89.581-2.123L950.785,456.245z"/>
	</g>
	<g>
		<path style="fill:#26BDCF;" d="M858.032,399.73c23.388,0.557,41.902,19.964,41.351,43.354
			c-0.558,23.389-19.968,41.9-43.354,41.344c-23.39-0.551-41.901-19.961-41.348-43.346
			C815.234,417.69,834.641,399.177,858.032,399.73z"/>
	</g>
	<g>
		<g>
			<path style="fill:#FFFFFF;" d="M866.903,476.26c-0.05,1.776-1.464,3.231-3.264,3.299c-13.142,0.454-24.313-3.339-32.273-10.974
				c-7.994-7.656-12.27-18.611-12.37-31.678c0.009-1.888,1.487-3.391,3.355-3.403c1.864-0.018,3.395,1.482,3.396,3.351
				c0.094,11.203,3.649,20.486,10.295,26.857c6.618,6.338,16.08,9.476,27.364,9.087c1.863-0.065,3.422,1.393,3.489,3.259
				C866.903,476.128,866.903,476.185,866.903,476.26z"/>
		</g>
	</g>
</g>
<g>
	<path style="fill:#F59121;" d="M201.109,435.928h-0.491c5.604,6.723,9.679,14.759,11.798,23.551h64.626
		c2.078-8.602,6.042-16.467,11.468-23.094c13.426-11.975,21.896-29.379,21.905-48.797c0.022-36.085-29.234-65.36-65.318-65.377
		c-36.098-0.01-65.371,29.241-65.377,65.325C179.715,406.717,187.957,423.973,201.109,435.928z"/>
	<g>
		<g>
			<path style="fill:#FFFFFF;" d="M200.296,387.139c-1.76,0-3.239-1.367-3.34-3.15c-0.765-12.994,2.731-24.147,10.096-32.205
				c7.395-8.09,18.142-12.582,31.079-12.985c1.873-0.039,3.403,1.389,3.452,3.236c0.054,1.847-1.392,3.393-3.238,3.44
				c-11.1,0.359-20.196,4.098-26.352,10.82c-6.118,6.702-9.003,16.148-8.35,27.308c0.111,1.835-1.307,3.422-3.154,3.536
				C200.426,387.139,200.373,387.139,200.296,387.139z"/>
		</g>
	</g>
	<g>
		<polygon points="224.745,486.413 230.428,496.293 259.675,496.31 265.398,486.413 		"/>
	</g>
	<g>
		
			<line style="fill:none;stroke:#000000;stroke-width:4;stroke-miterlimit:10;" x1="216.561" y1="460.241" x2="273.576" y2="460.241"/>
		
			<line style="fill:none;stroke:#000000;stroke-width:4;stroke-miterlimit:10;" x1="216.561" y1="478.44" x2="273.576" y2="478.44"/>
	</g>
</g>
<g>
	<polygon style="fill:#F05B26;stroke:#000000;stroke-width:4;stroke-miterlimit:10;" points="155.307,696.249 231.78,716.505 
		231.78,649.903 155.307,670.157 	"/>
	<rect x="151.839" y="669.905" style="fill:#D85025;" width="21.604" height="26.595"/>
	<polygon style="fill:#F05B26;stroke:#000000;stroke-width:4;stroke-miterlimit:10;" points="126.31,683.202 173.366,695.747 
		173.366,670.662 126.31,683.202 173.366,695.747 173.366,670.662 	"/>
	<rect x="231.407" y="648.148" style="stroke:#000000;stroke-width:4;stroke-miterlimit:10;" width="3.196" height="134.321"/>
	<rect x="226.592" y="781.554" style="stroke:#000000;stroke-width:4;stroke-miterlimit:10;" width="13.077" height="2.111"/>
</g>
<g>
	
		<polygon style="fill-rule:evenodd;clip-rule:evenodd;fill:#F79923;stroke:#000000;stroke-width:4;stroke-linecap:round;stroke-linejoin:bevel;stroke-miterlimit:10;" points="
		875.665,751.195 916.894,751.195 895.82,804.333 	"/>
	<g>
		
			<polygon style="fill-rule:evenodd;clip-rule:evenodd;fill:#F79923;stroke:#000000;stroke-width:4;stroke-linecap:round;stroke-linejoin:bevel;stroke-miterlimit:10;" points="
			915.976,750.652 874.751,750.652 895.82,725.914 		"/>
		
			<polygon style="fill-rule:evenodd;clip-rule:evenodd;fill:#F79923;stroke:#000000;stroke-width:4;stroke-linecap:round;stroke-linejoin:bevel;stroke-miterlimit:10;" points="
			874.751,750.652 833.519,750.652 854.594,725.914 		"/>
		
			<polygon style="fill-rule:evenodd;clip-rule:evenodd;fill:#F79923;stroke:#000000;stroke-width:4;stroke-linecap:round;stroke-linejoin:bevel;stroke-miterlimit:10;" points="
			957.209,750.652 915.976,750.652 937.049,725.914 		"/>
		
			<polygon style="fill-rule:evenodd;clip-rule:evenodd;fill:#F79923;stroke:#000000;stroke-width:4;stroke-linecap:round;stroke-linejoin:bevel;stroke-miterlimit:10;" points="
			854.594,725.914 895.82,725.914 874.751,750.652 		"/>
		
			<polygon style="fill-rule:evenodd;clip-rule:evenodd;fill:#F79923;stroke:#000000;stroke-width:4;stroke-linecap:round;stroke-linejoin:bevel;stroke-miterlimit:10;" points="
			895.82,725.914 937.049,725.914 915.976,750.652 		"/>
	</g>
	
		<polygon style="fill-rule:evenodd;clip-rule:evenodd;fill:#F79923;stroke:#000000;stroke-width:4;stroke-linecap:round;stroke-linejoin:bevel;stroke-miterlimit:10;" points="
		834.435,751.195 875.665,751.195 895.82,804.333 	"/>
	
		<polygon style="fill-rule:evenodd;clip-rule:evenodd;fill:#F79923;stroke:#000000;stroke-width:4;stroke-linecap:round;stroke-linejoin:bevel;stroke-miterlimit:10;" points="
		957.209,751.195 915.976,751.195 895.87,804.288 	"/>
</g>
<g>
	<path d="M458.872,1071.958h-13.643v12.653h15.207v3.804h-19.738v-35.102h18.958v3.802h-14.427v11.095h13.643V1071.958z"/>
	<path d="M478.993,1063.211l4.949,14.163c0.833,2.294,1.509,4.375,2.031,6.457h0.153c0.574-2.082,1.304-4.163,2.136-6.457
		l4.897-14.163h4.791l-9.895,25.204h-4.374l-9.583-25.204H478.993z"/>
	<path d="M527.29,1088.415l-0.365-3.175h-0.158c-1.404,1.98-4.111,3.747-7.705,3.747c-5.105,0-7.707-3.591-7.707-7.238
		c0-6.096,5.414-9.426,15.152-9.375v-0.517c0-2.089-0.572-5.836-5.727-5.836c-2.344,0-4.791,0.731-6.561,1.874l-1.045-3.02
		c2.086-1.352,5.103-2.24,8.283-2.24c7.705,0,9.58,5.26,9.58,10.311v9.425c0,2.188,0.104,4.326,0.418,6.044H527.29z
		 M526.61,1075.553c-4.998-0.106-10.675,0.781-10.675,5.673c0,2.97,1.981,4.379,4.322,4.379c3.28,0,5.365-2.085,6.094-4.22
		c0.155-0.466,0.259-0.989,0.259-1.458V1075.553z"/>
	<path d="M549.491,1051.438h4.584v36.977h-4.584V1051.438z"/>
	<path d="M593.928,1081.541c0,2.603,0.049,4.895,0.207,6.874h-4.062l-0.261-4.114h-0.104c-1.2,2.031-3.852,4.687-8.334,4.687
		c-3.956,0-8.696-2.188-8.696-11.041v-14.735h4.584v13.955c0,4.789,1.458,8.022,5.625,8.022c3.072,0,5.207-2.138,6.041-4.169
		c0.26-0.679,0.416-1.509,0.416-2.345v-15.464h4.583V1081.541z"/>
	<path d="M626.55,1088.415l-0.365-3.175h-0.156c-1.406,1.98-4.113,3.747-7.707,3.747c-5.104,0-7.707-3.591-7.707-7.238
		c0-6.096,5.412-9.426,15.15-9.375v-0.517c0-2.089-0.57-5.836-5.725-5.836c-2.346,0-4.791,0.731-6.563,1.874l-1.045-3.02
		c2.086-1.352,5.106-2.24,8.283-2.24c7.707,0,9.582,5.26,9.582,10.311v9.425c0,2.188,0.103,4.326,0.418,6.044H626.55z
		 M625.872,1075.553c-5-0.106-10.678,0.781-10.678,5.673c0,2.97,1.981,4.379,4.326,4.379c3.279,0,5.363-2.085,6.092-4.22
		c0.152-0.466,0.26-0.989,0.26-1.458V1075.553z"/>
	<path d="M654.272,1055.97v7.241h6.563v3.489h-6.563v13.592c0,3.123,0.885,4.896,3.438,4.896c1.197,0,2.08-0.157,2.656-0.313
		l0.207,3.433c-0.885,0.365-2.293,0.629-4.06,0.629c-2.135,0-3.856-0.678-4.949-1.931c-1.303-1.35-1.771-3.591-1.771-6.558V1066.7
		h-3.904v-3.489h3.904v-6.044L654.272,1055.97z"/>
	<path d="M682.149,1056.127c0.053,1.563-1.094,2.813-2.916,2.813c-1.615,0-2.76-1.249-2.76-2.813c0-1.614,1.197-2.864,2.863-2.864
		C681.056,1053.263,682.149,1054.513,682.149,1056.127z M677.046,1088.415v-25.204h4.584v25.204H677.046z"/>
	<path d="M723.093,1075.604c0,9.32-6.457,13.383-12.549,13.383c-6.824,0-12.084-5-12.084-12.967c0-8.435,5.519-13.385,12.5-13.385
		C718.198,1062.636,723.093,1067.896,723.093,1075.604z M703.093,1075.862c0,5.522,3.18,9.69,7.658,9.69
		c4.373,0,7.656-4.119,7.656-9.792c0-4.27-2.135-9.688-7.553-9.688C705.438,1066.073,703.093,1071.072,703.093,1075.862z"/>
	<path d="M739.933,1070.032c0-2.603-0.051-4.74-0.207-6.821h4.063l0.262,4.163h0.103c1.25-2.395,4.166-4.738,8.334-4.738
		c3.486,0,8.904,2.084,8.904,10.73v15.049h-4.586v-14.527c0-4.063-1.508-7.45-5.83-7.45c-3.021,0-5.365,2.138-6.145,4.688
		c-0.209,0.572-0.314,1.353-0.314,2.136v15.153h-4.584V1070.032z"/>
</g>
</svg>
