<?xml version="1.0" encoding="utf-8"?>
<!-- Generator: Adobe Illustrator 27.5.0, SVG Export Plug-In . SVG Version: 6.00 Build 0)  -->
<svg version="1.1" xmlns="http://www.w3.org/2000/svg" xmlns:xlink="http://www.w3.org/1999/xlink" x="0px" y="0px"
	 viewBox="0 0 500 500" style="enable-background:new 0 0 500 500;" xml:space="preserve">
<g id="Background">
	<rect style="opacity:0.1;fill:#CCC4E8;" width="500" height="500"/>
</g>
<g id="Objects">
	<g>
		<rect x="50.53" y="124.659" style="fill:#F9F8FF;" width="392.793" height="266.929"/>
		<g>
			<path style="opacity:0.05;fill:#8662EA;" d="M181.766,296.336l-0.022,0.001l-6.288-38.526l-54.77,2.444v4.813
				c0,0,4.975,0.529,5.632,2.82c0.658,2.291-5.632,1.057-5.632,1.057l0.921,3.878c5.111-0.881,5.438,1.234,5.438,1.234
				c0.679,3.525-5.262,3.349-5.262,3.349l0.176,4.935c0.705-1.762,5.816-0.705,5.786,1.53c-0.03,2.235-4.905,1.819-4.905,1.819
				l0.529,4.23c0.881-2.291,5.464-1.234,5.077,1.41c-0.387,2.644-4.901,1.41-4.901,1.41l0.529,4.054
				c2.048-0.853,4.089-0.215,3.709,1.907l-1.82,0.08v1.277c-0.869-0.117-1.713-0.62-1.713-0.62l1.001,4.053l0.712-0.081v0.184
				c0,0,5.068,0.529,5.738,2.82c0.67,2.291-5.738,1.058-5.738,1.058l0.938,3.878c5.208-0.881,5.541,1.234,5.541,1.234
				c0.692,3.525-5.361,3.349-5.361,3.349l0.18,4.935c0.718-1.762,5.926-0.705,5.896,1.53c-0.031,2.235-4.998,1.819-4.998,1.819
				l0.539,4.23c0.898-2.291,5.567-1.234,5.173,1.41c-0.394,2.644-4.993,1.41-4.993,1.41l0.539,4.054
				c2.155-0.881,4.31-0.176,3.741,2.115c-0.569,2.291-3.561,0.529-3.561,0.529l1.02,4.053l57.682-6.409L181.766,296.336z"/>
			<path style="fill:#E1DBFC;" d="M181.766,294.285l-0.022,0.001l-6.288-38.526l-54.77,2.444v4.813c0,0,4.975,0.529,5.632,2.82
				c0.658,2.291-5.632,1.058-5.632,1.058l0.921,3.878c5.111-0.881,5.438,1.234,5.438,1.234c0.679,3.525-5.262,3.349-5.262,3.349
				l0.176,4.935c0.705-1.763,5.816-0.705,5.786,1.53c-0.03,2.235-4.905,1.819-4.905,1.819l0.529,4.23
				c0.881-2.291,5.464-1.234,5.077,1.41c-0.387,2.644-4.901,1.41-4.901,1.41l0.529,4.054c2.048-0.853,4.089-0.215,3.709,1.907
				l-1.82,0.08v1.277c-0.869-0.117-1.713-0.62-1.713-0.62l1.001,4.053l0.712-0.081v0.184c0,0,5.068,0.529,5.738,2.82
				c0.67,2.291-5.738,1.057-5.738,1.057l0.938,3.878c5.208-0.881,5.541,1.234,5.541,1.234c0.692,3.525-5.361,3.349-5.361,3.349
				l0.18,4.935c0.718-1.762,5.926-0.705,5.896,1.53c-0.031,2.235-4.998,1.819-4.998,1.819l0.539,4.23
				c0.898-2.291,5.567-1.234,5.173,1.41c-0.394,2.644-4.993,1.41-4.993,1.41l0.539,4.054c2.155-0.881,4.31-0.176,3.741,2.115
				c-0.569,2.291-3.561,0.529-3.561,0.529l1.02,4.052l57.682-6.409L181.766,294.285z"/>
			<g>
				<path style="fill:#F191A5;" d="M140.44,339.197c-0.071,0.01-0.303-1.118-0.662-3.166c-0.349-2.102-0.84-5.055-1.443-8.684
					c-1.183-7.337-2.802-17.476-4.466-28.696c-1.665-11.224-3-21.412-3.798-28.806c-0.404-3.696-0.689-6.692-0.845-8.766
					c-0.159-2.074-0.213-3.224-0.141-3.231c0.072-0.007,0.262,1.128,0.544,3.187c0.284,2.11,0.683,5.077,1.173,8.721
					c0.984,7.364,2.433,17.525,4.097,28.743c1.664,11.215,3.167,21.373,4.164,28.74c0.5,3.683,0.883,6.667,1.116,8.734
					C140.415,338.039,140.511,339.187,140.44,339.197z"/>
			</g>
			<polygon style="fill:#3F2C7E;" points="151.29,287.131 153.229,286.841 152.259,279.467 150.487,279.467 			"/>
			<polygon style="fill:#3F2C7E;" points="154.493,286.623 156.469,286.623 155.462,274.413 153.69,274.413 			"/>
			<polygon style="fill:#3F2C7E;" points="158.137,285.922 160.076,285.46 159.106,269.23 157.334,269.23 			"/>
			<polygon style="fill:#3F2C7E;" points="148.274,287.813 149.99,287.511 149.196,281.596 147.543,282.047 			"/>
			<g>
				<path style="fill:#3F2C7E;" d="M170.798,285.922c0.055,0.282-5.999,1.695-13.519,3.156c-7.523,1.461-13.664,2.416-13.719,2.133
					c-0.055-0.282,5.997-1.695,13.521-3.156C164.601,286.595,170.743,285.64,170.798,285.922z"/>
			</g>
			<g>
				<path style="fill:#3F2C7E;" d="M146.561,294.566c-0.288,0.062-1.486-4.919-2.452-11.128c-0.94-6.202-2.053-11.145-1.776-11.227
					c0.274-0.086,1.858,4.82,2.804,11.059C146.104,289.48,146.836,294.508,146.561,294.566z"/>
			</g>
			<g>
				<path style="fill:#3F2C7E;" d="M177.164,297.693c0.052,0.283-8.691,2.123-19.526,4.109c-10.838,1.987-19.663,3.368-19.715,3.085
					c-0.052-0.283,8.689-2.122,19.528-4.109C168.285,298.791,177.112,297.41,177.164,297.693z"/>
			</g>
			<g>
				<path style="fill:#3F2C7E;" d="M167.523,303.19c0.063,0.281-6.143,1.919-13.86,3.659c-7.72,1.74-14.028,2.923-14.091,2.643
					c-0.063-0.281,6.142-1.918,13.862-3.659C161.151,304.092,167.46,302.909,167.523,303.19z"/>
			</g>
			<g>
				<path style="fill:#3F2C7E;" d="M157.652,310.601c0.043,0.288-3.777,1.094-8.501,1.98c-4.726,0.882-8.578,1.511-8.642,1.227
					c-0.063-0.277,3.704-1.365,8.451-2.251C153.704,310.668,157.611,310.32,157.652,310.601z"/>
			</g>
			<g>
				<path style="fill:#3F2C7E;" d="M170.512,308.086c0.051,0.283-1.884,0.865-4.32,1.3c-2.437,0.435-4.453,0.558-4.503,0.274
					c-0.05-0.283,1.883-0.865,4.32-1.3C168.446,307.926,170.462,307.803,170.512,308.086z"/>
			</g>
			<g>
				<path style="fill:#3F2C7E;" d="M180.17,310.907c0.027,0.139-2.053,0.678-5.448,1.396c-3.394,0.717-8.106,1.602-13.333,2.435
					c-5.229,0.832-9.983,1.455-13.432,1.827c-3.45,0.373-5.594,0.506-5.612,0.366c-0.018-0.145,2.093-0.536,5.512-1.095
					c3.513-0.559,8.193-1.303,13.367-2.126c5.172-0.825,9.851-1.571,13.364-2.131C178.014,311.047,180.142,310.764,180.17,310.907z"
					/>
			</g>
			<g>
				<path style="fill:#3F2C7E;" d="M165.891,316.569c0.072,0.268-5.123,1.875-11.707,3.091c-6.584,1.229-12.008,1.595-12.037,1.319
					c-0.034-0.296,5.305-1.121,11.847-2.343C160.536,317.427,165.817,316.281,165.891,316.569z"/>
			</g>
			<g>
				<path style="fill:#CABAFA;" d="M143.793,265.897c-0.088-0.106,1.152-1.42,4.031-2.882c1.437-0.721,3.302-1.432,5.573-1.868
					c2.264-0.435,4.959-0.553,7.857,0.031c2.882,0.587,5.951,1.879,8.665,4.1c2.714,2.178,5.052,5.406,6.069,9.269
					c1.032,3.82,0.886,8.276-1.088,12.246c-1.967,3.96-5.623,7.06-9.883,8.71c-4.298,1.689-8.949,1.721-13.072,0.782
					c-4.148-0.964-7.868-2.755-10.966-5.178c-1.536-1.226-2.901-2.651-3.913-4.283c-1.021-1.621-1.65-3.451-1.878-5.234
					c-0.427-3.6,0.575-6.897,2.047-9.461c1.488-2.599,3.521-4.439,5.423-5.733c1.919-1.3,3.746-2.09,5.258-2.618
					c3.046-1.025,4.83-1.092,4.856-0.953c0.051,0.209-1.658,0.62-4.478,1.893c-1.399,0.65-3.072,1.536-4.78,2.856
					c-1.698,1.317-3.447,3.086-4.665,5.443c-1.219,2.336-1.97,5.275-1.521,8.276c0.239,1.489,0.782,2.952,1.669,4.297
					c0.878,1.348,2.078,2.562,3.464,3.628c2.791,2.112,6.295,3.749,10.038,4.576c3.744,0.818,7.846,0.75,11.575-0.717
					c3.728-1.442,6.879-4.126,8.551-7.433c1.685-3.303,1.886-7.151,1.044-10.49c-0.826-3.371-2.768-6.201-5.136-8.222
					c-2.358-2.047-5.088-3.317-7.681-3.958c-2.601-0.639-5.089-0.665-7.227-0.389c-2.144,0.274-3.958,0.807-5.393,1.358
					C145.354,265.059,143.916,266.078,143.793,265.897z"/>
			</g>
			<polygon style="opacity:0.41;fill:#AB9DFC;" points="138.259,253.433 139.599,261.059 165.766,258.95 164.286,252.729 			"/>
		</g>
		<g>
			<path style="fill:#3F2C7E;" d="M435.36,165.748c0,0.288-83.335,0.521-186.109,0.521c-102.81,0-186.127-0.233-186.127-0.521
				c0-0.287,83.317-0.521,186.127-0.521C352.025,165.227,435.36,165.46,435.36,165.748z"/>
		</g>
		<g>
			<path style="fill:#3F2C7E;" d="M103.5,382.943c-0.288,0-0.521-56.189-0.521-125.486c0-69.321,0.233-125.498,0.521-125.498
				c0.288,0,0.521,56.177,0.521,125.498C104.021,326.753,103.787,382.943,103.5,382.943z"/>
		</g>
		<g>
			<path style="fill:#3F2C7E;" d="M354.484,382.348c-0.288,0-0.521-57.387-0.521-128.162c0-70.799,0.233-128.174,0.521-128.174
				c0.288,0,0.521,57.375,0.521,128.174C355.004,324.96,354.771,382.348,354.484,382.348z"/>
		</g>
		<g>
			<path style="fill:#3F2C7E;" d="M105.879,244.366c0,0.288-9.587,0.521-21.41,0.521c-11.827,0-21.412-0.233-21.412-0.521
				c0-0.287,9.585-0.521,21.412-0.521C96.292,243.845,105.879,244.079,105.879,244.366z"/>
		</g>
		<g>
			<path style="fill:#3F2C7E;" d="M106.473,328.225c0,0.288-9.187,0.521-20.518,0.521c-11.334,0-20.52-0.233-20.52-0.521
				c0-0.288,9.185-0.521,20.52-0.521C97.286,327.705,106.473,327.938,106.473,328.225z"/>
		</g>
		<g>
			<path style="fill:#CABAFA;" d="M250.012,217.685c0.001-0.151,2.073-0.387,5.822-0.014c1.87,0.2,4.157,0.589,6.735,1.39
				c2.572,0.793,5.445,2.043,8.25,4.052c2.8,2.003,5.457,4.907,7.231,8.61c1.768,3.667,2.702,8.268,1.559,12.909
				c-1.165,4.635-4.518,8.755-8.867,11.317c-4.355,2.642-9.699,3.679-14.93,3.444c-2.63-0.101-5.193-0.491-7.664-1.052
				c-2.473-0.559-4.887-1.321-7.161-2.337c-2.274-1.016-4.411-2.306-6.259-3.922c-1.828-1.626-3.378-3.573-4.332-5.76
				c-0.984-2.175-1.413-4.499-1.411-6.72c0.011-2.226,0.437-4.35,1.104-6.293c1.346-3.888,3.657-7.083,6.261-9.352
				c2.589-2.282,5.32-3.807,7.787-4.876c2.478-1.063,4.698-1.712,6.526-2.141c3.667-0.829,5.742-0.916,5.767-0.762
				c0.037,0.2-1.984,0.627-5.495,1.738c-1.749,0.568-3.864,1.341-6.185,2.485c-2.312,1.148-4.827,2.708-7.155,4.911
				c-2.325,2.173-4.324,5.14-5.457,8.674c-0.558,1.762-0.892,3.661-0.864,5.602c0.038,1.938,0.446,3.909,1.301,5.728
				c1.693,3.686,5.255,6.553,9.448,8.355c2.099,0.919,4.351,1.621,6.695,2.142c2.345,0.524,4.757,0.885,7.197,0.978
				c4.87,0.214,9.649-0.724,13.523-3.034c3.892-2.258,6.802-5.814,7.85-9.73c1.037-3.939,0.329-8.032-1.195-11.391
				c-1.532-3.396-3.851-6.101-6.377-8.048c-2.537-1.958-5.196-3.262-7.616-4.149c-2.424-0.895-4.613-1.419-6.416-1.766
				C252.068,218.003,250.004,217.892,250.012,217.685z"/>
		</g>
		<path style="fill:#4A407F;" d="M42.49,114.227V407.9l408.625-7.797l5.874-285.876H42.49z M442.039,392.94H55.377V126.011h386.662
			V392.94z"/>
		<path style="opacity:0.1;fill:#8662EA;" d="M47.82,119.603v282.05l400.307-7.488l5.754-274.561H47.82z M439.237,387.285H60.445
			V130.921l378.791,0V387.285z"/>
		<g>
			<g>
				<polygon style="opacity:0.1;fill:#8662EA;" points="220.488,174.191 221.263,207.749 254.543,201.448 247.195,174.191 				"/>
				<path style="fill:#FAD04F;" d="M220.488,174.191l2.777,29.971l32.21-4.443c0,0-6.664-23.695-6.849-26.842L220.488,174.191z"/>
			</g>
			<g>
				<path style="fill:#3F2C7E;" d="M246.753,182.76c0.036,0.277-4.711,1.097-10.634,1.377c-5.925,0.292-10.727-0.068-10.718-0.346
					c0.007-0.296,4.787-0.404,10.668-0.694C241.948,182.819,246.718,182.466,246.753,182.76z"/>
			</g>
			<g>
				<path style="fill:#3F2C7E;" d="M246.795,186.302c0.035,0.286-4.524,1.072-10.181,1.757c-5.659,0.685-10.272,1.008-10.307,0.723
					c-0.035-0.285,4.523-1.072,10.182-1.757C242.146,186.341,246.761,186.017,246.795,186.302z"/>
			</g>
			<g>
				<path style="fill:#3F2C7E;" d="M242.054,192.253c0.035,0.28-3.19,0.907-7.225,1.107c-4.036,0.207-7.307-0.092-7.3-0.374
					c0.005-0.293,3.253-0.461,7.247-0.666C238.77,192.122,242.019,191.962,242.054,192.253z"/>
			</g>
		</g>
		<g>
			<g>
				<polygon style="opacity:0.1;fill:#8662EA;" points="65.307,185.848 66.082,219.406 99.362,213.105 92.014,185.848 				"/>
				<path style="fill:#FAD04F;" d="M65.307,185.848l2.777,29.971l32.211-4.443c0,0-6.664-23.695-6.849-26.842L65.307,185.848z"/>
			</g>
			<g>
				<path style="fill:#3F2C7E;" d="M91.572,194.417c0.036,0.276-4.711,1.097-10.634,1.377c-5.925,0.292-10.727-0.068-10.718-0.346
					c0.007-0.296,4.787-0.404,10.668-0.694C86.767,194.476,91.536,194.123,91.572,194.417z"/>
			</g>
			<g>
				<path style="fill:#3F2C7E;" d="M91.614,197.959c0.035,0.286-4.524,1.072-10.181,1.757c-5.659,0.685-10.272,1.008-10.307,0.723
					c-0.035-0.285,4.523-1.072,10.182-1.757C86.965,197.997,91.579,197.674,91.614,197.959z"/>
			</g>
			<g>
				<path style="fill:#3F2C7E;" d="M86.872,203.91c0.035,0.28-3.19,0.907-7.225,1.107c-4.035,0.207-7.307-0.092-7.3-0.374
					c0.005-0.293,3.253-0.461,7.247-0.667C83.589,203.779,86.838,203.619,86.872,203.91z"/>
			</g>
		</g>
		<g>
			<g>
				<path style="opacity:0.1;fill:#8662EA;" d="M285.236,181.692c0,0,4.353,19.635,0,29.45l-2.293,3.878l-28.4-5.089
					c0,0,9.011-19.146,7.799-26.902L285.236,181.692z"/>
				<path style="fill:#BBF9D1;" d="M257.469,178.175c0,0-0.37,26.472-5.183,28.508l28.693,3.887c0,0,6.109-13.699,4.258-28.878
					L257.469,178.175z"/>
			</g>
			<g>
				<path style="fill:#3F2C7E;" d="M281.784,191.093c-0.053,0.283-4.874-0.386-10.767-1.493c-5.895-1.107-10.629-2.234-10.576-2.517
					c0.053-0.283,4.873,0.386,10.768,1.493C277.103,189.684,281.837,190.811,281.784,191.093z"/>
			</g>
			<g>
				<path style="fill:#3F2C7E;" d="M281.145,195.285c-0.053,0.283-4.874-0.386-10.767-1.493c-5.895-1.107-10.629-2.234-10.575-2.517
					c0.053-0.283,4.873,0.386,10.768,1.493C276.463,193.876,281.198,195.002,281.145,195.285z"/>
			</g>
			<g>
				<path style="fill:#3F2C7E;" d="M281.086,199.733c-0.053,0.283-4.874-0.386-10.767-1.493c-5.895-1.108-10.629-2.234-10.576-2.517
					c0.053-0.283,4.873,0.386,10.768,1.493C276.405,198.324,281.14,199.451,281.086,199.733z"/>
			</g>
		</g>
		<g>
			<g>
				<path style="opacity:0.1;fill:#8662EA;" d="M338.332,269.898c0,0,4.353,19.634,0,29.45l-2.293,3.878l-28.4-5.09
					c0,0,9.011-19.146,7.799-26.902L338.332,269.898z"/>
				<path style="fill:#BBF9D1;" d="M310.565,266.381c0,0-0.37,26.472-5.183,28.508l28.693,3.888c0,0,6.109-13.699,4.258-28.878
					L310.565,266.381z"/>
			</g>
			<g>
				<path style="fill:#3F2C7E;" d="M334.881,279.299c-0.053,0.283-4.874-0.386-10.767-1.493c-5.895-1.107-10.629-2.234-10.576-2.517
					c0.053-0.283,4.873,0.386,10.768,1.493C330.199,277.89,334.934,279.017,334.881,279.299z"/>
			</g>
			<g>
				<path style="fill:#3F2C7E;" d="M334.241,283.491c-0.053,0.283-4.874-0.386-10.767-1.493c-5.895-1.107-10.629-2.234-10.576-2.517
					c0.053-0.283,4.873,0.386,10.768,1.493C329.559,282.081,334.294,283.208,334.241,283.491z"/>
			</g>
			<g>
				<path style="fill:#3F2C7E;" d="M334.183,287.939c-0.053,0.283-4.874-0.386-10.767-1.493c-5.895-1.108-10.629-2.234-10.576-2.517
					c0.053-0.283,4.873,0.386,10.768,1.493C329.501,286.53,334.236,287.657,334.183,287.939z"/>
			</g>
		</g>
		<g>
			<g>
				<path style="opacity:0.1;fill:#8662EA;" d="M263.227,275.617c0,0,4.353,19.635,0,29.45l-2.293,3.878l-28.4-5.09
					c0,0,9.011-19.146,7.799-26.902L263.227,275.617z"/>
				<path style="fill:#FAD04F;" d="M235.46,272.099c0,0-0.37,26.472-5.183,28.508l28.693,3.887c0,0,6.109-13.699,4.258-28.878
					L235.46,272.099z"/>
			</g>
			<g>
				<path style="fill:#3F2C7E;" d="M259.776,285.018c-0.053,0.283-4.874-0.386-10.767-1.493c-5.895-1.107-10.629-2.234-10.576-2.517
					c0.053-0.283,4.873,0.386,10.768,1.493C255.094,283.608,259.829,284.735,259.776,285.018z"/>
			</g>
			<g>
				<path style="fill:#3F2C7E;" d="M259.136,289.21c-0.053,0.283-4.874-0.386-10.767-1.493c-5.895-1.107-10.629-2.234-10.576-2.517
					c0.053-0.283,4.873,0.386,10.768,1.493C254.454,287.8,259.189,288.927,259.136,289.21z"/>
			</g>
			<g>
				<path style="fill:#3F2C7E;" d="M259.078,293.658c-0.053,0.283-4.874-0.386-10.767-1.493c-5.895-1.107-10.629-2.234-10.576-2.517
					c0.053-0.283,4.873,0.386,10.768,1.493C254.396,292.249,259.131,293.375,259.078,293.658z"/>
			</g>
		</g>
		<g>
			<g>
				<path style="opacity:0.2;fill:#8662EA;" d="M65.305,257.956c0,0-1.627,29.991,2.493,35.895l29.931-7.426l-6.059-27.75
					L65.305,257.956z"/>
				<path style="fill:#F191A5;" d="M65.305,257.956c0,0,2.232,28.343,4.464,31.245l29.911-6.25c0,0-6.027-16.73-5.58-24.995H65.305z
					"/>
			</g>
			<g>
				<path style="fill:#3F2C7E;" d="M89.773,265.455c0.032,0.286-4.191,0.992-9.431,1.577c-5.242,0.585-9.516,0.828-9.547,0.542
					c-0.032-0.286,4.19-0.992,9.432-1.577C85.466,265.412,89.741,265.169,89.773,265.455z"/>
			</g>
			<g>
				<path style="fill:#3F2C7E;" d="M90.873,269.103c0.057,0.277-4.127,1.365-9.388,2.174c-5.262,0.815-9.578,1.039-9.608,0.758
					c-0.031-0.291,4.214-0.976,9.449-1.787C86.56,269.443,90.815,268.816,90.873,269.103z"/>
			</g>
			<g>
				<path style="fill:#3F2C7E;" d="M87.196,275.146c0.049,0.284-2.731,0.997-6.207,1.593c-3.478,0.596-6.335,0.849-6.384,0.566
					c-0.049-0.283,2.73-0.996,6.208-1.592C84.289,275.116,87.148,274.862,87.196,275.146z"/>
			</g>
		</g>
		<g>
			<g>
				<path style="opacity:0.2;fill:#8662EA;" d="M196.697,242.286c0,0-1.627,29.991,2.493,35.895l29.931-7.426l-6.059-27.75
					L196.697,242.286z"/>
				<path style="fill:#8662EA;" d="M196.697,242.286c0,0,2.232,28.343,4.464,31.245l29.911-6.25c0,0-6.027-16.73-5.58-24.995
					H196.697z"/>
			</g>
			<g>
				<path style="fill:#3F2C7E;" d="M221.165,249.785c0.032,0.286-4.191,0.992-9.431,1.577c-5.242,0.585-9.516,0.828-9.547,0.542
					c-0.032-0.286,4.19-0.992,9.432-1.577C216.858,249.742,221.133,249.499,221.165,249.785z"/>
			</g>
			<g>
				<path style="fill:#3F2C7E;" d="M222.265,253.433c0.057,0.277-4.127,1.365-9.388,2.174c-5.262,0.815-9.578,1.039-9.607,0.758
					c-0.031-0.291,4.214-0.976,9.449-1.787C217.952,253.772,222.207,253.146,222.265,253.433z"/>
			</g>
			<g>
				<path style="fill:#3F2C7E;" d="M218.588,259.475c0.049,0.284-2.731,0.997-6.207,1.592c-3.478,0.596-6.336,0.849-6.384,0.566
					c-0.048-0.283,2.73-0.996,6.208-1.592C215.681,259.445,218.54,259.192,218.588,259.475z"/>
			</g>
		</g>
		<g>
			<g>
				<path style="opacity:0.2;fill:#8662EA;" d="M313.264,192.185c0,0-1.627,29.991,2.493,35.895l29.931-7.426l-6.059-27.75
					L313.264,192.185z"/>
				<path style="fill:#8662EA;" d="M313.264,192.185c0,0,2.232,28.343,4.464,31.245l29.911-6.25c0,0-6.027-16.73-5.58-24.995
					H313.264z"/>
			</g>
			<g>
				<path style="fill:#3F2C7E;" d="M337.731,199.684c0.032,0.286-4.191,0.992-9.431,1.577c-5.242,0.585-9.515,0.828-9.547,0.542
					c-0.032-0.286,4.19-0.992,9.432-1.577C333.425,199.641,337.7,199.398,337.731,199.684z"/>
			</g>
			<g>
				<path style="fill:#3F2C7E;" d="M338.832,203.332c0.057,0.277-4.127,1.365-9.388,2.174c-5.262,0.815-9.578,1.039-9.608,0.758
					c-0.031-0.291,4.214-0.976,9.449-1.787C334.519,203.671,338.774,203.045,338.832,203.332z"/>
			</g>
			<g>
				<path style="fill:#3F2C7E;" d="M335.155,209.374c0.049,0.284-2.731,0.997-6.207,1.592c-3.478,0.596-6.335,0.849-6.384,0.566
					c-0.048-0.283,2.73-0.996,6.208-1.592C332.248,209.344,335.106,209.091,335.155,209.374z"/>
			</g>
		</g>
		<g>
			<g>
				<path style="opacity:0.2;fill:#8662EA;" d="M287.73,320.791c0,0-1.627,29.991,2.493,35.895l29.931-7.426l-6.059-27.75
					L287.73,320.791z"/>
				<path style="fill:#8662EA;" d="M287.73,320.791c0,0,2.232,28.343,4.464,31.245l29.911-6.25c0,0-6.027-16.73-5.58-24.995H287.73z
					"/>
			</g>
			<g>
				<path style="fill:#3F2C7E;" d="M312.198,328.29c0.032,0.286-4.191,0.992-9.431,1.577c-5.242,0.585-9.516,0.828-9.547,0.542
					c-0.032-0.286,4.19-0.992,9.432-1.577C307.891,328.246,312.166,328.004,312.198,328.29z"/>
			</g>
			<g>
				<path style="fill:#3F2C7E;" d="M313.298,331.937c0.057,0.277-4.127,1.365-9.388,2.174c-5.262,0.815-9.578,1.039-9.608,0.758
					c-0.031-0.291,4.214-0.976,9.449-1.788C308.985,332.277,313.24,331.651,313.298,331.937z"/>
			</g>
			<g>
				<path style="fill:#3F2C7E;" d="M309.621,337.98c0.049,0.284-2.731,0.997-6.207,1.593c-3.478,0.596-6.335,0.849-6.384,0.566
					c-0.049-0.283,2.73-0.996,6.208-1.592C306.714,337.95,309.572,337.697,309.621,337.98z"/>
			</g>
		</g>
		<g>
			<g>
				<path style="opacity:0.2;fill:#8662EA;" d="M92.527,339.963c0,0,1.627,29.991-2.493,35.895l-29.931-7.426l6.059-27.75
					L92.527,339.963z"/>
				<path style="fill:#AB9DFC;" d="M92.527,339.963c0,0-2.232,28.343-4.464,31.245l-29.911-6.25c0,0,6.027-16.73,5.58-24.995H92.527
					z"/>
			</g>
			<g>
				<path style="fill:#3F2C7E;" d="M68.06,347.462c0.032-0.286,4.307-0.043,9.546,0.542c5.242,0.585,9.464,1.291,9.432,1.577
					c-0.032,0.286-4.306,0.043-9.547-0.542C72.251,348.454,68.028,347.748,68.06,347.462z"/>
			</g>
			<g>
				<path style="fill:#3F2C7E;" d="M66.959,351.11c0.058-0.287,4.313,0.34,9.547,1.144c5.234,0.811,9.48,1.496,9.449,1.788
					c-0.029,0.281-4.346,0.057-9.608-0.758C71.086,352.475,66.902,351.387,66.959,351.11z"/>
			</g>
			<g>
				<path style="fill:#3F2C7E;" d="M70.636,357.153c0.049-0.284,2.907-0.03,6.383,0.566c3.478,0.596,6.257,1.309,6.208,1.593
					c-0.049,0.283-2.906,0.03-6.384-0.566C73.367,358.15,70.588,357.436,70.636,357.153z"/>
			</g>
		</g>
		<g>
			<g>
				<path style="opacity:0.2;fill:#8662EA;" d="M363.018,175.713c0,0-4.352,29.358-2.364,33.82l28.596-0.637l0.403-33.182H363.018z"
					/>
				<path style="fill:#8662EA;" d="M363.018,175.713c0,1.469,0,29.505,0,29.505h29.999l-3.364-29.505H363.018z"/>
			</g>
			<g>
				<path style="fill:#3F2C7E;" d="M386.974,183.99c0,0.288-4.472,0.522-9.986,0.523c-5.517,0.001-9.988-0.231-9.988-0.519
					c0-0.287,4.471-0.522,9.987-0.523C382.503,183.471,386.974,183.703,386.974,183.99z"/>
			</g>
			<g>
				<path style="fill:#3F2C7E;" d="M387.982,188.329c0.003,0.288-4.655,0.563-10.401,0.614c-5.749,0.052-10.409-0.14-10.412-0.427
					c-0.003-0.287,4.654-0.563,10.402-0.614C383.317,187.85,387.979,188.041,387.982,188.329z"/>
			</g>
			<g>
				<path style="fill:#3F2C7E;" d="M376.402,192.566c0.012,0.288-2.045,0.605-4.594,0.709c-2.549,0.104-4.625-0.045-4.637-0.332
					c-0.012-0.287,2.045-0.605,4.594-0.709C374.314,192.13,376.39,192.279,376.402,192.566z"/>
			</g>
			<g>
				<path style="fill:#3F2C7E;" d="M386.974,192.273c0.002,0.288-1.687,0.533-3.773,0.548c-2.086,0.015-3.778-0.206-3.78-0.494
					c-0.002-0.288,1.687-0.533,3.773-0.547C385.279,191.764,386.972,191.986,386.974,192.273z"/>
			</g>
			<g>
				<path style="fill:#3F2C7E;" d="M386.303,195.545c0.002,0.294-4.129,0.55-9.212,0.876c-5.086,0.318-9.215,0.585-9.25,0.294
					c-0.035-0.279,4.065-1.013,9.184-1.333C382.142,195.053,386.303,195.263,386.303,195.545z"/>
			</g>
		</g>
		<g>
			<g>
				<path style="fill:#3F2C7E;" d="M257.928,153.027c0,0.288-32.464,0.521-72.502,0.521c-40.052,0-72.509-0.233-72.509-0.521
					c0-0.287,32.457-0.521,72.509-0.521C225.464,152.507,257.928,152.74,257.928,153.027z"/>
			</g>
			<g>
				<path style="fill:#3F2C7E;" d="M195.898,146.866c0,0.288-17.75,0.521-39.64,0.521c-21.898,0-39.644-0.233-39.644-0.521
					c0-0.288,17.746-0.521,39.644-0.521C178.148,146.345,195.898,146.578,195.898,146.866z"/>
			</g>
			<g>
				<path style="fill:#3F2C7E;" d="M230.405,146.455c0,0.288-6.346,0.521-14.172,0.521c-7.829,0-14.173-0.233-14.173-0.521
					c0-0.288,6.344-0.521,14.173-0.521C224.059,145.934,230.405,146.167,230.405,146.455z"/>
			</g>
		</g>
		<g>
			<path style="fill:#3F2C7E;" d="M428.408,153.027c0,0.288-13.979,0.521-31.219,0.521c-17.246,0-31.222-0.233-31.222-0.521
				c0-0.287,13.976-0.521,31.222-0.521C414.429,152.507,428.408,152.74,428.408,153.027z"/>
		</g>
		<g>
			<path style="fill:#3F2C7E;" d="M393.08,144.812c0,0.288-5.794,0.521-12.94,0.521c-7.148,0-12.941-0.233-12.941-0.521
				c0-0.288,5.793-0.521,12.941-0.521C387.286,144.291,393.08,144.524,393.08,144.812z"/>
		</g>
		<g>
			<path style="fill:#3F2C7E;" d="M425.943,144.812c0,0.288-6.438,0.521-14.377,0.521c-7.942,0-14.379-0.233-14.379-0.521
				c0-0.288,6.436-0.521,14.379-0.521C419.506,144.291,425.943,144.524,425.943,144.812z"/>
		</g>
		<g>
			<path style="fill:#3F2C7E;" d="M188.307,234.165c-0.072,0.002-0.126-0.8-0.163-2.259c-0.007-0.372-0.015-0.777-0.024-1.215
				c0.008-0.444,0.053-0.924,0.084-1.441c0.084-1.033,0.113-2.22,0.352-3.507c0.101-0.648,0.206-1.325,0.316-2.029
				c0.117-0.704,0.319-1.421,0.486-2.171c0.307-1.511,0.842-3.068,1.365-4.719c1.173-3.256,2.764-6.734,4.867-10.139
				c2.146-3.379,4.583-6.329,7.001-8.805c1.258-1.191,2.425-2.352,3.651-3.287c0.603-0.478,1.159-0.972,1.742-1.385
				c0.585-0.406,1.148-0.796,1.688-1.169c1.053-0.776,2.109-1.32,3.002-1.846c0.452-0.254,0.864-0.504,1.26-0.705
				c0.398-0.183,0.766-0.353,1.104-0.508c1.329-0.604,2.073-0.904,2.103-0.839c0.095,0.192-2.863,1.492-7.046,4.502
				c-0.518,0.385-1.059,0.787-1.621,1.204c-0.561,0.422-1.094,0.925-1.675,1.408c-1.181,0.947-2.305,2.112-3.52,3.298
				c-2.335,2.467-4.699,5.374-6.803,8.686c-2.061,3.338-3.645,6.732-4.846,9.91c-0.537,1.611-1.094,3.13-1.431,4.606
				c-0.182,0.733-0.401,1.433-0.536,2.122c-0.13,0.688-0.256,1.35-0.376,1.984C188.401,230.937,188.522,234.167,188.307,234.165z"/>
		</g>
		<g>
			<path style="fill:#3F2C7E;" d="M197.604,224.037c0.216,0.236-4.37,4.105-8.429,10.167c-0.193,0.29-0.383,0.577-0.562,0.847
				l-0.52,0.783l-0.388-0.847c-2.866-6.257-4.926-11.255-4.677-11.37c0.249-0.115,2.716,4.695,5.62,10.935l-0.908-0.064
				c0.182-0.276,0.376-0.57,0.572-0.867c2.076-3.085,4.374-5.569,6.162-7.208C196.266,224.77,197.519,223.934,197.604,224.037z"/>
		</g>
		<g>
			<path style="fill:#3F2C7E;" d="M377.561,261.7c-0.134,0.013-0.51-2.447-0.848-6.453c-0.34-4.005-0.602-9.559-0.532-15.695
				c0.076-6.138,0.471-11.685,0.906-15.681c0.433-3.997,0.867-6.446,1.001-6.431c0.152,0.017-0.023,2.494-0.267,6.492
				c-0.246,3.998-0.523,9.523-0.598,15.631c-0.07,6.106,0.075,11.635,0.226,15.639C377.598,259.206,377.714,261.686,377.561,261.7z"
				/>
		</g>
		<g>
			<path style="fill:#3F2C7E;" d="M385.028,241.431c0.135,0.049-0.506,2.181-1.651,5.586s-2.795,8.085-4.677,13.232
				c-0.202,0.551-0.403,1.097-0.591,1.61l-0.279,0.761l-0.573-0.57c-3.643-3.624-6.337-7.358-8.02-10.171
				c-1.692-2.816-2.45-4.674-2.344-4.728c0.135-0.071,1.111,1.665,2.937,4.346c1.819,2.681,4.563,6.273,8.157,9.815l-0.852,0.191
				c0.187-0.513,0.386-1.06,0.587-1.611c1.882-5.146,3.641-9.786,4.964-13.127C384.007,243.423,384.893,241.381,385.028,241.431z"/>
		</g>
		<g>
			<g>
				<path style="opacity:0.2;fill:#8662EA;" d="M269.433,227.443c0,0,1.627,29.991-2.493,35.895l-29.931-7.426l6.059-27.75
					L269.433,227.443z"/>
				<path style="fill:#AB9DFC;" d="M269.433,227.443c0,0-2.232,28.343-4.464,31.245l-29.911-6.25c0,0,6.027-16.73,5.58-24.995
					H269.433z"/>
			</g>
			<g>
				<path style="fill:#3F2C7E;" d="M244.966,234.942c0.032-0.286,4.307-0.043,9.546,0.541c5.242,0.585,9.464,1.291,9.432,1.577
					c-0.032,0.286-4.306,0.043-9.547-0.542C249.157,235.934,244.934,235.228,244.966,234.942z"/>
			</g>
			<g>
				<path style="fill:#3F2C7E;" d="M243.865,238.59c0.058-0.287,4.313,0.34,9.547,1.144c5.234,0.811,9.48,1.497,9.449,1.788
					c-0.029,0.281-4.346,0.057-9.608-0.758C247.992,239.955,243.808,238.867,243.865,238.59z"/>
			</g>
			<g>
				<path style="fill:#3F2C7E;" d="M247.542,244.633c0.049-0.284,2.907-0.03,6.383,0.566c3.478,0.596,6.257,1.309,6.208,1.593
					c-0.049,0.283-2.906,0.03-6.384-0.566C250.273,245.629,247.494,244.916,247.542,244.633z"/>
			</g>
		</g>
		<g>
			<g>
				<path style="opacity:0.2;fill:#8662EA;" d="M415.508,343.778c0,0,1.626,29.991-2.493,35.895l-29.931-7.426l6.059-27.75
					L415.508,343.778z"/>
				<path style="fill:#AB9DFC;" d="M415.508,343.778c0,0-2.232,28.343-4.464,31.245l-29.911-6.25c0,0,6.027-16.73,5.58-24.995
					H415.508z"/>
			</g>
			<g>
				<path style="fill:#3F2C7E;" d="M391.04,351.277c0.032-0.286,4.307-0.043,9.547,0.542c5.242,0.585,9.464,1.291,9.432,1.577
					c-0.032,0.286-4.306,0.043-9.547-0.542C395.231,352.269,391.008,351.563,391.04,351.277z"/>
			</g>
			<g>
				<path style="fill:#3F2C7E;" d="M389.939,354.925c0.058-0.287,4.313,0.34,9.547,1.144c5.234,0.811,9.48,1.496,9.449,1.788
					c-0.029,0.281-4.346,0.057-9.608-0.758C394.066,356.29,389.882,355.201,389.939,354.925z"/>
			</g>
			<g>
				<path style="fill:#3F2C7E;" d="M393.616,360.968c0.049-0.284,2.907-0.03,6.383,0.566c3.478,0.596,6.257,1.309,6.208,1.592
					c-0.049,0.283-2.906,0.03-6.384-0.566C396.347,361.964,393.568,361.251,393.616,360.968z"/>
			</g>
		</g>
		<g>
			<g>
				<path style="opacity:0.2;fill:#8662EA;" d="M122.135,299.423c0,0,1.627,29.991-2.493,35.895l-29.931-7.426l6.059-27.75
					L122.135,299.423z"/>
				<path style="fill:#AB9DFC;" d="M122.135,299.423c0,0-2.232,28.343-4.464,31.245l-29.911-6.25c0,0,6.027-16.73,5.58-24.995
					H122.135z"/>
			</g>
			<g>
				<path style="fill:#3F2C7E;" d="M97.667,306.923c0.032-0.286,4.307-0.043,9.547,0.542c5.242,0.585,9.464,1.291,9.432,1.577
					c-0.032,0.286-4.306,0.043-9.547-0.542C101.858,307.914,97.635,307.208,97.667,306.923z"/>
			</g>
			<g>
				<path style="fill:#3F2C7E;" d="M96.567,310.57c0.058-0.287,4.313,0.34,9.547,1.144c5.235,0.811,9.48,1.496,9.449,1.788
					c-0.029,0.281-4.346,0.057-9.607-0.758C100.694,311.935,96.51,310.847,96.567,310.57z"/>
			</g>
			<g>
				<path style="fill:#3F2C7E;" d="M100.244,316.613c0.049-0.284,2.907-0.03,6.383,0.566c3.478,0.596,6.257,1.309,6.208,1.593
					c-0.049,0.283-2.906,0.03-6.384-0.566C102.975,317.61,100.195,316.897,100.244,316.613z"/>
			</g>
		</g>
		<g>
			<g>
				<path style="opacity:0.2;fill:#8662EA;" d="M292.688,174.676c0,0-1.627,29.991,2.493,35.895l29.931-7.426l-6.059-27.75
					L292.688,174.676z"/>
				<path style="fill:#F191A5;" d="M292.688,174.676c0,0,2.232,28.343,4.464,31.245l29.911-6.25c0,0-6.027-16.73-5.58-24.995
					H292.688z"/>
			</g>
			<g>
				<path style="fill:#3F2C7E;" d="M317.156,182.175c0.032,0.286-4.191,0.992-9.431,1.577c-5.242,0.585-9.516,0.827-9.547,0.542
					c-0.032-0.286,4.19-0.992,9.432-1.577C312.849,182.132,317.124,181.889,317.156,182.175z"/>
			</g>
			<g>
				<path style="fill:#3F2C7E;" d="M318.257,185.822c0.057,0.277-4.127,1.365-9.388,2.174c-5.262,0.815-9.578,1.039-9.608,0.758
					c-0.031-0.291,4.214-0.976,9.449-1.787C313.943,186.162,318.199,185.536,318.257,185.822z"/>
			</g>
			<g>
				<path style="fill:#3F2C7E;" d="M314.579,191.865c0.049,0.283-2.731,0.997-6.207,1.592c-3.478,0.596-6.335,0.849-6.384,0.566
					c-0.049-0.283,2.73-0.996,6.208-1.592C311.673,191.835,314.531,191.582,314.579,191.865z"/>
			</g>
		</g>
		<g>
			<g>
				<path style="opacity:0.2;fill:#8662EA;" d="M309.174,308.277c0,0-1.627,29.991,2.493,35.895l29.931-7.426l-6.059-27.75
					L309.174,308.277z"/>
				<path style="fill:#F191A5;" d="M309.174,308.277c0,0,2.232,28.343,4.464,31.245l29.911-6.25c0,0-6.027-16.73-5.58-24.995
					H309.174z"/>
			</g>
			<g>
				<path style="fill:#3F2C7E;" d="M333.642,315.776c0.032,0.286-4.191,0.992-9.431,1.577c-5.242,0.585-9.515,0.828-9.547,0.542
					c-0.032-0.286,4.19-0.992,9.432-1.577C329.335,315.733,333.61,315.49,333.642,315.776z"/>
			</g>
			<g>
				<path style="fill:#3F2C7E;" d="M334.742,319.424c0.057,0.277-4.127,1.365-9.388,2.174c-5.262,0.815-9.579,1.039-9.608,0.758
					c-0.031-0.291,4.214-0.976,9.449-1.788C330.429,319.764,334.684,319.137,334.742,319.424z"/>
			</g>
			<g>
				<path style="fill:#3F2C7E;" d="M331.065,325.467c0.049,0.284-2.731,0.997-6.207,1.593c-3.478,0.596-6.335,0.849-6.384,0.566
					c-0.049-0.283,2.73-0.996,6.208-1.592C328.158,325.437,331.017,325.183,331.065,325.467z"/>
			</g>
		</g>
		<polygon style="opacity:0.39;fill:#4A407F;" points="280.632,116.343 280.632,168.461 355.92,166.607 354.288,116.343 		"/>
		<polygon style="fill:#E1DBFC;" points="284.846,111.364 284.846,163.481 360.134,161.627 358.502,111.364 		"/>
		<polygon style="fill:#CECAEF;" points="291.429,116.986 291.429,156.82 353.552,155.783 353.345,116.986 		"/>
		<g>
			<path style="fill:#3F2C7E;" d="M302.423,121.733c-0.089-0.016,0.056-0.575,0.091-1.531c-0.002-0.472-0.071-1.056-0.478-1.523
				c-0.386-0.487-1.11-0.72-1.632-0.205c-0.549,0.483-0.654,1.392-0.59,2.427c0.089,1.021,0.076,2.141,0.246,3.259
				c0.094,0.548,0.245,1.081,0.521,1.52c0.266,0.426,0.699,0.782,1.153,0.885c0.446,0.11,0.922-0.063,1.305-0.44
				c0.387-0.371,0.615-0.897,0.736-1.506c0.122-0.603,0.145-1.268,0.187-1.928c0.031-0.657,0.062-1.305,0.093-1.942
				c0.05-1.274,0.07-2.504,0.074-3.676c0.003-1.172-0.015-2.286-0.045-3.329c-0.061-1.025,0.012-2.081-0.246-2.75
				c-0.22-0.631-1.093-0.832-1.697-0.865c-0.691,0.009-1.289,0.013-1.688,0.196c-0.405,0.173-0.582,0.495-0.669,0.724
				c-0.089,0.232-0.115,0.374-0.158,0.37c-0.028-0.001-0.076-0.141-0.046-0.42c0.023-0.265,0.183-0.739,0.686-1.033
				c0.495-0.297,1.15-0.351,1.864-0.418c0.394-0.019,0.804,0.03,1.232,0.172c0.411,0.117,0.933,0.464,1.147,0.973
				c0.227,0.486,0.281,1.003,0.323,1.493c0.037,0.489,0.075,0.996,0.114,1.52c0.068,1.051,0.118,2.176,0.142,3.361
				c0.022,1.185,0.022,2.429-0.014,3.718c-0.026,0.645-0.052,1.301-0.078,1.966c-0.04,0.66-0.055,1.345-0.2,2.078
				c-0.138,0.718-0.453,1.49-1.034,2.041c-0.545,0.556-1.443,0.91-2.261,0.691c-0.802-0.203-1.388-0.743-1.767-1.357
				c-0.371-0.617-0.528-1.278-0.621-1.889c-0.157-1.216-0.109-2.348-0.162-3.416c-0.019-0.526,0.019-1.064,0.145-1.596
				c0.127-0.528,0.409-1.048,0.83-1.385c0.409-0.35,1.004-0.503,1.495-0.363c0.492,0.131,0.838,0.448,1.074,0.769
				c0.488,0.668,0.486,1.408,0.424,1.908C302.749,121.259,302.474,121.743,302.423,121.733z"/>
		</g>
		<polygon style="fill:#AFADDB;" points="291.429,149.737 312.112,123.848 327.175,136.903 335.193,128.229 352.737,146.455 
			352.737,155.796 291.429,155.796 		"/>
		<g>
			<path style="fill:#E1DBFC;" d="M370.328,271.894l54.771-2.444l6.409,39.269l-56.615,6.409l-1.001-4.052
				c0,0,2.936,1.762,3.495-0.529c0.559-2.291-1.556-2.996-3.671-2.115l-0.529-4.054c0,0,4.514,1.234,4.901-1.41
				c0.387-2.644-4.196-3.701-5.077-1.41l-0.529-4.23c0,0,4.875,0.416,4.905-1.819c0.03-2.235-5.081-3.292-5.786-1.53l-0.176-4.935
				c0,0,5.942,0.176,5.262-3.349c0,0-0.327-2.115-5.438-1.234l-0.921-3.878c0,0,6.29,1.234,5.632-1.058
				c-0.658-2.291-5.632-2.82-5.632-2.82V271.894z"/>
			<polygon style="opacity:0.41;fill:#AB9DFC;" points="389.652,268.369 390.025,270.238 390.025,271.94 390.025,273.461 
				409.649,273.461 409.649,267.624 			"/>
			<g>
				<path style="fill:#3F2C7E;" d="M415.417,278.452c0.019,0.287-6.827,0.983-15.291,1.553c-8.467,0.571-15.343,0.801-15.363,0.514
					c-0.019-0.287,6.826-0.982,15.293-1.553C408.519,278.396,415.397,278.165,415.417,278.452z"/>
			</g>
			<g>
				<path style="fill:#3F2C7E;" d="M406.811,282.776c0.023,0.287-5.042,0.924-11.311,1.422c-6.271,0.499-11.371,0.671-11.394,0.384
					c-0.023-0.287,5.041-0.923,11.312-1.422C401.687,282.661,406.788,282.489,406.811,282.776z"/>
			</g>
			<g>
				<path style="fill:#3F2C7E;" d="M395.261,287.832c-0.013-0.056,0.907-0.375,2.648-0.631c0.87-0.121,1.95-0.22,3.211-0.157
					c1.255,0.064,2.707,0.289,4.196,0.912c1.476,0.617,3.018,1.625,4.164,3.19c1.161,1.545,1.749,3.713,1.437,5.866
					c-0.288,2.149-1.335,4.304-3.074,5.919c-1.75,1.615-4.146,2.55-6.616,2.696c-4.962,0.31-9.677-2.182-11.926-5.888
					c-1.114-1.864-1.52-4.002-1.221-5.917c0.283-1.936,1.355-3.536,2.578-4.588c1.233-1.067,2.611-1.669,3.845-1.967
					c1.241-0.296,2.342-0.326,3.223-0.269c0.884,0.053,1.557,0.196,2.005,0.309c0.449,0.115,0.674,0.212,0.666,0.244
					c-0.017,0.091-0.965-0.145-2.683-0.147c-0.855,0.006-1.906,0.095-3.063,0.426c-1.15,0.333-2.402,0.941-3.503,1.953
					c-1.093,1.004-1.998,2.442-2.215,4.164c-0.232,1.71,0.164,3.634,1.186,5.294c2.063,3.328,6.479,5.647,11.036,5.347
					c2.267-0.131,4.437-0.987,5.994-2.408c1.561-1.428,2.534-3.376,2.814-5.3c0.299-1.936-0.182-3.823-1.189-5.232
					c-0.996-1.425-2.392-2.4-3.756-3.018c-2.776-1.227-5.376-1.123-7.071-1.027C396.228,287.732,395.277,287.916,395.261,287.832z"
					/>
			</g>
			<g>
				<path style="fill:#3F2C7E;" d="M399.811,299.04c-0.26,0.094-1.447-2.645-2.079-6.249c-0.646-3.603-0.474-6.582-0.198-6.584
					c0.298-0.009,0.592,2.888,1.223,6.402C399.373,296.124,400.094,298.945,399.811,299.04z"/>
			</g>
			<g>
				<path style="fill:#3F2C7E;" d="M414.321,293.625c0.092,0.273-3.38,1.689-7.755,3.164c-4.376,1.475-7.996,2.45-8.088,2.177
					c-0.092-0.272,3.38-1.689,7.756-3.164C410.608,294.328,414.229,293.353,414.321,293.625z"/>
			</g>
			<g>
				<path style="fill:#3F2C7E;" d="M407.202,295.128c-0.271-0.113-0.057-1.223,0.178-2.559c0.245-1.334,0.43-2.45,0.724-2.461
					c0.281-0.016,0.567,1.184,0.302,2.645C408.145,294.215,407.459,295.241,407.202,295.128z"/>
			</g>
			<g>
				<path style="fill:#3F2C7E;" d="M405.499,295.733c0.047-0.042,0.14-0.027,0.28,0.046l-0.307,0.089
					c-0.117-0.503-0.04-1.796,0.215-3.286c0.326-1.904,0.821-3.407,1.104-3.358c0.283,0.048,0.249,1.631-0.077,3.534
					c-0.255,1.49-0.614,2.735-0.892,3.17l-0.212,0.333l-0.095-0.244C405.458,295.869,405.453,295.774,405.499,295.733z"/>
			</g>
			<g>
				<path style="fill:#3F2C7E;" d="M403.706,295.583c0.095-0.023,0.233,0.155,0.397,0.498l-0.525,0.029
					c-0.063-0.696-0.012-1.96,0.098-3.398c0.172-2.177,0.42-3.946,0.71-3.943c0.284,0.001,0.504,1.807,0.328,4.024
					c-0.112,1.461-0.367,2.724-0.606,3.385l-0.482,1.335l-0.043-1.306C403.572,295.828,403.611,295.606,403.706,295.583z"/>
			</g>
			<g>
				<path style="fill:#3F2C7E;" d="M401.982,296.039c-0.285-0.042-0.339-1.843-0.12-4.023c0.219-2.181,0.629-3.935,0.917-3.92
					c0.287,0.016,0.341,1.817,0.12,4.024C402.677,294.325,402.266,296.08,401.982,296.039z"/>
			</g>
			<g>
				<path style="fill:#3F2C7E;" d="M399.931,296.693c0.077-0.017,0.19,0.15,0.329,0.477l-0.434,0.035
					c-0.13-0.889-0.149-2.838-0.027-5.09c0.167-3.099,0.535-5.598,0.822-5.582c0.287,0.016,0.385,2.539,0.218,5.638
					c-0.121,2.252-0.349,4.188-0.574,5.057l-0.394,1.523l-0.04-1.488C399.822,296.908,399.854,296.709,399.931,296.693z"/>
			</g>
			<g>
				<path style="fill:#3F2C7E;" d="M411.617,299.399c0.056,0.019-0.018,0.514-0.357,1.346c-0.337,0.83-0.971,1.99-2.044,3.208
					c-1.079,1.201-2.623,2.452-4.635,3.271c-2.002,0.834-4.459,1.129-6.924,0.7c-2.463-0.443-4.671-1.563-6.265-3.034
					c-1.609-1.46-2.63-3.165-3.231-4.664c-0.59-1.513-0.787-2.819-0.819-3.714c-0.033-0.898,0.068-1.388,0.127-1.387
					c0.196-0.02,0.081,2.004,1.368,4.81c0.652,1.379,1.672,2.928,3.19,4.237c1.501,1.316,3.538,2.317,5.81,2.727
					c2.275,0.394,4.53,0.153,6.392-0.568c1.875-0.708,3.365-1.813,4.45-2.884C410.853,301.254,411.44,299.313,411.617,299.399z"/>
			</g>
			<g>
				<path style="fill:#3F2C7E;" d="M423.168,286.288c0.06,0.281-1.966,0.951-4.524,1.496c-2.559,0.545-4.681,0.759-4.741,0.478
					c-0.06-0.281,1.965-0.951,4.524-1.496C420.986,286.22,423.108,286.007,423.168,286.288z"/>
			</g>
			<g>
				<path style="fill:#3F2C7E;" d="M418.573,290.343c-0.099,0.265-2.385-0.342-5.145-1.361l-1.049-0.388l0.975-0.553
					c0.046-0.026,0.095-0.054,0.144-0.082c2.626-1.486,4.869-2.487,5.011-2.237c0.142,0.25-1.872,1.657-4.498,3.143
					c-0.049,0.028-0.099,0.056-0.144,0.081l-0.075-0.941C416.546,289.041,418.672,290.078,418.573,290.343z"/>
			</g>
			<path style="opacity:0.2;fill:#8662EA;" d="M418.904,299.049l-1.555,3.888c0,0,13.883,4.095,13.848,3.882
				c-0.035-0.213-1.27-7.779-1.27-7.779L418.904,299.049z"/>
			<polygon style="fill:#BBF9D1;" points="419.794,294.447 446.815,296.802 444.433,305.139 417.35,302.937 413.61,298.256 			"/>
			<g>
				<path style="fill:#3F2C7E;" d="M442.498,300.854c-0.003,0.139-1.165,0.236-3.028,0.15c-1.864-0.078-4.42-0.337-7.227-0.694
					c-2.808-0.358-5.337-0.73-7.167-0.995c-1.828-0.273-2.962-0.436-2.958-0.584c0.003-0.139,1.164-0.236,3.028-0.15
					c1.864,0.079,4.42,0.337,7.228,0.694c2.807,0.357,5.336,0.73,7.165,0.994C441.368,300.543,442.502,300.706,442.498,300.854z"/>
			</g>
		</g>
		<g>
			<path style="fill:#E1DBFC;" d="M118.786,183.065l54.771-2.444l6.409,39.269l-56.615,6.409l-1.001-4.053
				c0,0,2.937,1.762,3.495-0.529c0.559-2.291-1.556-2.996-3.671-2.115l-0.529-4.054c0,0,4.514,1.234,4.901-1.41
				c0.387-2.644-4.196-3.701-5.077-1.41l-0.529-4.23c0,0,4.875,0.416,4.905-1.819c0.03-2.235-5.081-3.292-5.786-1.53l-0.176-4.935
				c0,0,5.942,0.176,5.262-3.349c0,0-0.327-2.115-5.438-1.234l-0.921-3.878c0,0,6.289,1.234,5.632-1.057
				c-0.658-2.291-5.632-2.82-5.632-2.82V183.065z"/>
			<polygon style="opacity:0.41;fill:#AB9DFC;" points="138.111,179.541 138.483,181.41 138.483,183.111 138.483,184.633 
				158.107,184.633 158.107,178.796 			"/>
			<g>
				<path style="fill:#3F2C7E;" d="M163.875,189.624c0.019,0.287-6.828,0.982-15.291,1.553c-8.466,0.571-15.343,0.801-15.363,0.514
					c-0.019-0.287,6.826-0.982,15.293-1.553C156.977,189.567,163.855,189.337,163.875,189.624z"/>
			</g>
			<g>
				<path style="fill:#3F2C7E;" d="M155.269,193.948c0.023,0.287-5.042,0.924-11.311,1.422c-6.271,0.499-11.372,0.671-11.394,0.384
					c-0.023-0.287,5.041-0.923,11.312-1.422C150.145,193.833,155.247,193.661,155.269,193.948z"/>
			</g>
			<g>
				<path style="fill:#3F2C7E;" d="M171.627,197.459c0.06,0.281-1.966,0.951-4.524,1.497c-2.559,0.545-4.681,0.759-4.741,0.478
					c-0.06-0.281,1.965-0.951,4.524-1.496C169.444,197.392,171.567,197.178,171.627,197.459z"/>
			</g>
			<g>
				<path style="fill:#3F2C7E;" d="M167.031,201.514c-0.098,0.264-2.385-0.342-5.145-1.361l-1.049-0.387l0.975-0.553
					c0.046-0.026,0.095-0.054,0.144-0.082c2.626-1.486,4.869-2.487,5.011-2.237c0.142,0.25-1.872,1.657-4.498,3.143
					c-0.049,0.028-0.099,0.056-0.144,0.081l-0.075-0.941C165.004,200.212,167.13,201.25,167.031,201.514z"/>
			</g>
			<path style="opacity:0.2;fill:#8662EA;" d="M167.363,210.221l-1.555,3.888c0,0,13.883,4.095,13.848,3.882
				c-0.035-0.213-1.27-7.779-1.27-7.779L167.363,210.221z"/>
			<polygon style="fill:#F191A5;" points="168.252,205.619 195.273,207.973 192.891,216.311 165.808,214.109 162.068,209.428 			"/>
			<g>
				<path style="fill:#3F2C7E;" d="M190.957,212.026c-0.003,0.139-1.164,0.236-3.028,0.15c-1.864-0.078-4.42-0.337-7.227-0.694
					c-2.808-0.357-5.337-0.73-7.166-0.995c-1.829-0.273-2.962-0.435-2.958-0.584c0.003-0.139,1.164-0.236,3.028-0.15
					c1.864,0.079,4.42,0.337,7.228,0.694c2.806,0.357,5.336,0.73,7.165,0.994C189.827,211.715,190.96,211.878,190.957,212.026z"/>
			</g>
			<g>
				<path style="fill:#3F2C7E;" d="M162.762,210.448c0.02,0.011-0.046,0.231-0.325,0.55c-0.272,0.32-0.78,0.731-1.565,0.971
					c-0.767,0.219-1.872,0.289-2.919-0.354c-1.058-0.639-1.689-1.912-2.169-3.2c-0.254-0.654-0.48-1.322-0.838-1.933
					c-0.352-0.611-0.82-1.204-1.424-1.548c-0.591-0.35-1.349-0.38-1.95-0.008c-0.611,0.365-1.068,1.077-1.325,1.862
					c-0.278,0.805-0.281,1.628-0.176,2.581c0.074,0.94,0.234,1.996-0.128,3.108c-0.179,0.535-0.465,1.061-0.921,1.484
					c-0.45,0.426-1.114,0.693-1.766,0.656c-1.328-0.095-2.281-1.01-2.868-2c-1.157-2.034-1.125-4.243-1.514-6.109
					c-0.183-0.942-0.462-1.833-0.919-2.57c-0.457-0.725-1.121-1.318-1.857-1.605c-0.734-0.301-1.526-0.231-2.183,0.13
					c-0.662,0.359-1.185,0.967-1.598,1.609c-0.811,1.307-1.26,2.771-1.624,4.067c-0.682,2.634-0.734,4.873-0.663,6.398
					c0.069,1.531,0.223,2.376,0.138,2.393c-0.056,0.013-0.346-0.806-0.542-2.359c-0.198-1.545-0.262-3.85,0.351-6.606
					c0.337-1.367,0.735-2.859,1.605-4.348c0.446-0.726,1.028-1.462,1.888-1.955c0.846-0.5,1.998-0.617,2.97-0.226
					c0.976,0.371,1.781,1.087,2.354,1.969c0.564,0.89,0.876,1.897,1.08,2.902c0.409,1.999,0.43,4.095,1.412,5.783
					c0.453,0.799,1.249,1.456,2.015,1.491c0.765,0.062,1.41-0.609,1.674-1.428c0.279-0.797,0.18-1.75,0.104-2.7
					c-0.1-0.944-0.091-2.04,0.257-2.97c0.325-0.931,0.879-1.826,1.775-2.349c0.898-0.539,2.056-0.451,2.846,0.053
					c1.592,1.03,2.081,2.717,2.518,3.974c0.43,1.291,0.953,2.402,1.796,2.966c0.825,0.574,1.797,0.59,2.5,0.448
					C162.238,211.241,162.687,210.357,162.762,210.448z"/>
			</g>
			<g>
				<path style="fill:#3F2C7E;" d="M132.02,221.224c-0.285,0.036-1.119-4.671-1.862-10.512c-0.743-5.843-1.114-10.608-0.828-10.645
					c0.285-0.036,1.119,4.67,1.862,10.513C131.934,216.422,132.305,221.188,132.02,221.224z"/>
			</g>
			<g>
				<path style="fill:#3F2C7E;" d="M164.112,215.939c0.006,0.149-2.019,0.345-5.286,0.631c-3.268,0.285-7.778,0.68-12.75,1.212
					c-4.973,0.536-9.465,1.108-12.719,1.524c-3.254,0.415-5.273,0.653-5.299,0.506c-0.024-0.137,1.951-0.631,5.185-1.234
					c3.233-0.604,7.728-1.294,12.721-1.832c4.991-0.535,9.53-0.815,12.818-0.912C162.07,215.737,164.107,215.8,164.112,215.939z"/>
			</g>
		</g>
		<g>
			<g>
				<path style="opacity:0.1;fill:#8662EA;" d="M180.56,328.398c0,0,4.353,19.635,0,29.45l-2.293,3.878l-28.4-5.09
					c0,0,9.011-19.146,7.799-26.902L180.56,328.398z"/>
				<path style="fill:#BBF9D1;" d="M152.792,324.88c0,0-0.37,26.472-5.183,28.508l28.693,3.887c0,0,6.109-13.699,4.258-28.878
					L152.792,324.88z"/>
			</g>
			<g>
				<path style="fill:#3F2C7E;" d="M177.108,337.799c-0.053,0.283-4.874-0.386-10.767-1.493c-5.895-1.107-10.629-2.234-10.576-2.517
					c0.053-0.283,4.873,0.386,10.768,1.493C172.426,336.389,177.161,337.516,177.108,337.799z"/>
			</g>
			<g>
				<path style="fill:#3F2C7E;" d="M176.468,341.99c-0.053,0.283-4.874-0.386-10.767-1.493c-5.895-1.108-10.629-2.234-10.576-2.517
					c0.053-0.283,4.873,0.386,10.768,1.493C171.787,340.581,176.522,341.708,176.468,341.99z"/>
			</g>
			<g>
				<path style="fill:#3F2C7E;" d="M176.41,346.439c-0.053,0.283-4.874-0.386-10.767-1.493c-5.895-1.107-10.629-2.234-10.576-2.517
					c0.053-0.283,4.873,0.386,10.768,1.493C171.728,345.03,176.463,346.156,176.41,346.439z"/>
			</g>
		</g>
		<g>
			<path style="fill:#CABAFA;" d="M273.697,304.412c-0.01-0.203,1.057-0.39,2.913-0.813c1.857-0.411,4.499-1.221,7.497-2.736
				c1.504-0.747,3.057-1.739,4.646-2.894c1.541-1.22,3.15-2.578,4.593-4.246c2.937-3.27,5.41-7.564,6.572-12.463
				c1.076-4.92,0.708-9.863-0.522-14.083c-0.578-2.129-1.44-4.05-2.3-5.817c-0.933-1.729-1.902-3.296-2.934-4.621
				c-2.046-2.664-4.076-4.538-5.571-5.714c-1.489-1.184-2.369-1.815-2.272-1.994c0.07-0.138,1.119,0.19,2.845,1.159
				c1.729,0.959,4.061,2.706,6.424,5.386c1.19,1.333,2.319,2.941,3.401,4.749c1.009,1.845,2.01,3.881,2.703,6.159
				c1.458,4.515,1.957,9.921,0.764,15.357c-1.28,5.414-4.072,10.068-7.342,13.505c-1.612,1.753-3.395,3.154-5.104,4.379
				c-1.759,1.16-3.473,2.12-5.123,2.806c-3.292,1.391-6.15,1.956-8.124,2.07C274.788,304.725,273.7,304.567,273.697,304.412z"/>
		</g>
		<g>
			<path style="fill:#CABAFA;" d="M300.986,248.9c-0.086,0.714-6.679,0.511-14.726-0.454c-0.659-0.083-1.308-0.165-1.925-0.242
				l1.439-1.399c0.572,7.177,0.533,12.741-0.124,12.801c-0.657,0.06-1.705-5.404-2.446-12.565l-0.164-1.581l1.602,0.182
				c0.618,0.07,1.268,0.144,1.928,0.219C294.617,246.825,301.072,248.186,300.986,248.9z"/>
		</g>
		<path style="fill:#CABAFA;" d="M201.868,335.207c4.947,12.365,11.627,24.036,19.782,34.566l9.319-5.474l-19.613-33.578
			L201.868,335.207z"/>
		<polygon style="fill:#CABAFA;" points="219.135,330.721 237.009,361.725 246.927,357.153 228.772,328.226 		"/>
		<polygon style="fill:#CABAFA;" points="237.794,330.721 252.246,354.042 260.706,348.522 245.321,328.226 		"/>
		<polygon style="fill:#CABAFA;" points="256.152,333.789 265.162,345.061 272.227,341.134 262.861,329.775 		"/>
		<g>
			<path style="fill:#CABAFA;" d="M281.063,346.892c0.361,0.606-11.57,8.369-26.983,16.737
				c-15.41,8.386-28.411,14.176-28.723,13.544c-0.326-0.656,12.118-7.471,27.479-15.831C268.201,353,280.69,346.262,281.063,346.892
				z"/>
		</g>
		<g>
			<path style="fill:#CABAFA;" d="M265.512,364.801c0.304,0.652-6.873,4.638-16.027,8.902c-9.157,4.266-16.825,7.194-17.129,6.542
				c-0.303-0.651,6.872-4.637,16.029-8.903C257.54,367.078,265.209,364.149,265.512,364.801z"/>
		</g>
		<g>
			<path style="fill:#CABAFA;" d="M421.342,323.103c0.075,0.715-11.146,2.484-25.061,3.949c-13.919,1.466-25.261,2.075-25.336,1.359
				c-0.075-0.715,11.144-2.483,25.063-3.949C409.923,322.997,421.267,322.388,421.342,323.103z"/>
		</g>
		<g>
			<path style="fill:#CABAFA;" d="M395.781,331.529c0.09,0.714-4.547,1.885-10.355,2.617c-5.81,0.732-10.591,0.747-10.681,0.033
				c-0.09-0.713,4.546-1.885,10.356-2.617C390.909,330.831,395.692,330.816,395.781,331.529z"/>
		</g>
		<g>
			<path style="fill:#3F2C7E;" d="M76.628,136.534c-0.02-0.03,0.207-0.212,0.665-0.536c0.468-0.305,1.19-0.722,2.197-1.086
				c1.002-0.369,2.293-0.687,3.822-0.739c1.52-0.041,3.3,0.13,5.102,0.87c1.798,0.7,3.636,1.991,4.938,3.899
				c1.299,1.892,2.125,4.319,2.099,6.918c-0.006,2.576-0.995,5.381-3.039,7.376c-2.002,2.032-4.773,3.274-7.67,3.797
				c-2.909,0.512-5.85,0.38-8.537-0.416c-2.68-0.781-5.098-2.433-6.449-4.698c-1.369-2.238-1.773-4.791-1.552-7.061
				c0.216-2.285,1.087-4.327,2.244-5.876c1.157-1.56,2.531-2.683,3.827-3.478c1.298-0.803,2.533-1.272,3.551-1.578
				c1.021-0.31,1.845-0.415,2.398-0.484c0.558-0.04,0.85-0.043,0.854-0.007c0.015,0.099-1.163,0.181-3.126,0.877
				c-0.973,0.357-2.146,0.866-3.364,1.684c-1.218,0.81-2.491,1.921-3.543,3.417c-1.053,1.489-1.814,3.389-1.982,5.521
				c-0.172,2.115,0.245,4.469,1.507,6.48c1.237,2.023,3.418,3.505,5.925,4.226c2.508,0.732,5.32,0.854,8.059,0.369
				c2.735-0.493,5.307-1.654,7.132-3.491c1.866-1.808,2.762-4.292,2.803-6.673c0.051-2.389-0.684-4.651-1.853-6.416
				c-1.17-1.778-2.832-3.002-4.506-3.704c-1.672-0.738-3.356-0.953-4.809-0.968c-1.463-0.005-2.717,0.242-3.706,0.541
				C77.627,135.895,76.685,136.634,76.628,136.534z"/>
		</g>
		<g>
			<path style="fill:#3F2C7E;" d="M91.238,145.128c0.039,0.139-0.962,0.554-2.612,1.114c-0.825,0.28-1.812,0.596-2.912,0.931
				c-0.558,0.166-1.134,0.338-1.729,0.516c-0.312,0.084-0.571,0.183-0.976,0.262c-0.2,0.033-0.442,0.053-0.714-0.024
				c-0.273-0.073-0.528-0.275-0.668-0.481c-0.285-0.427-0.327-0.758-0.434-1.059c-0.092-0.312-0.183-0.619-0.273-0.923
				c-0.174-0.606-0.328-1.195-0.464-1.758c-0.275-1.126-0.474-2.151-0.615-3.015c-0.277-1.731-0.315-2.818-0.178-2.841
				c0.146-0.025,0.44,1.015,0.897,2.685c0.249,0.887,0.525,1.867,0.823,2.924c0.166,0.553,0.338,1.125,0.515,1.715
				c0.093,0.297,0.188,0.598,0.284,0.903c0.1,0.307,0.192,0.636,0.29,0.76c0.088,0.105,0.104,0.116,0.369,0.092
				c0.231-0.039,0.576-0.148,0.869-0.222c0.601-0.157,1.183-0.31,1.746-0.457c1.114-0.285,2.122-0.527,2.972-0.716
				C90.128,145.155,91.2,144.99,91.238,145.128z"/>
		</g>
		<g>
			<path style="fill:#3F2C7E;" d="M429.608,203.144c0.122,0.26-9.386,4.978-21.234,10.536c-11.853,5.56-21.557,9.854-21.679,9.594
				c-0.122-0.26,9.384-4.977,21.237-10.537C419.78,207.18,429.486,202.884,429.608,203.144z"/>
		</g>
		<g>
			<path style="fill:#3F2C7E;" d="M431.55,209.951c0.047,0.149-2.341,1.016-6.16,2.497c-3.82,1.48-9.057,3.623-14.705,6.287
				c-5.647,2.672-10.629,5.356-14.198,7.367c-3.57,2.01-5.756,3.303-5.841,3.173c-0.039-0.06,0.46-0.458,1.397-1.126
				c0.935-0.672,2.323-1.591,4.068-2.68c3.488-2.182,8.446-4.987,14.128-7.675c5.683-2.681,10.998-4.73,14.899-6.038
				c1.95-0.656,3.542-1.145,4.655-1.44C430.904,210.016,431.528,209.883,431.55,209.951z"/>
		</g>
		<g>
			<path style="fill:#3F2C7E;" d="M411.58,226.885c0.14,0.251-3.447,2.521-8.012,5.07c-4.566,2.549-8.38,4.412-8.52,4.16
				c-0.14-0.251,3.446-2.521,8.012-5.07C407.625,228.497,411.439,226.634,411.58,226.885z"/>
		</g>
		<polygon style="fill:#CABAFA;" points="304.918,362.033 305.382,386.031 342.245,386.031 343.521,361.725 		"/>
		<g>
			<path style="fill:#3F2C7E;" d="M341.079,350.199c0.122,0.076-1.08,2.243-3.122,5.684c-2.042,3.441-4.923,8.156-8.16,13.33
				c-2.425,3.876-4.706,7.46-6.622,10.417l-0.283,0.437l-0.371-0.344c-2.219-2.059-3.496-4.257-4.186-5.832
				c-0.688-1.589-0.851-2.564-0.778-2.584c0.099-0.033,0.423,0.884,1.224,2.365c0.802,1.47,2.14,3.514,4.316,5.406l-0.654,0.093
				c1.822-3.017,4.047-6.635,6.472-10.511c3.237-5.174,6.217-9.827,8.419-13.168C339.535,352.152,340.957,350.123,341.079,350.199z"
				/>
		</g>
		<g>
			<path style="opacity:0.05;fill:#8662EA;" d="M304.138,418.499l-0.022,0.001l-6.288-38.526l-54.771,2.444v4.813
				c0,0,4.975,0.529,5.632,2.82c0.658,2.291-5.632,1.058-5.632,1.058l0.921,3.878c5.111-0.881,5.438,1.234,5.438,1.234
				c0.679,3.525-5.262,3.349-5.262,3.349l0.176,4.935c0.705-1.763,5.816-0.705,5.786,1.53c-0.03,2.235-4.905,1.819-4.905,1.819
				l0.529,4.23c0.881-2.291,5.464-1.234,5.077,1.41c-0.387,2.644-4.901,1.41-4.901,1.41l0.529,4.054
				c2.048-0.853,4.089-0.215,3.709,1.907l-1.82,0.08v1.277c-0.869-0.117-1.713-0.62-1.713-0.62l1.001,4.053l0.712-0.081v0.184
				c0,0,5.068,0.529,5.738,2.82c0.67,2.291-5.738,1.058-5.738,1.058l0.938,3.878c5.208-0.881,5.541,1.234,5.541,1.234
				c0.692,3.525-5.361,3.349-5.361,3.349l0.18,4.935c0.718-1.762,5.926-0.705,5.896,1.53c-0.031,2.235-4.998,1.819-4.998,1.819
				l0.539,4.23c0.898-2.291,5.567-1.234,5.173,1.41c-0.394,2.644-4.993,1.41-4.993,1.41l0.539,4.054
				c2.155-0.881,4.31-0.176,3.741,2.115c-0.569,2.291-3.561,0.529-3.561,0.529l1.02,4.052l57.682-6.409L304.138,418.499z"/>
			<path style="fill:#E1DBFC;" d="M307.257,414.119l-0.022,0.001l-6.288-38.526l-54.771,2.444v4.813c0,0,4.975,0.529,5.632,2.82
				c0.658,2.291-5.632,1.058-5.632,1.058l0.921,3.877c5.111-0.881,5.438,1.234,5.438,1.234c0.679,3.525-5.262,3.349-5.262,3.349
				l0.176,4.935c0.705-1.763,5.816-0.705,5.786,1.53c-0.03,2.235-4.905,1.819-4.905,1.819l0.529,4.23
				c0.881-2.291,5.464-1.234,5.077,1.41c-0.387,2.644-4.901,1.41-4.901,1.41l0.529,4.054c2.048-0.853,4.089-0.215,3.709,1.907
				l-1.82,0.08v1.277c-0.869-0.117-1.713-0.62-1.713-0.62l1.001,4.053l0.712-0.081v0.184c0,0,5.068,0.529,5.738,2.82
				c0.67,2.291-5.738,1.058-5.738,1.058l0.938,3.878c5.208-0.881,5.541,1.234,5.541,1.234c0.692,3.525-5.361,3.349-5.361,3.349
				l0.18,4.935c0.718-1.762,5.926-0.705,5.896,1.53s-4.998,1.819-4.998,1.819l0.539,4.23c0.898-2.291,5.567-1.234,5.173,1.41
				c-0.394,2.644-4.993,1.41-4.993,1.41l0.539,4.054c2.155-0.881,4.31-0.176,3.741,2.115c-0.569,2.291-3.561,0.529-3.561,0.529
				l1.02,4.053l57.682-6.409L307.257,414.119z"/>
			<g>
				<path style="fill:#F191A5;" d="M265.931,459.031c-0.071,0.01-0.303-1.118-0.662-3.166c-0.349-2.102-0.84-5.055-1.443-8.684
					c-1.183-7.337-2.802-17.476-4.466-28.696c-1.665-11.224-3-21.412-3.798-28.806c-0.404-3.696-0.689-6.692-0.845-8.767
					c-0.159-2.074-0.213-3.223-0.141-3.231c0.072-0.007,0.262,1.128,0.544,3.187c0.284,2.111,0.683,5.077,1.173,8.721
					c0.984,7.364,2.433,17.525,4.097,28.743c1.664,11.215,3.167,21.373,4.164,28.74c0.5,3.683,0.883,6.667,1.116,8.734
					C265.906,457.874,266.003,459.021,265.931,459.031z"/>
			</g>
			<polygon style="opacity:0.41;fill:#AB9DFC;" points="263.75,373.267 265.09,380.893 291.257,378.784 289.777,372.563 			"/>
			<g>
				<path style="fill:#3F2C7E;" d="M297.361,390.263c0.023,0.136-1.903,0.598-5.056,1.135c-3.152,0.538-7.534,1.126-12.398,1.527
					c-4.866,0.398-9.286,0.533-12.483,0.517c-3.198-0.015-5.173-0.156-5.173-0.294c0-0.15,1.972-0.269,5.154-0.442
					c3.182-0.172,7.574-0.423,12.417-0.819c4.841-0.399,9.214-0.869,12.382-1.219C295.371,390.32,297.336,390.116,297.361,390.263z"
					/>
			</g>
			<g>
				<path style="fill:#3F2C7E;" d="M287.86,395.733c0.074,0.259-5.387,1.947-12.358,2.841c-6.971,0.917-12.68,0.681-12.675,0.412
					c-0.004-0.306,5.645-0.537,12.541-1.445C282.264,396.657,287.786,395.437,287.86,395.733z"/>
			</g>
			<g>
				<path style="fill:#3F2C7E;" d="M299.068,403.083c0.043,0.284-7.39,1.654-16.6,3.058c-9.214,1.405-16.715,2.313-16.759,2.029
					s7.388-1.653,16.602-3.058C291.521,403.707,299.025,402.799,299.068,403.083z"/>
			</g>
			<g>
				<path style="fill:#3F2C7E;" d="M300.232,408.648c0.025,0.139-1.809,0.6-4.802,1.191c-2.993,0.591-7.148,1.301-11.759,1.943
					c-4.612,0.641-8.804,1.091-11.845,1.34c-3.041,0.249-4.93,0.305-4.945,0.164c-0.015-0.145,1.847-0.461,4.862-0.896
					c3.12-0.434,7.234-1.007,11.784-1.639c4.548-0.633,8.662-1.204,11.782-1.638C298.329,408.709,300.207,408.504,300.232,408.648z"
					/>
			</g>
			<g>
				<path style="fill:#3F2C7E;" d="M281.809,417.256c0.042,0.284-3.079,0.983-6.97,1.56c-3.892,0.577-7.081,0.814-7.123,0.529
					c-0.042-0.284,3.078-0.983,6.97-1.559C278.578,417.208,281.767,416.971,281.809,417.256z"/>
			</g>
			<g>
				<path style="fill:#3F2C7E;" d="M305.411,420.987c0.019,0.146-2.058,0.533-5.417,1.102c-3.451,0.587-8.043,1.368-13.118,2.231
					c-5.068,0.917-9.651,1.746-13.096,2.369c-3.353,0.609-5.436,0.952-5.468,0.808c-0.031-0.137,1.997-0.734,5.317-1.529
					c3.32-0.795,7.935-1.772,13.067-2.674c5.131-0.899,9.803-1.552,13.195-1.935C303.284,420.976,305.394,420.848,305.411,420.987z"
					/>
			</g>
			<g>
				<path style="fill:#3F2C7E;" d="M302.546,427.419c0.031,0.286-7.285,1.326-16.34,2.323c-9.058,0.997-16.424,1.573-16.455,1.287
					c-0.031-0.286,7.284-1.326,16.341-2.323C295.147,427.71,302.514,427.133,302.546,427.419z"/>
			</g>
			<g>
				<path style="fill:#3F2C7E;" d="M283.258,434.583c0.028,0.286-2.654,0.786-5.991,1.116c-3.338,0.33-6.065,0.365-6.094,0.079
					c-0.028-0.286,2.654-0.786,5.991-1.116C280.502,434.332,283.23,434.297,283.258,434.583z"/>
			</g>
		</g>
	</g>
	<g>
		<g>
			<g>
				<g>
					<g>
						<g>
							<path style="fill:#E4DFFC;" d="M198.228,99.793c0.323,0.332,0.823,0.32,1.299,0.335
								C199.131,99.817,198.732,99.704,198.228,99.793z"/>
							<path style="fill:#E4DFFC;" d="M199.537,100.135l0.007-0.006l-0.017-0.001C199.531,100.131,199.537,100.135,199.537,100.135z
								"/>
							<path style="fill:#E4DFFC;" d="M291.26,80.215c-0.12,0.005-0.258,0.011-0.397,0.018
								C290.996,80.245,291.131,80.248,291.26,80.215z"/>
							<path style="fill:#E4DFFC;" d="M222.395,99.281l0.031-0.603c1.116-0.083,0.372,0.662,1.394,0.446
								c0.347-0.873,1.72-0.026,2.048-0.5c-0.004,0.068,0.503,0.06,0.488,0.327c0.126-0.47,0.513-0.142,0.824-0.279
								c0.108-0.135-0.094-0.133-0.189-0.265l0.721-0.207c0.295,0.131,0.382,0.397,0.075,0.465
								c1.921,0.039,11.107-0.034,13.153-0.331c-0.281-0.335-0.905-0.072-1.172-0.607c0.53-0.331,0.806,0.071,1.031-0.262
								c0.246,0.803,1.205,0.141,1.654,0.945l0.136-0.467l0.283,0.27c2.372-0.584,0.537-0.265,2.662-0.239
								c1.225-0.117,1.784-0.778,2.477-0.569c-0.102-0.001-0.383-0.273-0.069-0.402c0.069,0.402,0.837-0.322,1.007,0.08
								c0.31-0.063,1.322-0.049,0.961-0.589c0.181,0.268,1.087,0.351,0.558,0.608c0.305,0.007,0.602,0.079,0.817-0.049l-0.396-0.142
								c1.025-0.112,1.598,0.299,2.252-0.222l-0.387-0.208c0.613-0.054,1.126-0.111,1.384,0.429l-0.625,0.188
								c1.018-0.045,1.631-0.1,2.472-0.417l-0.303-0.006c1.066-0.576,6.72-1.168,7.708-1.859l-0.468-0.417l0.853-0.372
								c-0.102-0.003-0.39,1.386-0.477,1.249c1.838-0.083,11.41-0.529,13.112-0.218c0.686,0.234,0.125,0.674,0.117,0.741
								c0.834-0.16,0.359-0.451,1.068-0.416c0.194,0.076-0.04,0.333-0.149,0.394c0.311-0.051,0.599,0.096,0.623-0.103
								c-0.389-0.153-0.224-0.68-0.389-1.022l0.913,0.044l-0.041,0.333c0.203,0.011,0.517-0.913,1.414-0.731
								c1.514,0.152,3.159,0.044,4.681,0.129c-0.025,0.199-0.346,0.315-0.667,0.431c0.204,0.011,0.515-0.038,0.702,0.106
								c-0.365-0.354,0.641-0.231,0.354-0.381c1.122-0.806,2.558-0.041,3.549-0.582c0.086-0.73,2.29-12.536,2.311-13.405
								c0.311,0.02,0.62,0.039,0.713,0.112c-0.077-0.205-0.686-0.311-1.013-0.198l-0.063,0.465c-0.749,0.154-0.171-0.279-0.9-0.256
								c-0.034-0.382,0.639-0.455,1.23-0.484c-0.532-0.051-1.058-0.335-1.281,0.079c-0.498-0.165,0.062-0.465-0.539-0.636
								c-0.431,0.107-0.999,0.473-1.49,0.241l0.009-0.067c-1.195-0.408-1.84,0.553-2.932,0.16l0.119-0.127
								c-0.386-0.223-1.15,0.07-1.847-0.169c0.199,0.078,0.37,0.355-0.05,0.398c-0.802-0.245-1.351-0.007-1.937-0.307l-0.565,0.37
								c-2.798-0.094-13.834,0.506-16.636,0.647l0.109-0.062c-4.272,0.25-13.049,0.454-17.442,1.161
								c-0.697-0.341-1.635-0.219-2.352-0.295c0.402,0.138,0.277,0.404-0.032,0.4c-2.171,0.055-0.136,0.26-2.322,0.516
								c-2.51,0.428-12.183,0.565-14.444,0.402c-1.17,0.607-2.696,0.306-3.852,0.724l0.11-0.135
								c-1.251,0.274-8.446,0.293-9.901,0.607l0.203,0.061c-1.254,0.439-1.126-0.166-2.151-0.268
								c0.181,0.595-0.888,1.028-1.302,1.108l0.005-0.134c-0.623,0.154-2.007,0.792-3.04,0.969l0.012-0.335
								c-0.837,0.433-2.481,0.428-3.102,0.519c-1.438-0.018-3.692-0.379-5.557,0.24l-1.324-0.826l-0.171,0.111
								c0,0-0.837,11.579,1.884,13.769l-0.007,0.334l0.486-0.089c0.603,0.107,0.838-0.302,0.83,0.031l-0.809,0.036
								c0.6,0.039,0.204,0.254-0.003,0.462c0.249,0.008,0.492,0.025,0.698,0.108c0.104-0.138-0.099-0.129-0.197-0.192
								c0.306-0.147,0.719-0.5,1.12-0.384c0.607-0.027,0.089,0.531,0.798,0.5c3.743-0.094,7.377-0.029,11.13-0.401
								c0.096,0.13-0.006,0.134-0.109,0.204c1.121-0.232,2.131-0.269,3.152-0.491c0.298,0.127,0.392,0.325,0.487,0.456
								C216.431,99.669,222.296,99.203,222.395,99.281z"/>
						</g>
					</g>
				</g>
			</g>
		</g>
		<g>
			<g>
				<g>
					<g>
						<g>
							<path style="fill:#E4DFFC;" d="M135.867,60.04c0.701,0.54,1.974,0.689,3.176,0.867
								C138.15,60.372,137.177,60.092,135.867,60.04z"/>
							<path style="fill:#E4DFFC;" d="M139.066,60.919l0.019-0.005c-0.016-0.003-0.028-0.005-0.042-0.007L139.066,60.919z"/>
							<path style="fill:#E4DFFC;" d="M374.472,51.193c-0.301,0.003-0.645,0.006-0.993,0.009
								C373.81,51.223,374.149,51.232,374.472,51.193z"/>
							<path style="fill:#E4DFFC;" d="M197.561,66.618l0.237-0.785c2.873,0.174,0.776,0.966,3.445,0.941
								c1.112-1.061,4.404,0.402,5.36-0.138c-0.027,0.088,1.271,0.206,1.167,0.554c0.437-0.587,1.346-0.055,2.176-0.16
								c0.308-0.152-0.207-0.196-0.417-0.396l1.892-0.101c0.722,0.242,0.881,0.613,0.078,0.631
								c4.894,0.535,28.443,2.511,33.755,2.451c-0.656-0.499-2.306-0.272-2.888-1.033c1.421-0.334,2.052,0.252,2.692-0.145
								c0.479,1.111,3.061,0.422,4.062,1.575l0.434-0.592l0.676,0.412c6.187-0.317,1.422-0.228,6.871,0.187
								c3.163,0.06,4.705-0.718,6.446-0.318c-0.261-0.019-0.939-0.429-0.113-0.545c0.113,0.545,2.196-0.28,2.568,0.284
								c0.804-0.029,3.396,0.168,2.553-0.612c0.423,0.391,2.732,0.649,1.338,0.905c0.78,0.057,1.532,0.199,2.102,0.062l-0.993-0.251
								c2.643,0.012,4.055,0.647,5.804,0.058l-0.961-0.337c1.579,0.024,2.901,0.029,3.488,0.785l-1.63,0.151
								c2.617,0.099,4.197,0.122,6.394-0.168l-0.777-0.055c2.81-0.607,17.365-0.602,19.958-1.432l-1.157-0.61l2.218-0.395
								c-0.26-0.017-1.132,1.798-1.343,1.605c4.718,0.141,29.263,0.558,33.609,1.027c1.749,0.365,0.29,0.908,0.267,0.997
								c2.146-0.149,0.941-0.573,2.758-0.471c0.494,0.117-0.116,0.441-0.397,0.513c0.799-0.044,1.533,0.174,1.601-0.089
								c-0.991-0.234-0.549-0.924-0.958-1.393l2.337,0.129l-0.116,0.44c0.521,0.027,1.357-1.171,3.648-0.871
								c3.871,0.29,8.086,0.242,11.981,0.443c-0.067,0.264-0.889,0.401-1.714,0.536c0.522,0.027,1.321-0.021,1.798,0.182
								c-0.93-0.494,1.644-0.271,0.912-0.488c2.88-1.013,6.552,0.049,9.088-0.63c0.248-0.97,5.737-16.632,5.754-17.791
								c0.779,0.038,1.553,0.075,1.789,0.176c-0.196-0.277-1.724-0.44-2.54-0.301l-0.153,0.618
								c-1.877,0.178-0.431-0.378-2.259-0.375c-0.087-0.51,1.597-0.583,3.078-0.6c-1.332-0.088-2.652-0.487-3.207,0.058
								c-1.249-0.238,0.152-0.618-1.352-0.868c-1.078,0.126-2.5,0.594-3.728,0.267l0.024-0.089c-2.989-0.59-4.611,0.676-7.341,0.084
								l0.299-0.163c-0.962-0.319-2.88,0.028-4.621-0.33c0.496,0.115,0.921,0.494-0.132,0.528c-2.003-0.372-3.383-0.086-4.842-0.519
								l-1.424,0.462c-6.997-0.266-34.669-0.434-41.704-0.664l0.279-0.069c-10.723-0.142-32.709-1.119-43.809-1.012
								c-1.688-0.573-4.054-0.574-5.833-0.798c0.983,0.253,0.625,0.583-0.149,0.525c-5.438-0.344-0.384,0.319-5.899,0.237
								c-6.364,0.158-30.583-1.769-36.176-2.549c-3.065,0.544-6.8-0.256-9.788,0.012l0.309-0.151
								c-3.197,0.084-21.132-1.805-24.84-1.819l0.489,0.139c-3.25,0.214-2.756-0.543-5.273-0.972
								c0.275,0.833-2.516,1.092-3.573,1.076l0.053-0.174c-1.596,0.02-5.242,0.467-7.869,0.369l0.136-0.434
								c-2.22,0.308-6.313-0.204-7.886-0.277c-3.578-0.449-9.05-1.671-13.896-1.472l-2.997-1.509l-0.464,0.089
								c0,0-6.259,14.809-0.161,18.561l-0.138,0.433l1.264,0.044c1.493,0.339,2.233-0.117,2.095,0.316l-2.065-0.22
								c1.507,0.25,0.429,0.398-0.171,0.602c0.63,0.093,1.241,0.196,1.735,0.372c0.313-0.146-0.205-0.201-0.434-0.316
								c0.829-0.09,1.999-0.413,2.977-0.13c1.551,0.167,0.042,0.722,1.852,0.916c9.54,1.103,18.776,2.325,28.462,2.919
								c0.207,0.199-0.055,0.174-0.34,0.236c2.93,0.018,5.515,0.285,8.185,0.266c0.724,0.248,0.906,0.534,1.111,0.732
								c-0.206-0.198,3.467-0.047,7.221,0.168c1.876,0.12,3.774,0.241,5.217,0.334C196.515,66.511,197.503,66.59,197.561,66.618z"/>
						</g>
					</g>
				</g>
			</g>
		</g>
		<text transform="matrix(1 0 0 1 142.3997 65.1856)" style="fill:#8263D8; font-family:'Gilroy-Light'; font-size:21.5488px;">Planning Schedule</text>
		<text transform="matrix(1 0 0 1 204.0335 92.6187)" style="fill:#4A407F; font-family:'Gilroy-ExtraBold'; font-size:17.1655px;">Concept </text>
	</g>
	<g>
		<defs>
			<rect id="SVGID_1_" width="500" height="500"/>
		</defs>
		<clipPath id="SVGID_00000049925911237658208420000009077623686543600301_">
			<use xlink:href="#SVGID_1_"  style="overflow:visible;"/>
		</clipPath>
		<g style="clip-path:url(#SVGID_00000049925911237658208420000009077623686543600301_);">
			<g>
				<defs>
					<path id="SVGID_00000019676912836624257520000002703987616847787940_" d="M448.149,291.94
						c11.465-4.629,23.367-2.444,38.375-1.178c15.008,1.267,51.666,17.09,51.666,17.09l13.572-24.204
						c-28.682-14.982-63.405-19.304-78.39-20.516c-1.463-2.709-4.587-8.385-7.764-13.437c-4.354-6.925-9.46-4.824-9.46-4.824
						c-9.504-8.372-16.819-0.646-16.819-0.646c-5.617-1.396-8.125,4.131-8.125,4.131l0.011,0.007
						c-1.842-0.717-3.76-1.076-5.659-0.82c-8.874,1.196-6.854,14.665-6.854,14.665c0.194,2.842,3.921,4.116,5.762,1.832
						c1.813-2.249-0.029-6.219,3.065-7.294c3.094-1.075,6.368,8.665,6.368,8.665s2.809,7.4,4.994,10.931s0.192,3.526,0.192,3.526
						s-5.661-3.06-11.458-9.356c-5.797-6.296-10.407-1.838-10.407-1.838c-3.067,3.143-0.564,3.88,2.558,5.172
						c3.121,1.293,2.076,2.073,9.259,11.343C436.218,294.458,448.149,291.94,448.149,291.94z M443.726,258.509
						c0,0-2.749-3.592-6.68-6.681l0.666,0.396C443.723,251.712,443.726,258.509,443.726,258.509z"/>
				</defs>
				<clipPath id="SVGID_00000064330723405762952200000003824587311115371909_">
					<use xlink:href="#SVGID_00000019676912836624257520000002703987616847787940_"  style="overflow:visible;"/>
				</clipPath>
				<g style="clip-path:url(#SVGID_00000064330723405762952200000003824587311115371909_);">
					<path style="fill:#E8A695;" d="M433.439,288.707c-0.26-0.122-0.171-0.863,0.201-1.654c0.371-0.791,0.883-1.334,1.144-1.212
						c0.26,0.122,0.171,0.863-0.201,1.654C434.212,288.286,433.699,288.829,433.439,288.707z"/>
				</g>
				<g style="clip-path:url(#SVGID_00000064330723405762952200000003824587311115371909_);">
					<path style="fill:#E8A695;" d="M431.862,288.242c-0.255-0.134-0.081-0.967,0.388-1.861c0.469-0.895,1.056-1.511,1.311-1.377
						c0.255,0.134,0.081,0.967-0.389,1.861C432.704,287.759,432.117,288.375,431.862,288.242z"/>
				</g>
				<g style="clip-path:url(#SVGID_00000064330723405762952200000003824587311115371909_);">
					<path style="fill:#F9ECDE;" d="M416.996,271.827c0.115-0.416,0.882-0.568,1.714-0.339c0.832,0.229,1.414,0.752,1.3,1.168
						c-0.114,0.416-0.882,0.567-1.714,0.338C417.463,272.765,416.881,272.242,416.996,271.827z"/>
				</g>
				<g style="clip-path:url(#SVGID_00000064330723405762952200000003824587311115371909_);">
					<g>
						<path style="fill:#F4BBA2;" d="M448.149,291.94c11.465-4.629,23.367-2.444,38.375-1.178
							c15.008,1.267,51.666,17.09,51.666,17.09l13.572-24.204c-28.682-14.982-63.405-19.304-78.39-20.516
							c-1.463-2.709-4.587-8.385-7.764-13.437c-4.354-6.925-9.46-4.824-9.46-4.824c-9.504-8.372-16.819-0.646-16.819-0.646
							c-5.617-1.396-8.125,4.131-8.125,4.131l0.011,0.007c-1.842-0.717-3.76-1.076-5.659-0.82
							c-8.874,1.196-6.854,14.665-6.854,14.665c0.194,2.842,3.921,4.116,5.762,1.832c1.813-2.249-0.029-6.219,3.065-7.294
							c3.094-1.075,6.368,8.665,6.368,8.665s2.809,7.4,4.994,10.931s0.192,3.526,0.192,3.526s-5.661-3.06-11.458-9.356
							c-5.797-6.296-10.407-1.838-10.407-1.838c-3.067,3.143-0.564,3.88,2.558,5.172c3.121,1.293,2.076,2.073,9.259,11.343
							C436.218,294.458,448.149,291.94,448.149,291.94z M443.726,258.509c0,0-2.749-3.592-6.68-6.681l0.666,0.396
							C443.723,251.712,443.726,258.509,443.726,258.509z"/>
					</g>
					<g>
						<path style="fill:#E8A695;" d="M452.683,257.735c-0.165,0.03-0.426-1.044-1.114-2.644c-0.336-0.803-0.818-1.721-1.42-2.694
							c-0.623-0.96-1.378-1.968-2.28-2.932c-0.915-0.952-1.882-1.759-2.808-2.432c-0.94-0.652-1.831-1.182-2.616-1.56
							c-1.562-0.771-2.62-1.088-2.582-1.251c0.022-0.117,1.159-0.055,2.875,0.576c0.859,0.308,1.837,0.796,2.861,1.441
							c1.009,0.665,2.056,1.501,3.026,2.51c0.957,1.021,1.735,2.11,2.346,3.153c0.59,1.056,1.026,2.059,1.288,2.932
							C452.799,256.58,452.801,257.719,452.683,257.735z"/>
					</g>
					<g>
						<path style="fill:#E8A695;" d="M459.859,251.969c-0.28,0.095-1.047-1.473-2.104-3.312c-1.047-1.846-2.007-3.303-1.782-3.496
							c0.207-0.187,1.581,1.033,2.687,2.979C459.773,250.081,460.125,251.885,459.859,251.969z"/>
					</g>
					<g>
						<path style="fill:#E8A695;" d="M456.939,255.615c-0.045-0.132,0.069-0.319,0.354-0.439c0.279-0.121,0.724-0.143,1.152,0.036
							c0.428,0.178,0.727,0.51,0.837,0.793c0.115,0.287,0.062,0.499-0.063,0.56c-0.272,0.108-0.668-0.199-1.175-0.392
							C457.55,255.949,457.054,255.884,456.939,255.615z"/>
					</g>
					<g>
						<path style="fill:#E8A695;" d="M447.654,259.494c-0.218-0.181,0.057-0.84,0.794-1.172c0.737-0.333,1.412-0.104,1.405,0.179
							c0.001,0.292-0.463,0.531-0.976,0.771C448.358,259.498,447.872,259.688,447.654,259.494z"/>
					</g>
					<g>
						<path style="fill:#E8A695;" d="M438.575,262.649c-0.132-0.002-0.277-0.295-0.181-0.783c0.09-0.483,0.486-1.099,1.135-1.473
							c0.649-0.376,1.38-0.411,1.843-0.247c0.471,0.161,0.652,0.433,0.588,0.548c-0.151,0.245-1.023,0.053-1.911,0.601
							C439.133,261.789,438.863,262.641,438.575,262.649z"/>
					</g>
					<g>
						<path style="fill:#E8A695;" d="M427.377,253.669c0.287-0.018,0.562,0.633,0.613,1.454c0.052,0.822-0.139,1.502-0.426,1.52
							c-0.287,0.018-0.561-0.633-0.613-1.455C426.899,254.368,427.09,253.687,427.377,253.669z"/>
					</g>
					<g>
						<path style="fill:#E8A695;" d="M425.587,254.493c0.253-0.136,0.771,0.335,1.157,1.051c0.386,0.717,0.493,1.409,0.24,1.545
							c-0.253,0.136-0.771-0.335-1.157-1.052C425.441,255.321,425.334,254.63,425.587,254.493z"/>
					</g>
					<g>
						<path style="fill:#E8A695;" d="M430.2,247.92c0.073-0.266,2.204,0.138,4.467,1.496c2.271,1.347,3.637,3.031,3.438,3.221
							c-0.208,0.215-1.822-1.055-3.972-2.327C431.993,249.023,430.109,248.205,430.2,247.92z"/>
					</g>
				</g>
				<g style="clip-path:url(#SVGID_00000064330723405762952200000003824587311115371909_);">
					<path style="fill:#F9ECDE;" d="M417.97,271.772c0.144-0.407,0.965-0.487,1.834-0.18c0.869,0.307,1.457,0.886,1.313,1.293
						c-0.144,0.407-0.965,0.487-1.834,0.18C418.415,272.757,417.827,272.178,417.97,271.772z"/>
				</g>
				<g style="opacity:0.43;clip-path:url(#SVGID_00000064330723405762952200000003824587311115371909_);">
					<path style="fill:#F29F83;" d="M437.6,276.454c0.243-0.705,1.969-0.82,4.559-0.43l-0.691-0.102
						c1.421-0.289,3.139-0.197,4.816,0.19c1.697,0.39,3.299,1,4.926,1.634c6.813,2.694,11.905,5.961,11.376,7.299
						c-0.529,1.337-6.478,0.238-13.291-2.456c-1.659-0.65-3.164-1.353-4.411-1.857c-1.262-0.511-2.329-0.849-3.267-1.029
						l-0.691-0.102C438.645,278.313,437.357,277.158,437.6,276.454z"/>
				</g>
				<g style="opacity:0.43;clip-path:url(#SVGID_00000064330723405762952200000003824587311115371909_);">
					<path style="fill:#F29F83;" d="M425.574,259.02c-0.278,0.181-0.797,0.171-1.2-0.511c-0.405-0.678-0.346-1.927,0.401-2.953
						c0.372-0.515,0.906-1.01,1.693-1.344c0.38-0.167,0.882-0.276,1.347-0.298c0.409-0.025,0.833,0.005,1.249,0.084
						c1.694,0.344,2.95,1.381,3.846,2.403c1.712,1.994,2.53,4.188,2.714,5.856c0.181,1.677-0.248,2.769-0.932,2.946
						c-0.704,0.185-1.53-0.5-2.467-1.529c-0.933-1.027-2.036-2.447-3.239-3.848c-0.559-0.652-1.012-1.027-1.202-1.203l-0.143-0.133
						l-0.009-0.009l-0.001-0.001l-0.001-0.001c0.017-0.849,0.005-0.234,0.009-0.424l0,0.006l-0.001,0.013l0,0.048l0.01,0.087
						c-0.003,0.056,0.043,0.187,0.026,0.15c-0.039-0.088-0.195-0.134-0.35-0.146c-0.316-0.009-0.634-0.011-0.931,0.118
						C426.08,258.468,425.881,258.832,425.574,259.02z"/>
				</g>
				<g style="opacity:0.43;clip-path:url(#SVGID_00000064330723405762952200000003824587311115371909_);">
					<path style="fill:#F29F83;" d="M445.161,258.573c-0.727-0.079-1.316-0.628-1.897-1.116c-0.577-0.51-1.136-1.032-1.721-1.655
						c-0.602-0.606-1.104-1.184-1.594-1.778c-0.468-0.597-0.995-1.206-1.049-1.935c-0.059-0.69,0.564-1.456,1.885-1.651
						c0.65-0.101,1.428-0.017,2.231,0.262c0.791,0.293,1.596,0.791,2.274,1.484c0.669,0.701,1.138,1.523,1.403,2.324
						c0.251,0.812,0.308,1.592,0.184,2.239C446.636,258.06,445.848,258.657,445.161,258.573z"/>
				</g>
				<g style="opacity:0.43;clip-path:url(#SVGID_00000064330723405762952200000003824587311115371909_);">
					<path style="fill:#F29F83;" d="M429.049,285.634c0.324-0.248,1.421,0.976,3.84,2.272c2.398,1.291,6.267,2.498,11.172,2.252
						c2.462-0.097,5.173-0.504,8.146-1.067c1.509-0.284,3.069-0.577,4.675-0.879c1.638-0.282,3.345-0.507,5.087-0.765
						c6.987-0.888,14.784-1.165,22.891-0.428c8.11,0.731,15.736,2.336,22.461,4.41c6.724,2.087,12.58,4.558,17.262,7.057
						c9.415,4.947,14.287,9.43,13.931,9.925c-0.454,0.689-5.995-2.652-15.492-6.59c-9.458-3.962-23.082-8.242-38.621-9.615
						c-7.752-0.706-15.192-0.583-21.913,0.01c-1.678,0.185-3.315,0.327-4.91,0.52c-1.619,0.213-3.192,0.42-4.713,0.621
						c-3.084,0.39-6.071,0.622-8.83,0.481c-5.579-0.219-9.935-2.226-12.292-4.262C429.345,287.519,428.793,285.789,429.049,285.634z
						"/>
				</g>
			</g>
		</g>
		<g style="clip-path:url(#SVGID_00000049925911237658208420000009077623686543600301_);">
			<g>
				<defs>
					<path id="SVGID_00000154421974354712261420000016579389917122327941_" d="M62.128,230.181
						c7.183-9.27,6.137-10.051,9.259-11.343c3.122-1.292,5.625-2.029,2.558-5.173c0,0-4.61-4.457-10.407,1.838
						c-5.797,6.296-11.458,9.356-11.458,9.356s-1.993,0.005,0.192-3.526c2.185-3.531,4.994-10.931,4.994-10.931
						s3.275-9.74,6.368-8.665c3.094,1.075,1.252,5.045,3.065,7.294c1.841,2.285,5.568,1.011,5.762-1.832
						c0,0,2.02-13.469-6.854-14.665c-1.899-0.256-3.816,0.103-5.658,0.82l0.011-0.007c0,0-2.508-5.527-8.125-4.131
						c0,0-7.316-7.726-16.819,0.646c0,0-5.106-2.101-9.46,4.824c-3.176,5.052-6.301,10.728-7.764,13.437
						c-14.984,1.212-49.707,5.534-78.389,20.516l13.572,24.204c0,0,36.658-15.823,51.666-17.09
						c15.008-1.266,26.91-3.451,38.375,1.178C43.015,236.933,54.945,239.451,62.128,230.181z M53.452,197.218l0.666-0.396
						c-3.932,3.089-6.68,6.681-6.68,6.681S47.44,196.705,53.452,197.218z"/>
				</defs>
				<clipPath id="SVGID_00000019675320505799201550000017438838068677649571_">
					<use xlink:href="#SVGID_00000154421974354712261420000016579389917122327941_"  style="overflow:visible;"/>
				</clipPath>
				<g style="clip-path:url(#SVGID_00000019675320505799201550000017438838068677649571_);">
					<path style="fill:#E8A695;" d="M57.725,233.7c0.26-0.122,0.171-0.863-0.201-1.654c-0.371-0.791-0.883-1.334-1.144-1.212
						c-0.26,0.122-0.17,0.863,0.201,1.654C56.952,233.28,57.464,233.822,57.725,233.7z"/>
				</g>
				<g style="clip-path:url(#SVGID_00000019675320505799201550000017438838068677649571_);">
					<path style="fill:#E8A695;" d="M59.302,233.235c0.255-0.134,0.081-0.967-0.388-1.861c-0.469-0.895-1.056-1.511-1.311-1.377
						c-0.254,0.134-0.081,0.967,0.389,1.861C58.46,232.752,59.047,233.368,59.302,233.235z"/>
				</g>
				<g style="clip-path:url(#SVGID_00000019675320505799201550000017438838068677649571_);">
					<path style="fill:#F9ECDE;" d="M74.168,216.82c-0.115-0.416-0.882-0.568-1.714-0.339c-0.832,0.229-1.414,0.752-1.3,1.168
						c0.115,0.416,0.882,0.567,1.714,0.338C73.701,217.759,74.283,217.236,74.168,216.82z"/>
				</g>
				<g style="clip-path:url(#SVGID_00000019675320505799201550000017438838068677649571_);">
					<g>
						<path style="fill:#F4BBA2;" d="M62.128,230.181c7.183-9.27,6.137-10.051,9.259-11.343c3.122-1.292,5.625-2.029,2.558-5.173
							c0,0-4.61-4.457-10.407,1.838c-5.797,6.296-11.458,9.356-11.458,9.356s-1.993,0.005,0.192-3.526
							c2.185-3.531,4.994-10.931,4.994-10.931s3.275-9.74,6.368-8.665c3.094,1.075,1.252,5.045,3.065,7.294
							c1.841,2.285,5.568,1.011,5.762-1.832c0,0,2.02-13.469-6.854-14.665c-1.899-0.256-3.816,0.103-5.658,0.82l0.011-0.007
							c0,0-2.508-5.527-8.125-4.131c0,0-7.316-7.726-16.819,0.646c0,0-5.106-2.101-9.46,4.824
							c-3.176,5.052-6.301,10.728-7.764,13.437c-14.984,1.212-49.707,5.534-78.389,20.516l13.572,24.204
							c0,0,36.658-15.823,51.666-17.09c15.008-1.266,26.91-3.451,38.375,1.178C43.015,236.933,54.945,239.451,62.128,230.181z
							 M53.452,197.218l0.666-0.396c-3.932,3.089-6.68,6.681-6.68,6.681S47.44,196.705,53.452,197.218z"/>
					</g>
					<g>
						<path style="fill:#E8A695;" d="M38.48,202.728c0.165,0.03,0.426-1.044,1.114-2.644c0.336-0.803,0.818-1.721,1.42-2.694
							c0.623-0.96,1.378-1.968,2.28-2.932c0.915-0.952,1.882-1.759,2.808-2.432c0.94-0.652,1.831-1.182,2.616-1.56
							c1.562-0.771,2.62-1.088,2.582-1.251c-0.022-0.117-1.159-0.055-2.875,0.576c-0.859,0.308-1.837,0.795-2.861,1.441
							c-1.01,0.665-2.056,1.501-3.026,2.51c-0.957,1.021-1.735,2.11-2.346,3.153c-0.59,1.056-1.026,2.058-1.288,2.932
							C38.365,201.573,38.363,202.713,38.48,202.728z"/>
					</g>
					<g>
						<path style="fill:#E8A695;" d="M31.305,196.962c0.28,0.095,1.047-1.473,2.104-3.312c1.047-1.846,2.007-3.303,1.782-3.496
							c-0.207-0.187-1.582,1.033-2.687,2.979C31.391,195.074,31.039,196.878,31.305,196.962z"/>
					</g>
					<g>
						<path style="fill:#E8A695;" d="M34.225,200.608c0.045-0.132-0.069-0.318-0.354-0.439c-0.279-0.121-0.724-0.143-1.153,0.036
							c-0.429,0.178-0.727,0.51-0.837,0.793c-0.115,0.287-0.062,0.499,0.063,0.56c0.272,0.108,0.668-0.199,1.175-0.392
							C33.613,200.942,34.11,200.877,34.225,200.608z"/>
					</g>
					<g>
						<path style="fill:#E8A695;" d="M43.51,204.488c0.218-0.181-0.057-0.839-0.794-1.172c-0.737-0.333-1.412-0.105-1.404,0.179
							c-0.001,0.292,0.463,0.531,0.976,0.771C42.805,204.492,43.291,204.681,43.51,204.488z"/>
					</g>
					<g>
						<path style="fill:#E8A695;" d="M52.588,207.642c0.132-0.002,0.277-0.295,0.181-0.784c-0.09-0.483-0.486-1.099-1.135-1.473
							c-0.649-0.376-1.38-0.411-1.843-0.247c-0.471,0.161-0.652,0.433-0.588,0.548c0.151,0.245,1.024,0.053,1.911,0.601
							C52.031,206.782,52.301,207.634,52.588,207.642z"/>
					</g>
					<g>
						<path style="fill:#E8A695;" d="M63.787,198.662c-0.287-0.018-0.562,0.633-0.613,1.454c-0.052,0.822,0.139,1.502,0.426,1.52
							c0.287,0.018,0.562-0.633,0.613-1.455C64.265,199.361,64.074,198.68,63.787,198.662z"/>
					</g>
					<g>
						<path style="fill:#E8A695;" d="M65.576,199.487c-0.253-0.136-0.771,0.335-1.157,1.051c-0.386,0.717-0.493,1.409-0.239,1.545
							c0.253,0.136,0.771-0.335,1.157-1.052C65.722,200.315,65.83,199.623,65.576,199.487z"/>
					</g>
					<g>
						<path style="fill:#E8A695;" d="M60.964,192.913c-0.073-0.266-2.204,0.138-4.467,1.496c-2.271,1.347-3.637,3.031-3.438,3.221
							c0.208,0.215,1.822-1.055,3.972-2.327C59.171,194.016,61.055,193.198,60.964,192.913z"/>
					</g>
				</g>
				<g style="clip-path:url(#SVGID_00000019675320505799201550000017438838068677649571_);">
					<path style="fill:#F9ECDE;" d="M73.193,216.765c-0.144-0.407-0.965-0.487-1.834-0.18c-0.869,0.307-1.457,0.886-1.313,1.293
						c0.144,0.406,0.965,0.487,1.834,0.18C72.749,217.751,73.337,217.172,73.193,216.765z"/>
				</g>
				<g style="opacity:0.43;clip-path:url(#SVGID_00000019675320505799201550000017438838068677649571_);">
					<path style="fill:#F29F83;" d="M65.59,204.014c0.278,0.181,0.797,0.171,1.2-0.511c0.405-0.678,0.347-1.927-0.401-2.953
						c-0.372-0.515-0.906-1.01-1.693-1.344c-0.38-0.167-0.882-0.276-1.347-0.298c-0.409-0.025-0.834,0.005-1.249,0.084
						c-1.694,0.344-2.95,1.381-3.846,2.403c-1.712,1.994-2.53,4.188-2.714,5.856c-0.181,1.677,0.248,2.768,0.932,2.946
						c0.704,0.186,1.53-0.5,2.467-1.529c0.933-1.027,2.036-2.447,3.238-3.848c0.559-0.652,1.012-1.027,1.202-1.203l0.143-0.133
						l0.009-0.009l0.001-0.001l0.001-0.001c-0.017-0.849-0.005-0.234-0.009-0.424l0.001,0.006l0.001,0.012v0.048l-0.01,0.087
						c0.003,0.057-0.043,0.187-0.026,0.15c0.038-0.088,0.195-0.134,0.35-0.146c0.316-0.009,0.634-0.011,0.931,0.118
						C65.083,203.462,65.283,203.826,65.59,204.014z"/>
				</g>
				<g style="opacity:0.43;clip-path:url(#SVGID_00000019675320505799201550000017438838068677649571_);">
					<path style="fill:#F29F83;" d="M46.003,203.566c0.727-0.079,1.317-0.628,1.897-1.116c0.577-0.51,1.137-1.032,1.721-1.655
						c0.602-0.606,1.104-1.184,1.594-1.778c0.468-0.597,0.995-1.206,1.049-1.935c0.059-0.69-0.564-1.456-1.885-1.651
						c-0.65-0.101-1.428-0.017-2.231,0.262c-0.791,0.293-1.596,0.791-2.274,1.484c-0.669,0.701-1.138,1.523-1.403,2.324
						c-0.251,0.812-0.308,1.592-0.184,2.239C44.528,203.053,45.316,203.65,46.003,203.566z"/>
				</g>
				<g style="opacity:0.43;clip-path:url(#SVGID_00000019675320505799201550000017438838068677649571_);">
					<path style="fill:#F29F83;" d="M62.115,230.627c-0.324-0.248-1.422,0.976-3.84,2.272c-2.398,1.291-6.268,2.497-11.172,2.252
						c-2.462-0.097-5.173-0.504-8.146-1.067c-1.509-0.284-3.069-0.577-4.675-0.879c-1.638-0.282-3.345-0.507-5.087-0.765
						c-6.987-0.889-14.784-1.166-22.891-0.428c-8.11,0.731-15.736,2.336-22.461,4.41c-6.724,2.087-12.58,4.558-17.262,7.057
						c-9.415,4.947-14.287,9.43-13.931,9.925c0.454,0.689,5.995-2.652,15.492-6.59c9.458-3.962,23.082-8.242,38.621-9.615
						c7.752-0.706,15.192-0.583,21.913,0.01c1.677,0.185,3.315,0.327,4.91,0.52c1.619,0.213,3.192,0.42,4.713,0.621
						c3.084,0.39,6.071,0.622,8.83,0.481c5.579-0.219,9.935-2.226,12.292-4.262C61.819,232.513,62.371,230.782,62.115,230.627z"/>
				</g>
			</g>
		</g>
		<g style="clip-path:url(#SVGID_00000049925911237658208420000009077623686543600301_);">
			<g>
				<defs>
					<path id="SVGID_00000121985728559844005490000004128836811381338034_" d="M68.433,401.599
						c2.933-2.03,8.556-6.891,10.248-15.253c2.326-11.494,0.687-11.781,2.576-14.582c1.889-2.801,3.57-4.797-0.723-5.725
						c0,0-5.018-0.862-7.662,7.278c-5.225,16.086-6.364,8.723-6.364,8.723v0.011c-0.479-4.186-1.682-9.525-1.682-9.525
						s0.222-11.28,0.367-14.23c0,0,0.161-0.981,1.45-10.673c1.341-10.092-4.611-12.37-6.236-8.278
						c-0.611,1.539-2.96,13.386-2.96,13.386c-0.409,1.028-0.8,2.2-1.171,3.445c-1.529-0.646-4.794-1.453-7.672,1.685
						c0,0-10.365-2.404-13.668,9.824c0,0-5.418,1.067-5.225,9.244c0.14,5.965,0.668,12.423,0.944,15.489
						c-11.825,9.283-38.392,32.055-54.038,60.38l24.678,12.69c0,0,21.831-33.43,33.646-42.771
						c11.191-8.848,20.829-15.58,31.669-20.103l0.001,0.117c0,0,0.274-0.143,0.71-0.405c0.371-0.151,0.739-0.306,1.112-0.451
						L68.433,401.599z M54.368,363.638l0.104-0.261c-1.024,4.751-1.649,8.821-1.649,8.821S49.072,366.528,54.368,363.638z"/>
				</defs>
				<clipPath id="SVGID_00000164506172881206798310000010769857617578072233_">
					<use xlink:href="#SVGID_00000121985728559844005490000004128836811381338034_"  style="overflow:visible;"/>
				</clipPath>
				<g style="clip-path:url(#SVGID_00000164506172881206798310000010769857617578072233_);">
					<g>
						<path style="fill:#F4BBA2;" d="M68.433,401.599c2.933-2.03,8.556-6.891,10.248-15.253c2.326-11.494,0.687-11.781,2.576-14.582
							c1.889-2.801,3.57-4.797-0.723-5.725c0,0-5.018-0.862-7.662,7.278c-5.225,16.086-6.364,8.723-6.364,8.723v0.011
							c-0.479-4.186-1.682-9.525-1.682-9.525s0.222-11.28,0.367-14.23c0,0,0.161-0.981,1.45-10.673
							c1.341-10.092-4.611-12.37-6.236-8.278c-0.611,1.539-2.96,13.386-2.96,13.386c-0.409,1.028-0.8,2.2-1.171,3.445
							c-1.529-0.646-4.794-1.453-7.672,1.685c0,0-10.365-2.404-13.668,9.824c0,0-5.418,1.067-5.225,9.244
							c0.14,5.965,0.668,12.423,0.944,15.489c-11.825,9.283-38.392,32.055-54.038,60.38l24.678,12.69
							c0,0,21.831-33.43,33.646-42.771c11.191-8.848,20.829-15.58,31.669-20.103l0.001,0.117c0,0,0.274-0.143,0.71-0.405
							c0.371-0.151,0.739-0.306,1.112-0.451L68.433,401.599z M54.368,363.638l0.104-0.261c-1.024,4.751-1.649,8.821-1.649,8.821
							S49.072,366.528,54.368,363.638z"/>
					</g>
					<g>
						<path style="fill:#E8A695;" d="M45.377,373.814c-0.112,0.06-0.721-0.745-1.239-2.277c-0.52-1.516-0.866-3.803-0.403-6.257
							c0.461-2.456,1.614-4.461,2.65-5.684c1.039-1.239,1.899-1.768,1.981-1.671c0.109,0.116-0.556,0.827-1.389,2.108
							c-0.835,1.271-1.793,3.175-2.219,5.44c-0.426,2.264-0.225,4.385,0.091,5.873C45.16,372.841,45.521,373.745,45.377,373.814z"/>
					</g>
					<g>
						<path style="fill:#E8A695;" d="M59.362,373.032c-0.172,0.238-1.015-0.065-2.029,0.105c-1.021,0.128-1.74,0.661-1.974,0.482
							c-0.105-0.087-0.046-0.383,0.26-0.725c0.3-0.34,0.868-0.685,1.562-0.787c0.694-0.101,1.337,0.065,1.722,0.305
							C59.295,372.651,59.437,372.918,59.362,373.032z"/>
					</g>
					<g>
						<path style="fill:#E8A695;" d="M40.548,374.009c-0.197,0.195-0.872-0.077-1.511,0.167c-0.65,0.212-1.003,0.848-1.279,0.82
							c-0.135-0.017-0.254-0.268-0.153-0.668c0.093-0.388,0.453-0.908,1.085-1.135c0.634-0.222,1.241-0.044,1.557,0.199
							C40.576,373.641,40.642,373.911,40.548,374.009z"/>
					</g>
					<g>
						<path style="fill:#E8A695;" d="M49.665,373.483c-0.19,0.224-0.768,0.064-1.434,0.113c-0.667,0.016-1.228,0.23-1.438,0.025
							c-0.093-0.103-0.047-0.335,0.194-0.578c0.236-0.242,0.676-0.463,1.193-0.488c0.517-0.025,0.977,0.153,1.235,0.371
							C49.679,373.145,49.748,373.372,49.665,373.483z"/>
					</g>
					<g>
						<path style="fill:#E8A695;" d="M35.144,373.847c-0.27,0.078-0.88-1.279-0.967-3.077c-0.095-1.799,0.375-3.21,0.651-3.16
							c0.291,0.047,0.299,1.433,0.389,3.107C35.296,372.391,35.429,373.771,35.144,373.847z"/>
					</g>
					<g>
						<path style="fill:#E8A695;" d="M77.477,388.726c-0.128,0.258-0.931,0.118-1.792-0.311c-0.862-0.429-1.456-0.986-1.328-1.243
							c0.128-0.257,0.93-0.118,1.792,0.311C77.011,387.912,77.605,388.469,77.477,388.726z"/>
					</g>
					<g>
						<path style="fill:#E8A695;" d="M54.061,363.778c-0.278-0.05-0.149-2.046,0.535-4.397c0.678-2.353,1.636-4.11,1.897-4.003
							c0.271,0.109-0.235,1.996-0.897,4.293C54.929,361.965,54.349,363.832,54.061,363.778z"/>
					</g>
					<g>
						<path style="fill:#F9ECDE;" d="M63.792,341.052c-0.101,0.777-0.89,1.314-1.763,1.201c-0.873-0.113-1.5-0.834-1.399-1.611
							c0.101-0.776,0.89-1.314,1.763-1.201C63.266,339.555,63.893,340.276,63.792,341.052z"/>
					</g>
					<g>
						<path style="fill:#F9ECDE;" d="M82.391,369.073c0.209,0.382-0.147,0.978-0.686,1.477c-0.545,0.493-1.171,0.795-1.532,0.553
							c-0.357-0.235-0.219-1.069,0.477-1.706C81.345,368.76,82.189,368.696,82.391,369.073z"/>
					</g>
				</g>
				<g style="opacity:0.43;clip-path:url(#SVGID_00000164506172881206798310000010769857617578072233_);">
					<path style="fill:#F29F83;" d="M79.411,374.328c0.346,0.058,0.44,1.849,0.168,5.07c-0.139,1.611-0.388,3.583-0.859,5.868
						c-0.474,2.281-1.207,4.883-2.461,7.651c-0.655,1.37-1.419,2.79-2.402,4.17c-0.986,1.375-2.156,2.727-3.495,3.947
						c-2.668,2.47-5.907,4.46-9.232,6.321c-1.663,0.94-3.36,1.841-5.015,2.818c-0.823,0.499-1.654,1.003-2.494,1.512
						c-0.844,0.501-1.691,1.015-2.512,1.591c-1.664,1.113-3.367,2.23-5.013,3.49c-0.827,0.623-1.689,1.209-2.506,1.871
						c-0.821,0.657-1.647,1.318-2.478,1.983c-6.63,5.359-12.379,11.193-17.46,16.645c-5.066,5.474-9.42,10.637-13.086,14.98
						c-7.305,8.715-11.942,14.086-12.541,13.639c-0.553-0.413,3.014-6.528,9.629-15.893c3.324-4.67,7.436-10.145,12.42-15.924
						c4.999-5.755,10.827-11.887,17.746-17.483c0.869-0.693,1.733-1.381,2.591-2.065c0.856-0.687,1.764-1.299,2.635-1.943
						c1.733-1.302,3.537-2.456,5.304-3.594c0.871-0.587,1.772-1.112,2.672-1.621c0.895-0.514,1.782-1.023,2.66-1.527
						c1.772-0.985,3.517-1.843,5.168-2.703c3.311-1.701,6.29-3.379,8.669-5.35c2.397-1.936,4.129-4.214,5.458-6.54
						c2.595-4.699,3.694-9.196,4.608-12.216C78.461,375.972,79.048,374.268,79.411,374.328z"/>
				</g>
				<g style="opacity:0.43;clip-path:url(#SVGID_00000164506172881206798310000010769857617578072233_);">
					<path style="fill:#F29F83;" d="M66.238,339.177c1.43,0.158,1.711,10.188,0.628,22.398c-0.268,3.051-0.61,5.969-0.961,8.589
						c-0.311,2.56-0.47,4.763-0.361,6.549c0.087,1.793,0.473,3.126,0.814,4.108c0.356,0.963,0.636,1.591,0.39,1.882
						c-0.209,0.257-0.971,0.155-2.007-0.66c-1.01-0.809-2.182-2.445-2.812-4.633c-0.666-2.178-0.871-4.814-0.811-7.566
						c0.092-2.691,0.288-5.61,0.558-8.688C62.765,348.86,64.809,339.019,66.238,339.177z"/>
				</g>
				<g style="opacity:0.43;clip-path:url(#SVGID_00000164506172881206798310000010769857617578072233_);">
					<path style="fill:#F29F83;" d="M54.014,362.613c0.264,0.681,0.085,1.445-0.035,2.15c-0.141,0.712-0.293,1.385-0.547,2.106
						c-0.231,0.729-0.515,1.358-0.83,2.012c-0.328,0.635-0.645,1.354-1.265,1.739c-0.585,0.372-1.532,0.204-2.301-0.821
						c-0.767-0.994-1.138-2.815-0.542-4.581c0.586-1.769,1.978-3,3.189-3.333C52.913,361.529,53.771,361.964,54.014,362.613z"/>
				</g>
			</g>
			<polygon style="fill:#4A407F;" points="-36.313,450.173 -23.383,431.029 10.592,459.798 2.148,474.06 -18.74,511.391 
				-53.85,484.544 			"/>
		</g>
	</g>
</g>
<g id="Designed_by_freepik">
	<g>
		<g id="XMLID_319_">
			<g id="XMLID_338_">
				<path id="XMLID_346_" style="fill:#1D262D;" d="M260.104,474.72c-0.432,0.443-0.803,0.931-1.108,1.453l-0.465-0.241
					c-0.067-0.298-0.349-0.502-0.659-0.466c-0.331,0.039-0.568,0.339-0.529,0.67c0.039,0.331,0.339,0.568,0.67,0.529
					c0.066-0.008,0.127-0.026,0.184-0.052l0.451,0.234c-0.251,0.554-0.433,1.139-0.539,1.744l0.747,0.132
					c0.23-1.306,0.85-2.507,1.792-3.473L260.104,474.72z"/>
				<path id="XMLID_345_" style="fill:#1D262D;" d="M265.592,472.418c-0.171,0-0.341,0.006-0.51,0.017l-0.074-0.626
					c0.188-0.149,0.296-0.389,0.266-0.644c-0.046-0.393-0.402-0.674-0.795-0.628c-0.393,0.046-0.674,0.402-0.628,0.795
					c0.03,0.254,0.189,0.461,0.404,0.564l0.074,0.624c-0.714,0.116-1.403,0.332-2.06,0.646l0.327,0.684
					c0.934-0.447,1.942-0.673,2.995-0.673c0.496,0,0.993,0.053,1.475,0.158l0.161-0.741
					C266.692,472.477,266.142,472.418,265.592,472.418z"/>
				<path id="XMLID_344_" style="fill:#1D262D;" d="M272.194,474.965c0.331-0.04,0.566-0.341,0.526-0.672
					c-0.04-0.331-0.341-0.566-0.672-0.526c-0.309,0.038-0.535,0.304-0.53,0.609l-0.416,0.363c-0.418-0.43-0.889-0.813-1.408-1.139
					l-0.404,0.641c1.134,0.715,2.021,1.726,2.563,2.925l0.69-0.313c-0.251-0.554-0.567-1.072-0.942-1.545l0.402-0.351
					C272.065,474.97,272.129,474.973,272.194,474.965z"/>
				<path id="XMLID_343_" style="fill:#1D262D;" d="M265.044,482.626c-0.386,0.023-0.775,0.035-1.157,0.035
					c-0.88,0-1.733-0.061-2.478-0.179c-0.39-0.062-0.846-0.155-1.27-0.292c1.046,1.861,3.069,3.125,5.388,3.125
					c2.855,0,5.262-1.916,5.95-4.504c-0.682,0.449-1.505,0.825-2.459,1.123C267.839,482.302,266.463,482.541,265.044,482.626z"/>
				<path id="XMLID_339_" style="fill:#1D262D;" d="M265.592,473.934c-3.352,0-6.08,2.666-6.08,5.944
					c0,0.426,0.046,0.849,0.137,1.261c0.673,0.483,2.706,0.89,5.348,0.731c2.879-0.173,5.297-0.957,6.672-2.159
					c-0.006-0.195-0.021-0.39-0.045-0.582C271.244,476.168,268.65,473.934,265.592,473.934z M263.432,480.449
					c-1.02,0-1.85-0.83-1.85-1.85c0-1.02,0.83-1.85,1.85-1.85c1.02,0,1.85,0.83,1.85,1.85
					C265.282,479.619,264.452,480.449,263.432,480.449z M268.17,479.541c-0.75,0-1.36-0.61-1.36-1.36c0-0.75,0.61-1.361,1.36-1.361
					c0.75,0,1.361,0.61,1.361,1.361C269.53,478.931,268.92,479.541,268.17,479.541z"/>
			</g>
			<path id="XMLID_336_" style="fill:#1D262D;" d="M281.595,475.801c-0.295-0.116-0.805-0.309-1.382-0.237
				c-0.551,0.068-0.844,0.34-0.844,1.007v0.866h2.228v1.717h-2.228v5.455h-1.932v-5.455h-1.34v-1.717h1.34v-0.888
				c0-1.68,0.896-2.783,2.568-2.783c0.643,0,1.157,0.122,1.59,0.308L281.595,475.801z"/>
			<path id="XMLID_334_" style="fill:#1D262D;" d="M286.298,479.133c-0.177-0.03-0.358-0.046-0.526-0.046
				c-0.896,0-1.51,0.548-1.51,1.613v3.908h-1.932v-7.172h1.873v0.785c0.451-0.674,1.14-0.977,2.021-0.977
				c0.414,0,0.848,0.128,1.094,0.337L286.298,479.133z"/>
			<path id="XMLID_331_" style="fill:#1D262D;" d="M293.965,481.011c0,0.222-0.015,0.489-0.037,0.651h-5.085
				c0.207,1.036,0.933,1.488,1.843,1.488c0.622,0,1.295-0.252,1.813-0.688l1.133,1.243c-0.814,0.748-1.85,1.088-3.057,1.088
				c-2.198,0-3.723-1.495-3.723-3.753c0-2.257,1.48-3.797,3.627-3.797C292.544,477.244,293.958,478.776,293.965,481.011z
				 M288.851,480.345h3.175c-0.177-0.918-0.733-1.436-1.562-1.436C289.554,478.909,289.021,479.457,288.851,480.345z"/>
			<path id="XMLID_328_" style="fill:#1D262D;" d="M301.618,481.011c0,0.222-0.015,0.489-0.037,0.651h-5.085
				c0.207,1.036,0.932,1.488,1.843,1.488c0.622,0,1.295-0.252,1.814-0.688l1.132,1.243c-0.814,0.748-1.85,1.088-3.057,1.088
				c-2.198,0-3.723-1.495-3.723-3.753c0-2.257,1.48-3.797,3.627-3.797C300.197,477.244,301.611,478.776,301.618,481.011z
				 M296.504,480.345h3.175c-0.178-0.918-0.733-1.436-1.562-1.436C297.207,478.909,296.674,479.457,296.504,480.345z"/>
			<path id="XMLID_325_" style="fill:#1D262D;" d="M309.964,481.019c0,2.154-1.495,3.775-3.471,3.775
				c-0.962,0-1.643-0.378-2.109-0.933v3.708h-1.924v-10.133h1.887v0.792c0.466-0.585,1.155-0.984,2.139-0.984
				C308.469,477.244,309.964,478.865,309.964,481.019z M304.287,481.019c0,1.132,0.747,1.976,1.843,1.976
				c1.14,0,1.85-0.881,1.85-1.976c0-1.095-0.71-1.976-1.85-1.976C305.035,479.043,304.287,479.886,304.287,481.019z"/>
			<path id="XMLID_322_" style="fill:#1D262D;" d="M313.068,475.09c0,0.696-0.54,1.229-1.236,1.229
				c-0.696,0-1.229-0.533-1.229-1.229c0-0.696,0.533-1.243,1.229-1.243C312.527,473.847,313.068,474.395,313.068,475.09z
				 M312.809,484.608h-1.932v-7.172h1.932V484.608z"/>
			<path id="XMLID_320_" style="fill:#1D262D;" d="M316.032,479.99l2.701-2.554h2.368l-3.479,3.375l3.501,3.797h-2.376l-2.716-2.901
				v2.901H314.1V473.95h1.932V479.99z"/>
		</g>
		<g>
			<path style="fill:#1D262D;" d="M184.412,484.543v-1.055c-0.527,0.718-1.391,1.23-2.388,1.23c-1.846,0-3.149-1.406-3.149-3.706
				c0-2.256,1.289-3.721,3.149-3.721c0.952,0,1.816,0.469,2.388,1.245v-3.765h1.099v9.77H184.412z M184.412,482.625v-3.208
				c-0.395-0.615-1.245-1.143-2.124-1.143c-1.421,0-2.27,1.172-2.27,2.739c0,1.567,0.85,2.724,2.27,2.724
				C183.168,483.738,184.017,483.24,184.412,482.625z"/>
			<path style="fill:#1D262D;" d="M186.932,480.999c0-2.051,1.465-3.706,3.486-3.706c2.139,0,3.398,1.67,3.398,3.794v0.279h-5.727
				c0.088,1.333,1.025,2.446,2.549,2.446c0.805,0,1.626-0.322,2.182-0.893l0.527,0.718c-0.703,0.703-1.655,1.084-2.812,1.084
				C188.44,484.719,186.932,483.211,186.932,480.999z M190.403,478.201c-1.509,0-2.256,1.274-2.314,2.358h4.643
				C192.718,479.504,192.015,478.201,190.403,478.201z"/>
			<path style="fill:#1D262D;" d="M194.607,483.606l0.571-0.791c0.469,0.542,1.362,1.011,2.329,1.011c1.084,0,1.67-0.513,1.67-1.216
				c0-1.714-4.38-0.659-4.38-3.281c0-1.098,0.952-2.036,2.636-2.036c1.201,0,2.051,0.454,2.622,1.026l-0.513,0.762
				c-0.424-0.513-1.201-0.894-2.109-0.894c-0.967,0-1.567,0.483-1.567,1.113c0,1.553,4.38,0.527,4.38,3.281
				c0,1.187-0.952,2.139-2.783,2.139C196.306,484.719,195.325,484.368,194.607,483.606z"/>
			<path style="fill:#1D262D;" d="M201.477,475.725c0-0.41,0.337-0.747,0.732-0.747c0.41,0,0.747,0.337,0.747,0.747
				c0,0.41-0.337,0.732-0.747,0.732C201.814,476.458,201.477,476.136,201.477,475.725z M201.667,484.543v-7.075h1.099v7.075H201.667
				z"/>
			<path style="fill:#1D262D;" d="M204.582,486.36l0.556-0.82c0.586,0.703,1.289,0.967,2.3,0.967c1.172,0,2.27-0.571,2.27-2.124
				v-1.011c-0.513,0.718-1.377,1.26-2.373,1.26c-1.845,0-3.149-1.377-3.149-3.662c0-2.27,1.289-3.677,3.149-3.677
				c0.952,0,1.802,0.469,2.373,1.245v-1.069h1.098v6.87c0,2.344-1.641,3.076-3.369,3.076
				C206.237,487.414,205.417,487.18,204.582,486.36z M209.709,482.508v-3.091c-0.381-0.615-1.23-1.143-2.109-1.143
				c-1.421,0-2.27,1.128-2.27,2.695c0,1.553,0.849,2.695,2.27,2.695C208.478,483.665,209.328,483.123,209.709,482.508z"/>
			<path style="fill:#1D262D;" d="M217.413,484.543v-4.629c0-1.245-0.63-1.641-1.582-1.641c-0.865,0-1.685,0.527-2.095,1.099v5.17
				h-1.099v-7.075h1.099v1.025c0.498-0.586,1.465-1.201,2.519-1.201c1.48,0,2.256,0.747,2.256,2.285v4.966H217.413z"/>
			<path style="fill:#1D262D;" d="M219.932,480.999c0-2.051,1.465-3.706,3.486-3.706c2.139,0,3.398,1.67,3.398,3.794v0.279h-5.727
				c0.088,1.333,1.025,2.446,2.549,2.446c0.806,0,1.626-0.322,2.183-0.893l0.527,0.718c-0.703,0.703-1.655,1.084-2.812,1.084
				C221.441,484.719,219.932,483.211,219.932,480.999z M223.404,478.201c-1.509,0-2.256,1.274-2.314,2.358h4.643
				C225.718,479.504,225.015,478.201,223.404,478.201z"/>
			<path style="fill:#1D262D;" d="M233.35,484.543v-1.055c-0.527,0.718-1.392,1.23-2.388,1.23c-1.846,0-3.149-1.406-3.149-3.706
				c0-2.256,1.289-3.721,3.149-3.721c0.952,0,1.817,0.469,2.388,1.245v-3.765h1.098v9.77H233.35z M233.35,482.625v-3.208
				c-0.396-0.615-1.245-1.143-2.124-1.143c-1.421,0-2.27,1.172-2.27,2.739c0,1.567,0.849,2.724,2.27,2.724
				C232.105,483.738,232.954,483.24,233.35,482.625z"/>
			<path style="fill:#1D262D;" d="M239.692,484.543v-9.77h1.098v3.765c0.572-0.776,1.421-1.245,2.388-1.245
				c1.845,0,3.149,1.465,3.149,3.721c0,2.299-1.304,3.706-3.149,3.706c-0.996,0-1.86-0.513-2.388-1.23v1.055H239.692z
				 M242.9,483.738c1.436,0,2.285-1.157,2.285-2.724c0-1.567-0.85-2.739-2.285-2.739c-0.864,0-1.728,0.527-2.109,1.143v3.208
				C241.171,483.24,242.036,483.738,242.9,483.738z"/>
			<path style="fill:#1D262D;" d="M247.528,486.316c0.161,0.073,0.425,0.117,0.601,0.117c0.483,0,0.805-0.161,1.055-0.747
				l0.469-1.069l-2.959-7.148h1.187l2.358,5.801l2.344-5.801h1.201l-3.545,8.51c-0.425,1.025-1.143,1.421-2.08,1.435
				c-0.234,0-0.601-0.044-0.805-0.103L247.528,486.316z"/>
		</g>
	</g>
</g>
</svg>
