<?xml version="1.0" encoding="utf-8"?>
<!-- Generator: Adobe Illustrator 27.5.0, SVG Export Plug-In . SVG Version: 6.00 Build 0)  -->
<svg version="1.1" xmlns="http://www.w3.org/2000/svg" xmlns:xlink="http://www.w3.org/1999/xlink" x="0px" y="0px"
	 viewBox="0 0 1122 1122" style="enable-background:new 0 0 1122 1122;" xml:space="preserve">
<g id="background">
	<g>
		<rect x="0.055" style="fill:#FFFFFF;" width="1122" height="1122"/>
	</g>
</g>
<g id="shadow">
	<path style="opacity:0.12;fill:#606060;" d="M964.703,859H243.487c-22.813,0-41.477,13.054-41.477,29.008l0,0
		c0,11.048,8.953,20.7,22.032,25.595h-63.509c-22.813,0-41.477,13.054-41.477,29.008l0,0c0,15.954,18.665,29.008,41.477,29.008
		h22.13c-6.181,5.069-9.93,11.626-9.93,18.77v11.603c0,15.954,18.665,29.008,41.477,29.008H924.69
		c22.813,0,41.477-13.054,41.477-29.008v-11.603c0-15.954-18.665-29.008-41.477-29.008l-48.309,0.644
		c3.68,0,9.655-2.03,13.663-6.112c7.028-7.156,7.34-18.049,3.904-27.066c-2.228-5.845-5.797-10.48-14.639-12.223l85.394,0.391
		c22.813,0,41.477-13.054,41.477-29.008l0,0C1006.181,872.054,987.516,859,964.703,859z"/>
</g>
<g id="object">
	<g>
		<g>
			<polygon style="fill:#8AAD9F;" points="581.279,356.789 613.055,362 706.055,454 706.055,493 671.055,493 569.055,413 			"/>
		</g>
		<g>
			<polygon style="fill:#8AAD9F;" points="510.52,346.176 418.174,328.214 356.671,243.33 336.269,253.987 390.217,365.609 
				487.883,399.469 			"/>
		</g>
		<g>
			<g>
				<polygon style="fill:#41413F;" points="784.765,724.204 775.687,724.204 775.687,539.617 697.767,539.617 697.767,724.204 
					688.689,724.204 688.689,530.539 784.765,530.539 				"/>
			</g>
			<g>
				<path style="fill:#FCA235;" d="M802.425,970.824h-128.37c-16.569,0-30-13.431-30-30V735.292c0-16.569,13.431-30,30-30h128.37
					c16.569,0,30,13.431,30,30v205.533C832.425,957.393,818.993,970.824,802.425,970.824z"/>
			</g>
			<g>
				<rect x="669.02" y="970.824" style="fill:#41413F;" width="25.721" height="4.539"/>
			</g>
			<g>
				<rect x="680.367" y="700.752" style="fill:#70706D;" width="25.721" height="4.539"/>
			</g>
			<g>
				<rect x="723.488" y="526" style="fill:#41413F;" width="25.721" height="4.539"/>
			</g>
			<g>
				<g>
					<polygon style="fill:#70706D;" points="673.054,975.363 675.828,992.007 681.88,992.007 689.316,992.027 692.09,975.384 					
						"/>
				</g>
			</g>
			<g>
				
					<rect x="777.956" y="970.824" transform="matrix(-1 -4.469504e-11 4.469504e-11 -1 1581.6339 1946.188)" style="fill:#41413F;" width="25.721" height="4.539"/>
			</g>
			<g>
				
					<rect x="768.122" y="700.752" transform="matrix(-1 -4.511914e-11 4.511914e-11 -1 1561.9647 1406.0439)" style="fill:#70706D;" width="25.721" height="4.539"/>
			</g>
			<g>
				<g>
					<polygon style="fill:#70706D;" points="799.643,975.363 796.869,992.007 790.817,992.007 784.765,992.007 781.991,975.363 
											"/>
				</g>
			</g>
			<g>
				<rect x="684.906" y="530.539" style="fill:#70706D;" width="103.641" height="15.887"/>
			</g>
			<g>
				<g>
					<polygon style="fill:#70706D;" points="710.628,689.405 710.628,705.292 718.249,705.292 718.249,697.003 755.205,697.003 
						755.205,705.292 762.826,705.292 762.826,689.405 					"/>
				</g>
			</g>
			<g>
				<path style="fill:#FCB662;" d="M803.677,712.1h-49.186c41.149,9.291,71.881,46.067,71.881,90.024v-67.329
					C826.373,722.261,816.212,712.1,803.677,712.1z"/>
			</g>
			<g>
				<path style="fill:#D68A2D;" d="M675.76,721.935c-0.361-2.146-2.223-3.783-4.471-3.783c-2.248,0-4.11,1.637-4.471,3.783h-0.068
					v233.76c0,2.507,2.032,4.539,4.539,4.539c2.507,0,4.539-2.032,4.539-4.539v-233.76H675.76z"/>
			</g>
			<g>
				<path style="fill:#D68A2D;" d="M697.699,721.935c-0.361-2.146-2.223-3.783-4.471-3.783c-2.248,0-4.11,1.637-4.471,3.783h-0.068
					v233.76c0,2.507,2.032,4.539,4.539,4.539s4.539-2.032,4.539-4.539v-233.76H697.699z"/>
			</g>
			<g>
				<path style="fill:#D68A2D;" d="M719.637,721.935c-0.361-2.146-2.222-3.783-4.471-3.783s-4.11,1.637-4.471,3.783h-0.068v233.76
					c0,2.507,2.032,4.539,4.539,4.539s4.539-2.032,4.539-4.539v-233.76H719.637z"/>
			</g>
			<g>
				<path style="fill:#D68A2D;" d="M741.576,721.935c-0.361-2.146-2.223-3.783-4.471-3.783c-2.248,0-4.11,1.637-4.471,3.783h-0.068
					v233.76c0,2.507,2.032,4.539,4.539,4.539c2.507,0,4.539-2.032,4.539-4.539v-233.76H741.576z"/>
			</g>
			<g>
				<path style="fill:#D68A2D;" d="M763.515,721.935c-0.361-2.146-2.222-3.783-4.471-3.783s-4.11,1.637-4.471,3.783h-0.068v233.76
					c0,2.507,2.032,4.539,4.539,4.539s4.539-2.032,4.539-4.539v-233.76H763.515z"/>
			</g>
			<g>
				<path style="fill:#D68A2D;" d="M785.453,721.935c-0.361-2.146-2.223-3.783-4.471-3.783c-2.248,0-4.11,1.637-4.471,3.783h-0.068
					v233.76c0,2.507,2.032,4.539,4.539,4.539s4.539-2.032,4.539-4.539v-233.76H785.453z"/>
			</g>
			<g>
				<path style="fill:#D68A2D;" d="M807.392,721.935c-0.361-2.146-2.223-3.783-4.471-3.783c-2.248,0-4.11,1.637-4.471,3.783h-0.068
					v233.76c0,2.507,2.032,4.539,4.539,4.539c2.507,0,4.539-2.032,4.539-4.539v-233.76H807.392z"/>
			</g>
		</g>
		<g>
			<g>
				<g>
					<path style="fill:#9E6652;" d="M501.294,244.502c0,0-11.047,9.037-5.848,42.311s2.08,55.111,2.08,55.111s11.438,5.199,19.757,0
						c8.319-5.199,11.438-6.239,8.319-19.757s-9.358-77.987-9.358-77.987L501.294,244.502z"/>
				</g>
				<g>
					<g>
						<polygon style="fill:#9E6652;" points="609.948,966.966 611.072,978.076 590.92,991.929 579.158,982.191 588.672,969.709 
							608.825,955.856 						"/>
					</g>
					<g>
						<polygon style="fill:#474747;" points="609.446,627.286 612.859,661.027 582.638,776.955 610.7,963.242 590.044,970.371 
							535.576,788.498 526.932,735.589 527.248,623.582 						"/>
					</g>
				</g>
				<g>
					<g>
						<polygon style="fill:#474747;" points="450.577,664.892 494.025,977.043 513.774,977.043 517.328,776.955 553.272,636.514 
													"/>
					</g>
					<g>
						<polygon style="fill:#9E6652;" points="513.66,974.575 513.66,985.787 492.303,997 481.625,985.787 492.303,974.575 						"/>
					</g>
				</g>
				<g>
					<path style="fill:#8AAD9F;" d="M504.19,347.504c0.4-0.681,0.817-1.352,1.252-2.013c15.507-23.506,50.615-8.724,73.607-8.723
						c6.291,66.35,23.686,129.587,34.921,194.731c11.932,69.188,25.367,138.117,40.291,206.72c0.845,3.885-59.252,1.925-64.92,2.021
						c-57.817,0.977-133.499,0.777-189.286-16.732c35.603-95.734,48.602-198.742,76.639-296.967
						c6.183-21.661,12.881-43.014,20.787-63.93C499.432,357.451,501.404,352.249,504.19,347.504z"/>
				</g>
				<g>
					<path style="fill:#9E6652;" d="M528.698,255.745c-12.631,3.46-22.574,15.168-23.959,28.21
						c-6.903-6.441-10.427-16.33-9.156-25.693c1.271-9.363,7.303-17.951,15.672-22.312c7.831,4.163,13.902,11.528,16.502,20.016
						L528.698,255.745z"/>
				</g>
				<g>
					<path style="fill:#EACDB0;" d="M503.005,272.696c6.526-34.512,49.576-28.549,61.926-0.601
						c7.023,15.893,5.383,46.952-14.383,52.151c-0.302,3.055-0.698,8.783-3.029,10.825c-2.525,2.212-10.482,0.104-13.6-0.619
						c-0.865-0.2-1.768-0.449-2.395-1.078c-0.784-0.787-0.917-2.896-0.931-5.233c-2.289-0.156-4.633-0.603-7.019-1.387
						c-10.013-3.293-17.265-12.577-20.264-22.697C500.312,293.938,501.044,283.067,503.005,272.696z"/>
				</g>
			</g>
			<g>
				<g>
					<polygon style="fill:#D9BC59;" points="571.615,315.772 597.134,358.923 485.119,397.806 479.581,368.156 					"/>
				</g>
				<g>
					<polygon style="fill:#F2D263;" points="513.49,327.674 540.405,334.417 583.839,363.819 602.002,550.207 526.213,544.896 
						532.278,385.141 490.908,363.987 479.28,352.107 					"/>
				</g>
			</g>
			<g>
				<path style="fill:#9E6652;" d="M512.083,235.862c0,0-4.159,18.717,19.757,23.916c23.916,5.199,39.448,23.916,35.321,43.672
					s-21.803,34.314-12.445,39.513c9.358,5.199,43.672,0,43.672,0s20.796-69.668-7.279-99.823
					C563.035,212.986,522.482,211.946,512.083,235.862z"/>
			</g>
		</g>
		<g>
			<g>
				<g>
					<g>
						<path style="fill:#066598;" d="M613.373,353.943c-66.951,55.657-123.383,41.077-131.223,38.667c0,0-0.373-0.456-0.466-0.147
							c-0.307-0.099-0.145,0.467-0.145,0.467c-2.48,7.818-22.606,62.518-106.472,85.897c0,0,58.719,140.208,131.354,171.895
							c77.579,33.845,126.465,30.751,126.584,30.495c0.278,0.048,31.159-38.232,46.962-121.442
							C694.752,481.927,613.373,353.943,613.373,353.943z"/>
					</g>
					<g>
						<path style="fill:#4498C5;" d="M609.57,373.523c-60.898,50.228-111.796,37.592-118.864,35.493c0,0-0.334-0.405-0.42-0.128
							c-0.277-0.087-0.134,0.418-0.134,0.418c-2.296,7.006-20.87,56.049-96.829,77.54c0,0,52.078,124.928,117.497,152.743
							c69.872,29.709,115.712,29.813,115.821,29.583c0.251,0.041,26.792-37.612,41.66-112.111
							C682.212,487.363,609.57,373.523,609.57,373.523z"/>
					</g>
					<g style="opacity:0.06;">
						<g>
							<path d="M496.295,421.091c0,0-0.15-0.529,0.141-0.438c0.09-0.29,0.44,0.134,0.44,0.134
								c7.259,2.156,58.655,14.914,120.784-34.186c-6.712-11.996-11.355-19.274-11.355-19.274
								c-60.898,50.228-111.796,37.592-118.864,35.493c0,0-0.334-0.405-0.42-0.128c-0.277-0.087-0.134,0.418-0.134,0.418
								c-2.296,7.006-20.87,56.049-96.829,77.54c0,0,3.321,7.966,9.337,20.32C475.17,477.833,493.936,428.288,496.295,421.091z"/>
						</g>
					</g>
				</g>
				<g style="opacity:0.34;">
					<path style="fill:#FFFFFF;" d="M606.676,417.337c-45.901,38.158-91.389,30.165-96.763,28.513c0,0-0.256-0.313-0.32-0.101
						c-0.211-0.068-0.099,0.32-0.099,0.32c-1.7,5.36-20.719,47.074-78.217,63.102c0,0,45.478,91.913,95.276,113.638
						c53.188,23.204,86.704,21.083,86.785,20.907c0.191,0.033,21.363-26.211,32.197-83.26
						C655.67,507.085,606.676,417.337,606.676,417.337z"/>
				</g>
			</g>
			<g>
				<path style="fill:#B22B48;" d="M607.834,580.522c-7.128-12.493-14.257-24.986-21.385-37.479c-0.668-1.17-1.335-2.34-2.003-3.511
					c9.098-5.191,18.196-10.383,27.295-15.574c4.565-2.605,9.13-5.209,13.695-7.814c1.521-0.868,2.078-2.895,1.208-4.419
					c-4.43-7.764-8.861-15.529-13.291-23.293c-0.868-1.521-2.895-2.078-4.419-1.208c-12.493,7.128-24.986,14.257-37.479,21.385
					c-1.17,0.668-2.34,1.335-3.51,2.003c-5.191-9.098-10.383-18.196-15.574-27.295c-2.605-4.565-5.209-9.13-7.814-13.695
					c-0.868-1.521-2.895-2.078-4.419-1.208c-7.764,4.43-15.529,8.861-23.293,13.291c-0.862,0.492-1.334,1.187-1.509,1.932
					c-0.249,0.742-0.205,1.602,0.3,2.488c7.128,12.493,14.257,24.986,21.385,37.479c0.668,1.17,1.335,2.34,2.003,3.51
					c-9.098,5.191-18.196,10.383-27.295,15.574c-4.565,2.605-9.13,5.209-13.695,7.814c-1.521,0.868-2.078,2.895-1.208,4.419
					c4.43,7.764,8.861,15.529,13.291,23.293c0.492,0.863,1.187,1.334,1.932,1.509c0.742,0.249,1.602,0.205,2.488-0.3
					c12.493-7.128,24.986-14.257,37.479-21.385c1.17-0.668,2.34-1.335,3.51-2.003c5.191,9.098,10.383,18.197,15.574,27.295
					c2.605,4.565,5.209,9.13,7.814,13.695c0.868,1.521,2.895,2.078,4.419,1.208c7.764-4.43,15.529-8.861,23.293-13.291
					C608.147,584.073,608.704,582.047,607.834,580.522z"/>
			</g>
		</g>
		<g>
			<g>
				<g>
					<path style="fill:#A3CEDF;" d="M244.579,267.227l61.619-24.055l-38.187,39.224c-9.757,10.022-23.24,19.215-38.963,26.566
						l-46.266,18.167L244.579,267.227z"/>
				</g>
				<g>
					<path style="fill:#A3CEDF;" d="M552.628,99.38c4.154-6.532,7.818-13.323,11.505-20.702c4.465-8.937-1.913-19.475-11.901-19.664
						l-23.42-0.443c-29.557-0.559-57.238,7.48-79.795,22.595L278.895,203.15c-18.68,13.394-34.469,30.414-46.426,50.044
						l-6.825,11.204c-2.514,4.127-2.505,9.313,0.023,13.431c2.886,4.701,8.446,7.042,13.825,5.819c0,0,36.786-9.742,36.786-9.742
						c21.319-11.694,48.068-23.245,69.386-34.939c36.4-19.967,72.8-39.934,109.2-59.901c10.528-5.775,21.068-11.527,31.584-17.325
						c20.643-11.383,38.419-27.594,53.677-45.43C544.908,110.719,548.959,105.151,552.628,99.38z"/>
				</g>
				<g>
					<g>
						<path style="fill:#A3CEDF;" d="M445.613,192.439l-21.502,11.044c-3.181,1.634-4.541,5.438-3.098,8.664l2.923,6.535
							c1.443,3.226,5.186,4.747,8.524,3.465l22.992-8.832c2.322-0.892,4.029-2.971,4.288-5.422
							c0.739-7.014-3.481-11.967-6.805-14.724C450.892,191.477,447.996,191.215,445.613,192.439z"/>
					</g>
					<g style="opacity:0.05;">
						<path d="M436.834,197.45l-3.472,24.351l23.784-9.308c0,0-14.886,5.03-18.396-16.023L436.834,197.45z"/>
					</g>
					<g>
						<path style="fill:#066598;" d="M448.635,199.075c2.559,4.315,4.439,9.258,5.171,14.189c0.029,0.193,0.033,0.376,0.055,0.567
							l2.181-0.816c2.154-0.806,3.695-2.799,3.861-5.204c0.478-6.881-3.64-11.885-6.849-14.701c-1.972-1.73-4.7-2.077-6.902-0.946
							l-1.672,0.859C446.063,195.009,447.463,197.1,448.635,199.075z"/>
					</g>
				</g>
				<g>
					<g>
						<path style="fill:#A3CEDF;" d="M427.188,239.09l-22.342,9.228c-3.305,1.365-4.976,5.044-3.804,8.378l2.373,6.754
							c1.171,3.334,4.776,5.16,8.208,4.158l23.643-6.9c2.388-0.697,4.261-2.627,4.721-5.049c1.316-6.929-2.479-12.214-5.564-15.236
							C432.528,238.567,429.664,238.067,427.188,239.09z"/>
					</g>
					<g>
						<path style="fill:#066598;" d="M430.817,245.474c2.194,4.512,3.658,9.594,3.98,14.568c0.013,0.195,0.002,0.378,0.008,0.569
							l2.241-0.633c2.213-0.625,3.913-2.484,4.279-4.867c1.045-6.818-2.645-12.146-5.609-15.217c-1.822-1.887-4.512-2.458-6.8-1.513
							l-1.738,0.718C428.591,241.208,429.813,243.408,430.817,245.474z"/>
					</g>
					<g style="opacity:0.05;">
						<path d="M417.861,243.173l-5.474,23.98l24.472-7.309c0,0-15.251,3.781-17.008-17.489L417.861,243.173z"/>
					</g>
				</g>
				<g>
					<path style="fill:#A3CEDF;" d="M465.985,144.472l-69.846,167.619c-7.585,18.203-23.996,31.228-43.446,34.482l-7.33,1.226
						l19.069-156.206l101.337-51.442L465.985,144.472z"/>
				</g>
				<g style="opacity:0.57;">
					<path style="fill:#FFFFFF;" d="M526.493,58.546c0,0-2.786,10.313-21.861,19.463l8.59,10.656c0,0,23.321-12.428,29.346-29.834
						L526.493,58.546z"/>
				</g>
				<g>
					<polygon style="fill:#A3CEDF;" points="289.463,231.141 287.812,229.375 180.125,198.794 143.435,224.94 227.167,287.701 					
						"/>
				</g>
			</g>
			<g style="opacity:0.1;">
				<g>
					<path d="M442.632,150.027l-3.616,2.503c-1.13,0.782-2.694,0.497-3.476-0.632l-6.502-9.394c-0.782-1.13-0.497-2.694,0.632-3.476
						l3.616-2.503c1.13-0.782,2.694-0.497,3.476,0.632l6.502,9.394C444.046,147.68,443.762,149.245,442.632,150.027z"/>
				</g>
				<g>
					<path d="M456.001,140.773l-3.616,2.503c-1.13,0.782-2.694,0.497-3.476-0.632l-6.502-9.394c-0.782-1.13-0.497-2.694,0.632-3.476
						l3.616-2.503c1.13-0.782,2.694-0.497,3.476,0.632l6.502,9.394C457.416,138.427,457.131,139.991,456.001,140.773z"/>
				</g>
				<g>
					<path d="M470.91,130.454l-3.616,2.503c-1.13,0.782-2.694,0.497-3.476-0.632l-6.502-9.394c-0.782-1.13-0.497-2.694,0.632-3.476
						l3.616-2.503c1.13-0.782,2.694-0.497,3.476,0.632l6.502,9.394C472.325,128.107,472.04,129.672,470.91,130.454z"/>
				</g>
			</g>
			<g style="opacity:0.04;">
				<path d="M331.059,241.196c24.845-14.094,49.702-28.196,73.789-43.55c41.235-26.284,88.176-50.724,124.165-83.829
					c4.48-4.121,33.072-32.425,35.954-38.849c0.056-0.125,0.236-0.083,0.239,0.054c0.085,4.049-10.675,20.802-12.578,24.358
					c-5.815,10.868-15.778,19.839-22.077,27.023c-5.724,6.528-16.009,16.147-23.106,21.147
					c-40.864,28.788-88.228,49.349-131.895,73.723c-17.693,9.876-34.802,20.807-52.828,30.062c-6.662,3.42-13.441,6.604-20.27,9.674
					c-4.133,1.857-11.991,7.227-16.368,5.783C300.527,257.518,316.123,249.669,331.059,241.196z"/>
			</g>
		</g>
		<g>
			<polygon style="fill:#EACDB0;" points="353.958,245.752 357.881,231.567 349.821,212.663 343.512,216.869 347.157,227.806 
				338.464,240.285 333.557,246.595 338.801,252.894 			"/>
		</g>
		<g>
			<polygon style="fill:#8AAD9F;" points="706.055,454 671.289,456.803 580.055,536 597.055,561 706.055,499 			"/>
		</g>
		<g>
			<polygon style="fill:#EACDB0;" points="582.938,540.24 559.055,546 553.055,569 561.055,576 579.055,561 593.698,556.063 			"/>
		</g>
	</g>
</g>
</svg>
