<?xml version="1.0" encoding="utf-8"?>
<!-- Generator: Adobe Illustrator 27.5.0, SVG Export Plug-In . SVG Version: 6.00 Build 0)  -->
<svg version="1.1" xmlns="http://www.w3.org/2000/svg" xmlns:xlink="http://www.w3.org/1999/xlink" x="0px" y="0px"
	 viewBox="0 0 3710 3710" style="enable-background:new 0 0 3710 3710;" xml:space="preserve">
<g id="Background">
	<g>
		<g>
			<rect style="fill:#FFFFFF;" width="3710" height="3710"/>
		</g>
	</g>
</g>
<g id="Illustration">
	<g>
		<linearGradient id="SVGID_1_" gradientUnits="userSpaceOnUse" x1="3400.9236" y1="3616.2175" x2="1379.7041" y2="1434.5835">
			<stop  offset="0" style="stop-color:#DAE3FE"/>
			<stop  offset="1" style="stop-color:#E9EFFD"/>
		</linearGradient>
		<path style="fill:url(#SVGID_1_);" d="M3124.092,2371.227c-278.827,646.94-1014.84,924.816-1591.517,877.438
			c-157.457-12.936-474.262-38.964-721.627-271.171c-475.047-445.939-401.885-1378.075,52.871-1926.865
			c58.563-70.673,463.929-544.173,1095.615-537.835c462.486,4.641,787.101,263.975,826.573,296.283
			c49.864,40.814,159.843,137.8,258.96,291.663C3277.859,1462.264,3298.331,1966.954,3124.092,2371.227z"/>
		<g style="opacity:0.71;">
			<path style="fill:#BDD0FB;" d="M2031.214,3015.821c0,0,20.687-229.993,268.66-447.159
				c230.075-201.493,793.459-665.487,934.442-934.177c6.244-11.903,24.216-7.02,23.428,6.399
				c-8.439,143.94-57.908,502.781-331.145,844.078C2574.247,2925.085,2031.214,3015.821,2031.214,3015.821z"/>
			<path style="opacity:0.45;fill:#FFFFFF;" d="M3132.665,1886.202c-6.282,31.276-16.438,61.669-28.211,91.305
				c-1.452,3.716-2.833,7.464-4.344,11.156l-4.755,10.982l-9.528,21.973l-10.436,21.554c-3.545,7.152-6.795,14.469-10.774,21.393
				c-29.932,56.417-64.49,110.479-103.566,161.078c-9.255,13.058-19.83,25.059-29.937,37.44l-15.289,18.472
				c-2.59,3.042-5.006,6.239-7.738,9.156l-8.081,8.851l-32.336,35.413c-5.262,6.029-11.131,11.463-16.78,17.115l-17.067,16.836
				l-17.069,16.837l-8.561,8.392l-8.935,7.986l-35.746,31.949c-5.995,5.273-11.835,10.763-17.959,15.859l-18.347,15.317
				l-36.695,30.635l-37.036,30.218c-12.377,10.034-24.657,20.189-37.178,30.041c-24.906,19.877-49.927,39.607-75.165,59.052
				c-25.114,19.609-50.534,38.804-75.853,58.132l-76.526,57.178c-51.042,38.052-102.137,75.995-151.864,115.55
				c-12.575,9.728-24.629,20.042-36.87,30.159c-6.185,4.99-12.007,10.37-17.955,15.617c-5.891,5.308-11.937,10.463-17.706,15.897
				c-11.297,11.105-23.035,21.821-33.527,33.693l-8.098,8.703c-1.329,1.468-2.749,2.863-4.004,4.392l-3.737,4.612l-14.97,18.465
				l-0.057,0.069c-0.599,0.74-1.685,0.853-2.424,0.254c-0.713-0.578-0.841-1.611-0.313-2.346
				c18.705-25.967,40.138-49.837,62.935-72.235c5.689-5.609,11.644-10.925,17.455-16.404c5.866-5.417,11.617-10.976,17.71-16.124
				c12.063-10.441,23.967-21.101,36.353-31.139l18.422-15.266c6.18-5.039,12.47-9.926,18.701-14.896l18.735-14.853l18.872-14.656
				c25.132-19.59,50.474-38.864,75.727-58.249c50.534-38.731,101.059-77.405,151.137-116.635
				c50.129-39.168,99.616-79.122,148.781-119.468l36.598-30.591l18.299-15.295c6.107-5.091,11.919-10.458,17.893-15.675
				l35.622-31.509l8.907-7.878l8.529-8.279l17.01-16.609c45.941-43.719,88.092-91.265,127.659-140.764
				c39.778-49.387,75.151-102.318,106.022-157.743c4.096-6.804,7.443-14.003,11.227-20.976l11.059-21.085l10.166-21.527
				l5.081-10.772c1.621-3.622,3.111-7.301,4.673-10.949c3.037-7.333,6.304-14.583,9.156-21.992l8.379-22.308
				c5.104-15.029,10.357-30.08,13.911-45.583c0.021-0.116,0.131-0.194,0.248-0.174
				C3132.607,1885.97,3132.682,1886.089,3132.665,1886.202z"/>
		</g>
		<g>
			<path style="fill:#91B3FA;" d="M2704.829,552.435c98.996,261.465,614.117,1806.577-722.359,2549.48
				c0,0-596.172-930.071,682.464-2556.011C2676.119,531.68,2698.362,535.353,2704.829,552.435z"/>
			<path style="opacity:0.45;fill:#FFFFFF;" d="M2643.508,837.563c-11.281,88.645-24.348,176.939-38.168,265.147
				c-13.86,88.192-28.721,176.219-44.592,264.058c-31.737,175.678-67.338,350.659-108.225,524.411
				c-41.012,173.696-87.019,346.309-142.247,516.057c-27.346,84.951-57.734,168.936-91.261,251.66
				c-33.642,82.656-70.555,164.125-113.782,242.38c-2.554,4.623-8.315,6.254-12.867,3.642c-4.552-2.614-6.172-8.479-3.617-13.103
				l0.024-0.043l0.021-0.037c43.11-77.104,80.174-157.765,114.028-239.744c33.745-82.053,64.43-165.505,92.11-250.017
				c55.896-168.855,102.691-340.867,144.515-514.056c41.703-173.25,78.154-347.842,110.752-523.18
				c16.302-87.67,31.597-175.543,45.893-263.586c14.254-88.038,27.768-176.258,39.474-264.643l0.004-0.037
				c0.295-2.229,2.311-3.787,4.502-3.479C2642.257,833.299,2643.791,835.343,2643.508,837.563z"/>
		</g>
		<g>
			
				<linearGradient id="SVGID_00000106117281362393829210000016001595648405420975_" gradientUnits="userSpaceOnUse" x1="2417.5686" y1="681.0564" x2="1428.2615" y2="3014.8091">
				<stop  offset="0" style="stop-color:#4F52FF"/>
				<stop  offset="1" style="stop-color:#4042E2"/>
			</linearGradient>
			<polygon style="fill:url(#SVGID_00000106117281362393829210000016001595648405420975_);" points="2007.52,3157.379 
				1764.581,3157.379 1873.701,455 1888.781,456.897 			"/>
			
				<linearGradient id="SVGID_00000183225777985641708460000003834236876448190613_" gradientUnits="userSpaceOnUse" x1="1892.5575" y1="3173.7969" x2="1919.6816" y2="4096.0093">
				<stop  offset="0" style="stop-color:#4F52FF"/>
				<stop  offset="1" style="stop-color:#4042E2"/>
			</linearGradient>
			
				<rect x="1315.504" y="2839.016" style="fill:url(#SVGID_00000183225777985641708460000003834236876448190613_);" width="1137.767" height="114.032"/>
			
				<linearGradient id="SVGID_00000114772195175396907030000007484719565683622316_" gradientUnits="userSpaceOnUse" x1="2042.627" y1="2048.5278" x2="1961.255" y2="2557.1013">
				<stop  offset="0" style="stop-color:#4F52FF"/>
				<stop  offset="1" style="stop-color:#4042E2"/>
			</linearGradient>
			
				<rect x="1218.86" y="2953.048" style="fill:url(#SVGID_00000114772195175396907030000007484719565683622316_);" width="1339.841" height="114.032"/>
			
				<linearGradient id="SVGID_00000068645532677410318020000002625823050170265522_" gradientUnits="userSpaceOnUse" x1="1942.3192" y1="3551.6841" x2="2084.7202" y2="4602.7358">
				<stop  offset="0" style="stop-color:#4F52FF"/>
				<stop  offset="1" style="stop-color:#4042E2"/>
			</linearGradient>
			
				<rect x="1113.43" y="3067.08" style="fill:url(#SVGID_00000068645532677410318020000002625823050170265522_);" width="1541.916" height="114.032"/>
			
				<linearGradient id="SVGID_00000073681920358940437580000003271245292509738679_" gradientUnits="userSpaceOnUse" x1="2075.522" y1="519.8255" x2="1784.7399" y2="1205.7736">
				<stop  offset="0" style="stop-color:#4F52FF"/>
				<stop  offset="1" style="stop-color:#4042E2"/>
			</linearGradient>
			
				<rect x="1028.996" y="840.195" style="fill:url(#SVGID_00000073681920358940437580000003271245292509738679_);" width="1802.27" height="45.209"/>
			
				<linearGradient id="SVGID_00000020378642998060032730000004911610274687814565_" gradientUnits="userSpaceOnUse" x1="2585.0535" y1="-1688.8118" x2="2137.5117" y2="-746.2614">
				<stop  offset="0" style="stop-color:#09005D"/>
				<stop  offset="1" style="stop-color:#1A0F91"/>
			</linearGradient>
			<polygon style="fill:url(#SVGID_00000020378642998060032730000004911610274687814565_);" points="508.896,1678.451 
				494.777,1669.068 1059.74,818.865 1486.129,1669.962 1470.971,1677.557 1057.68,852.598 			"/>
			
				<linearGradient id="SVGID_00000043449083874390255110000011343110173663543458_" gradientUnits="userSpaceOnUse" x1="1066.6881" y1="799.1937" x2="1019.8794" y2="909.6143">
				<stop  offset="0" style="stop-color:#4F52FF"/>
				<stop  offset="1" style="stop-color:#4042E2"/>
			</linearGradient>
			<circle style="fill:url(#SVGID_00000043449083874390255110000011343110173663543458_);" cx="1043.284" cy="854.404" r="59.951"/>
			
				<linearGradient id="SVGID_00000153665696010767588470000012704117465691601793_" gradientUnits="userSpaceOnUse" x1="3907.1951" y1="-1061.0372" x2="3459.6504" y2="-118.4804">
				<stop  offset="0" style="stop-color:#09005D"/>
				<stop  offset="1" style="stop-color:#1A0F91"/>
			</linearGradient>
			<polygon style="fill:url(#SVGID_00000153665696010767588470000012704117465691601793_);" points="2256.159,1410.984 
				2244.212,1398.958 2807.953,838.9 3233.646,1399.846 3220.144,1410.097 2806.158,864.58 			"/>
			
				<linearGradient id="SVGID_00000128477411903538308340000001969791618135138475_" gradientUnits="userSpaceOnUse" x1="2023.8254" y1="684.4857" x2="1766.1484" y2="996.4102">
				<stop  offset="0" style="stop-color:#4F52FF"/>
				<stop  offset="1" style="stop-color:#4042E2"/>
			</linearGradient>
			
				<circle style="fill:url(#SVGID_00000128477411903538308340000001969791618135138475_);" cx="1871.699" cy="868.639" r="173.427"/>
			
				<linearGradient id="SVGID_00000103253689501833414350000007298837624093217459_" gradientUnits="userSpaceOnUse" x1="2815.9189" y1="802.862" x2="2769.1104" y2="913.2825">
				<stop  offset="0" style="stop-color:#4F52FF"/>
				<stop  offset="1" style="stop-color:#4042E2"/>
			</linearGradient>
			<circle style="fill:url(#SVGID_00000103253689501833414350000007298837624093217459_);" cx="2792.515" cy="858.072" r="59.951"/>
			<g>
				
					<linearGradient id="SVGID_00000001655682118220697510000012849076536915615130_" gradientUnits="userSpaceOnUse" x1="2363.4915" y1="1490.851" x2="2762.7061" y2="1027.4773" gradientTransform="matrix(0.9999 -0.01 0.01 0.9999 -42.6721 302.3942)">
					<stop  offset="0" style="stop-color:#FF928E"/>
					<stop  offset="1" style="stop-color:#FE7062"/>
				</linearGradient>
				
					<circle style="fill:url(#SVGID_00000001655682118220697510000012849076536915615130_);" cx="2738.002" cy="1292.703" r="297.614"/>
				
					<linearGradient id="SVGID_00000160174305721098203610000010789812192220280750_" gradientUnits="userSpaceOnUse" x1="2988.2883" y1="689.5096" x2="1807.8004" y2="2472.8904" gradientTransform="matrix(0.9999 -0.01 0.01 0.9999 -42.6721 302.3942)">
					<stop  offset="0" style="stop-color:#FF928E"/>
					<stop  offset="1" style="stop-color:#FE7062"/>
				</linearGradient>
				
					<circle style="fill:url(#SVGID_00000160174305721098203610000010789812192220280750_);" cx="2738.002" cy="1292.703" r="287.718"/>
				<path style="opacity:0.7;fill:#FFFFFF;" d="M2499.65,1185.197c-1.456,0.015-2.94-0.3-4.337-0.99
					c-4.77-2.348-6.729-8.118-4.382-12.877c46.187-93.84,139.798-152.777,244.303-153.827c16.678-0.167,33.394,1.167,49.683,3.964
					c5.234,0.897,8.751,5.87,7.854,11.105c-0.896,5.242-5.846,8.797-11.112,7.854c-15.15-2.591-30.706-3.835-46.232-3.679
					c-97.2,0.977-184.27,55.799-227.234,143.076C2506.536,1183.192,2503.169,1185.161,2499.65,1185.197z"/>
				
					<ellipse transform="matrix(0.7071 -0.7071 0.7071 0.7071 -114.6704 2320.978)" style="opacity:0.78;fill:#FFFFFF;" cx="2744.333" cy="1298.908" rx="243.519" ry="243.518"/>
				<g>
					
						<linearGradient id="SVGID_00000106862562548123848220000015896176377187244694_" gradientUnits="userSpaceOnUse" x1="1812.5216" y1="240.7416" x2="1746.4105" y2="825.5737" gradientTransform="matrix(0.9677 0.2521 -0.2521 0.9677 1130.6563 415.5054)">
						<stop  offset="0" style="stop-color:#FF928E"/>
						<stop  offset="1" style="stop-color:#FE7062"/>
					</linearGradient>
					<path style="fill:url(#SVGID_00000106862562548123848220000015896176377187244694_);" d="M2722.256,1480.173l-0.266-26.491
						c-27.628-0.828-55.011-7.072-74.497-15.371c-6.958-2.962-10.568-10.702-8.651-18.017l6.482-24.745
						c2.378-9.078,12.176-13.858,20.866-10.318c19.327,7.875,43.154,14.018,68.778,13.761c26.601-0.267,46.347-9.483,46.161-27.97
						c-0.167-16.68-15.596-26.443-52.666-35.99c-52.894-13.897-90.998-36.51-91.464-82.949
						c-0.422-41.93,29.916-74.249,83.031-83.349l-0.266-26.494c-0.085-8.525,6.755-15.506,15.281-15.592l15.566-0.156
						c8.524-0.085,15.505,6.757,15.59,15.281l0.239,23.787c25.565,0.766,44.211,4.949,59.026,9.988
						c7.591,2.581,11.805,10.688,9.785,18.447l-5.959,22.884c-2.299,8.825-11.656,13.74-20.217,10.6
						c-13.644-5.003-32.915-10.162-57.893-9.911c-31.561,0.317-40.445,13.482-40.328,25.205
						c0.146,14.426,19.18,24.154,60.335,36.368c58.788,16.994,83.378,41.094,83.817,84.828c0.403,40.126-28.99,76.494-86.61,86.091
						l0.299,29.648c0.086,8.525-6.755,15.505-15.28,15.59l-15.567,0.157C2729.323,1495.54,2722.342,1488.699,2722.256,1480.173z"/>
				</g>
			</g>
			<g>
				
					<linearGradient id="SVGID_00000172434821161785049230000001713717771097570195_" gradientUnits="userSpaceOnUse" x1="2658.1628" y1="2175.9192" x2="2712.4099" y2="1626.6624">
					<stop  offset="0" style="stop-color:#4F52FF"/>
					<stop  offset="1" style="stop-color:#4042E2"/>
				</linearGradient>
				<path style="fill:url(#SVGID_00000172434821161785049230000001713717771097570195_);" d="M2731.759,1906.889
					c269.712,0,488.356-218.644,488.356-488.355h-976.712C2243.404,1688.244,2462.048,1906.889,2731.759,1906.889z"/>
				
					<linearGradient id="SVGID_00000151511366561510317700000014720390005203331482_" gradientUnits="userSpaceOnUse" x1="2808.4983" y1="1115.9196" x2="3018.9519" y2="379.3325">
					<stop  offset="0" style="stop-color:#4F52FF"/>
					<stop  offset="1" style="stop-color:#4042E2"/>
				</linearGradient>
				<path style="fill:url(#SVGID_00000151511366561510317700000014720390005203331482_);" d="M3247.644,1442.607H2203.922
					c-5.833,0-10.605-4.772-10.605-10.605v-53.158c0-5.833,4.772-10.605,10.605-10.605h1043.722c5.833,0,10.605,4.772,10.605,10.605
					v53.158C3258.249,1437.835,3253.477,1442.607,3247.644,1442.607z"/>
			</g>
			<g>
				
					<linearGradient id="SVGID_00000144318210230623655370000003974217039702146220_" gradientUnits="userSpaceOnUse" x1="470.7105" y1="1130.8104" x2="771.6791" y2="781.4723" gradientTransform="matrix(0.9968 0.0801 -0.0801 0.9968 335.0902 331.0446)">
					<stop  offset="0" style="stop-color:#FF928E"/>
					<stop  offset="1" style="stop-color:#FE7062"/>
				</linearGradient>
				
					<circle style="fill:url(#SVGID_00000144318210230623655370000003974217039702146220_);" cx="1048.329" cy="1165.281" r="224.386"/>
				
					<linearGradient id="SVGID_00000176041535202708643360000012035249351458954118_" gradientUnits="userSpaceOnUse" x1="941.7456" y1="526.678" x2="51.7743" y2="1871.1709" gradientTransform="matrix(0.9968 0.0801 -0.0801 0.9968 335.0902 331.0446)">
					<stop  offset="0" style="stop-color:#FF928E"/>
					<stop  offset="1" style="stop-color:#FE7062"/>
				</linearGradient>
				
					<circle style="fill:url(#SVGID_00000176041535202708643360000012035249351458954118_);" cx="1048.329" cy="1165.281" r="216.925"/>
				<path style="opacity:0.7;fill:#FFFFFF;" d="M876.795,1066.648c-0.833-0.067-1.666-0.323-2.43-0.791
					c-2.607-1.591-3.43-4.992-1.84-7.594c40.712-66.764,114.391-104.352,192.278-98.096c12.413,0.997,24.77,3.116,36.731,6.302
					c2.948,0.784,4.703,3.811,3.919,6.759c-0.786,2.948-3.793,4.747-6.764,3.919c-11.32-3.01-23.018-5.017-34.772-5.961
					c-73.703-5.919-143.426,29.652-181.955,92.828C880.838,1065.857,878.81,1066.81,876.795,1066.648z"/>
				
					<ellipse transform="matrix(0.7071 -0.7071 0.7071 0.7071 -519.2596 1087.1381)" style="opacity:0.78;fill:#FFFFFF;" cx="1052.662" cy="1170.371" rx="183.6" ry="183.6"/>
				<g>
					
						<linearGradient id="SVGID_00000101824163270868548810000005223306407792648634_" gradientUnits="userSpaceOnUse" x1="-76.9373" y1="531.8083" x2="-528.2562" y2="1289.498" gradientTransform="matrix(0.9411 0.3382 -0.3382 0.9411 1493.5292 549.0061)">
						<stop  offset="0" style="stop-color:#FF928E"/>
						<stop  offset="1" style="stop-color:#FE7062"/>
					</linearGradient>
					<path style="fill:url(#SVGID_00000101824163270868548810000005223306407792648634_);" d="M1023.776,1304.981l1.599-19.911
						c-20.69-2.498-40.826-9.046-54.895-16.6c-5.023-2.697-7.208-8.754-5.272-14.117l6.547-18.14
						c2.403-6.654,10.085-9.579,16.369-6.331c13.978,7.226,31.452,13.458,50.71,15.005c19.991,1.606,35.445-3.975,36.561-17.869
						c1.007-12.536-9.914-20.916-37.102-30.601c-38.773-14.027-65.849-33.595-63.046-68.496
						c2.531-31.514,27.505-53.721,68.006-56.946l1.599-19.913c0.514-6.408,6.125-11.185,12.533-10.67l11.698,0.939
						c6.408,0.515,11.185,6.126,10.67,12.534l-1.436,17.878c19.144,2.311,32.861,6.719,43.643,11.509
						c5.524,2.453,8.138,8.826,6.095,14.515l-6.029,16.779c-2.325,6.469-9.685,9.525-15.901,6.586
						c-9.905-4.683-24.024-9.865-42.798-11.373c-23.72-1.905-31.285,7.376-31.992,16.187c-0.871,10.843,12.761,19.44,42.834,31.405
						c42.989,16.753,59.816,36.52,57.177,69.388c-2.422,30.158-26.962,55.469-70.88,58.764l-1.789,22.282
						c-0.515,6.407-6.125,11.184-12.533,10.67l-11.7-0.939C1028.038,1317,1023.261,1311.388,1023.776,1304.981z"/>
				</g>
			</g>
			<g>
				
					<linearGradient id="SVGID_00000030464166545822705740000004390548850202058394_" gradientUnits="userSpaceOnUse" x1="642.414" y1="1736.8376" x2="1008.1379" y2="1312.3373" gradientTransform="matrix(0.9975 -0.0707 0.0707 0.9975 -308.1674 233.8526)">
					<stop  offset="0" style="stop-color:#FF928E"/>
					<stop  offset="1" style="stop-color:#FE7062"/>
				</linearGradient>
				
					<circle style="fill:url(#SVGID_00000030464166545822705740000004390548850202058394_);" cx="796.995" cy="1462.558" r="272.661"/>
				
					<linearGradient id="SVGID_00000132048768963132052370000017187325917537438108_" gradientUnits="userSpaceOnUse" x1="1214.7958" y1="1002.7219" x2="133.3398" y2="2636.4934" gradientTransform="matrix(0.9975 -0.0707 0.0707 0.9975 -308.1674 233.8526)">
					<stop  offset="0" style="stop-color:#FF928E"/>
					<stop  offset="1" style="stop-color:#FE7062"/>
				</linearGradient>
				
					<circle style="fill:url(#SVGID_00000132048768963132052370000017187325917537438108_);" cx="796.995" cy="1462.558" r="263.595"/>
				<path style="opacity:0.7;fill:#FFFFFF;" d="M572.789,1373.765c-0.765,0.054-1.554-0.063-2.31-0.382
					c-2.58-1.081-3.795-4.049-2.713-6.624c36.467-87.067,117.568-145.299,211.657-151.972c15.015-1.065,30.148-0.78,44.978,0.856
					c2.781,0.303,4.787,2.803,4.481,5.586c-0.306,2.778-2.801,4.814-5.587,4.476c-14.227-1.564-28.747-1.838-43.155-0.816
					c-90.254,6.401-168.051,62.262-203.035,145.778C576.342,1372.491,574.637,1373.634,572.789,1373.765z"/>
				
					<ellipse transform="matrix(0.7071 -0.7071 0.7071 0.7071 -802.717 997.8314)" style="opacity:0.78;fill:#FFFFFF;" cx="803.13" cy="1467.881" rx="223.101" ry="223.101"/>
				<g>
					
						<linearGradient id="SVGID_00000178168223765678346340000012465766440773949878_" gradientUnits="userSpaceOnUse" x1="812.8459" y1="1240.2776" x2="797.5894" y2="1708.1393">
						<stop  offset="0" style="stop-color:#FF928E"/>
						<stop  offset="1" style="stop-color:#FE7062"/>
					</linearGradient>
					<path style="fill:url(#SVGID_00000178168223765678346340000012465766440773949878_);" d="M793.025,1634.87l-1.717-24.211
						c-25.311,0.779-50.698-3.407-68.98-9.911c-6.528-2.322-10.259-9.199-8.914-15.997l4.551-22.988
						c1.669-8.433,10.363-13.35,18.508-10.596c18.111,6.126,40.243,10.419,63.661,8.758c24.31-1.724,41.856-11.252,40.658-28.146
						c-1.081-15.244-15.733-23.315-50.164-29.983c-49.142-9.766-85.245-28.326-88.255-70.766
						c-2.718-38.321,23.227-69.563,71.292-80.838l-1.717-24.214c-0.553-7.791,5.316-14.555,13.106-15.108l14.225-1.009
						c7.792-0.552,14.556,5.315,15.108,13.106l1.542,21.74c23.421-0.721,40.705,2.066,54.533,5.851
						c7.085,1.938,11.39,9.117,9.974,16.324l-4.177,21.259c-1.61,8.197-9.894,13.212-17.898,10.818
						c-12.755-3.817-30.664-7.462-53.492-5.843c-28.843,2.046-36.234,14.578-35.475,25.292
						c0.935,13.185,18.883,21.022,57.196,29.901c54.706,12.27,78.532,32.942,81.367,72.91c2.601,36.672-22.255,71.563-74.411,83.545
						l1.922,27.095c0.552,7.792-5.315,14.556-13.107,15.108l-14.227,1.009C800.342,1648.53,793.577,1642.662,793.025,1634.87z"/>
				</g>
			</g>
			<g>
				
					<linearGradient id="SVGID_00000033345668285054244440000008390538846559446954_" gradientUnits="userSpaceOnUse" x1="673.8879" y1="1450.8545" x2="1050.2146" y2="1014.0472" gradientTransform="matrix(0.9999 0.0141 -0.0141 0.9999 169.2042 475.5803)">
					<stop  offset="0" style="stop-color:#FF928E"/>
					<stop  offset="1" style="stop-color:#FE7062"/>
				</linearGradient>
				
					<circle style="fill:url(#SVGID_00000033345668285054244440000008390538846559446954_);" cx="1212.741" cy="1495.619" r="280.566"/>
				
					<linearGradient id="SVGID_00000084519049449368539260000013912631590669899706_" gradientUnits="userSpaceOnUse" x1="1262.8636" y1="695.4556" x2="150.0556" y2="2376.5913" gradientTransform="matrix(0.9999 0.0141 -0.0141 0.9999 169.2042 475.5803)">
					<stop  offset="0" style="stop-color:#FF928E"/>
					<stop  offset="1" style="stop-color:#FE7062"/>
				</linearGradient>
				
					<circle style="fill:url(#SVGID_00000084519049449368539260000013912631590669899706_);" cx="1212.741" cy="1495.619" r="271.236"/>
				<path style="opacity:0.7;fill:#FFFFFF;" d="M990.619,1384.865c-0.766-0.011-1.543-0.195-2.269-0.576
					c-2.479-1.296-3.437-4.356-2.142-6.831c44.961-86.036,133.144-138.628,230.139-137.258c15.477,0.218,30.958,1.832,46.015,4.799
					c2.745,0.538,4.532,3.2,3.991,5.946c-0.541,2.742-3.182,4.545-5.947,3.986c-14.462-2.845-29.335-4.395-44.203-4.605
					c-93.15-1.315-177.84,49.195-221.021,131.819C994.268,1383.898,992.471,1384.891,990.619,1384.865z"/>
				
					<ellipse transform="matrix(0.7071 -0.7071 0.7071 0.7071 -704.8901 1301.4686)" style="opacity:0.78;fill:#FFFFFF;" cx="1218.567" cy="1501.612" rx="229.568" ry="229.568"/>
				<g>
					
						<linearGradient id="SVGID_00000147906962278518042550000009632857874649910941_" gradientUnits="userSpaceOnUse" x1="215.8374" y1="377.7107" x2="48.0123" y2="1405.0082" gradientTransform="matrix(0.9613 0.2754 -0.2754 0.9613 1338.6305 616.8783)">
						<stop  offset="0" style="stop-color:#FF928E"/>
						<stop  offset="1" style="stop-color:#FE7062"/>
					</linearGradient>
					<path style="fill:url(#SVGID_00000147906962278518042550000009632857874649910941_);" d="M1193.631,1671.941l0.353-24.974
						c-26.02-1.41-51.683-7.918-69.859-16.182c-6.49-2.951-9.716-10.327-7.743-17.179l6.673-23.172
						c2.448-8.501,11.791-12.784,19.899-9.249c18.036,7.861,40.351,14.195,64.506,14.536c25.075,0.354,43.895-7.883,44.141-25.309
						c0.222-15.724-14.095-25.277-48.814-35.119c-49.533-14.302-84.929-36.482-84.31-80.258
						c0.558-39.527,29.886-69.293,80.15-76.659l0.353-24.976c0.114-8.036,6.72-14.459,14.757-14.345l14.673,0.207
						c8.037,0.113,14.459,6.72,14.345,14.756l-0.317,22.424c24.077,1.304,41.554,5.672,55.402,10.758
						c7.095,2.606,10.882,10.341,8.801,17.607l-6.138,21.431c-2.367,8.264-11.298,12.683-19.295,9.53
						c-12.744-5.026-30.788-10.327-54.334-10.66c-29.751-0.42-38.424,11.784-38.58,22.835c-0.192,13.6,17.526,23.201,56.032,35.649
						c55.017,17.355,77.642,40.629,77.06,81.855c-0.534,37.825-29.063,71.43-83.584,79.163l-0.395,27.948
						c-0.113,8.036-6.72,14.459-14.757,14.346l-14.675-0.207C1199.941,1686.584,1193.518,1679.977,1193.631,1671.941z"/>
				</g>
			</g>
			<g>
				
					<linearGradient id="SVGID_00000109723757583738430870000017773514846395662993_" gradientUnits="userSpaceOnUse" x1="1066.3352" y1="2264.3994" x2="1012.0877" y2="1830.4183">
					<stop  offset="0" style="stop-color:#4F52FF"/>
					<stop  offset="1" style="stop-color:#4042E2"/>
				</linearGradient>
				<path style="fill:url(#SVGID_00000109723757583738430870000017773514846395662993_);" d="M990.193,2128.211
					c269.712,0,488.356-218.644,488.356-488.356H501.838C501.838,1909.567,720.482,2128.211,990.193,2128.211z"/>
				
					<linearGradient id="SVGID_00000146484925194226005950000016212443144384203707_" gradientUnits="userSpaceOnUse" x1="1177.4579" y1="1290.1318" x2="1611.5999" y2="533.884">
					<stop  offset="0" style="stop-color:#4F52FF"/>
					<stop  offset="1" style="stop-color:#4042E2"/>
				</linearGradient>
				<path style="fill:url(#SVGID_00000146484925194226005950000016212443144384203707_);" d="M1506.078,1663.93H462.356
					c-5.833,0-10.605-4.772-10.605-10.605v-53.158c0-5.833,4.772-10.605,10.605-10.605h1043.722c5.833,0,10.605,4.772,10.605,10.605
					v53.158C1516.683,1659.157,1511.911,1663.93,1506.078,1663.93z"/>
			</g>
		</g>
		<g>
			
				<linearGradient id="SVGID_00000035504319342171932170000005663015603384286864_" gradientUnits="userSpaceOnUse" x1="-4986.9023" y1="2373.739" x2="-4827.9204" y2="2373.739" gradientTransform="matrix(1 0 0 1 5585.3584 0)">
				<stop  offset="0" style="stop-color:#FEBBBA"/>
				<stop  offset="1" style="stop-color:#FF928E"/>
			</linearGradient>
			<path style="fill:url(#SVGID_00000035504319342171932170000005663015603384286864_);" d="M655.678,2291.802
				c-16.31,17.409-40.324,32.452-57.222,41.832c25.237,31.194,59.385,62.433,104.59,93.009l12.938,29.033l41.454-49.683
				C757.438,2405.993,683.055,2368.977,655.678,2291.802z"/>
			
				<linearGradient id="SVGID_00000068666279641521299140000000242068235921778602_" gradientUnits="userSpaceOnUse" x1="962.0463" y1="2844.2207" x2="768.0387" y2="3331.5498">
				<stop  offset="0" style="stop-color:#09005D"/>
				<stop  offset="1" style="stop-color:#1A0F91"/>
			</linearGradient>
			<path style="fill:url(#SVGID_00000068666279641521299140000000242068235921778602_);" d="M877.521,3234.116
				c0.014-0.888-0.045-1.787-0.273-2.693c-13.427-53.231-80.067-86.386-80.067-86.386l-26.407,2.069
				c-15.184,46.918-13.233,75.693-10.794,88.509c0.067,0.359,0.176,0.701,0.271,1.049
				C782.034,3238.609,826.871,3239.881,877.521,3234.116z"/>
			<path style="fill:#7D97F4;" d="M760.25,3236.664c1.176,4.28,4.336,7.612,8.381,8.463c30.987,6.517,80.239,1.272,100.917-1.431
				c4.563-0.596,7.897-4.816,7.973-9.579C826.871,3239.881,782.034,3238.609,760.25,3236.664z"/>
			
				<linearGradient id="SVGID_00000158006293079703157710000007439792020362819233_" gradientUnits="userSpaceOnUse" x1="-4793.896" y1="3055.9519" x2="-4816.6675" y2="3254.6853" gradientTransform="matrix(1 0 0 1 5585.3584 0)">
				<stop  offset="0" style="stop-color:#FEBBBA"/>
				<stop  offset="1" style="stop-color:#FF928E"/>
			</linearGradient>
			<path style="fill:url(#SVGID_00000158006293079703157710000007439792020362819233_);" d="M760.154,3107.774l11.184,53.841
				c0.82,3.945,3.851,6.899,7.523,7.244c4.494,0.422,10.893,0.669,17.327-0.275c5.77-0.848,9.788-6.712,8.765-13.004l-7.774-47.806
				H760.154z"/>
			<path style="fill:#7D97F4;" d="M991.887,3236.123c-29.165-0.817-44.25-4.251-52.048-7.439c-0.019,2.9-0.002,5.851,0.092,8.909
				c0.101,3.266,2.52,5.875,5.495,5.855l160.134-1.033c5.111-0.034,8.097-5.96,5.882-10.646
				C1090.446,3233.503,1036.971,3237.384,991.887,3236.123z"/>
			
				<linearGradient id="SVGID_00000052071492201860855600000013917715772231345842_" gradientUnits="userSpaceOnUse" x1="1143.1051" y1="2916.3018" x2="949.0975" y2="3403.6304">
				<stop  offset="0" style="stop-color:#09005D"/>
				<stop  offset="1" style="stop-color:#1A0F91"/>
			</linearGradient>
			<path style="fill:url(#SVGID_00000052071492201860855600000013917715772231345842_);" d="M1111.442,3231.769
				c-0.193-0.408-0.359-0.823-0.634-1.208c-14.142-19.761-50.161-59.109-121.335-76.174l-34.144-1.078
				c0,0-15.203,26.426-15.49,75.375c7.798,3.188,22.883,6.622,52.048,7.439C1036.971,3237.384,1090.446,3233.503,1111.442,3231.769z
				"/>
			
				<linearGradient id="SVGID_00000153669226514531422960000012208239895448501170_" gradientUnits="userSpaceOnUse" x1="-4608.4053" y1="3077.2058" x2="-4631.1763" y2="3275.939" gradientTransform="matrix(1 0 0 1 5585.3584 0)">
				<stop  offset="0" style="stop-color:#FEBBBA"/>
				<stop  offset="1" style="stop-color:#FF928E"/>
			</linearGradient>
			<path style="fill:url(#SVGID_00000153669226514531422960000012208239895448501170_);" d="M948.998,3101.563
				c0.379,2.545,5.059,41.227,6.871,56.225c0.431,3.564,3.012,6.322,6.267,6.71c5.814,0.695,15.223,1.327,23.453-0.36
				c4.44-0.91,7.654-5.176,7.654-10.136v-60.719L948.998,3101.563z"/>
			
				<linearGradient id="SVGID_00000047770826584674335170000014555053467585779599_" gradientUnits="userSpaceOnUse" x1="-4337.8398" y1="2168.4304" x2="-5066.1567" y2="3298.5784" gradientTransform="matrix(1 0 0 1 5585.3584 0)">
				<stop  offset="0" style="stop-color:#4F52FF"/>
				<stop  offset="1" style="stop-color:#4042E2"/>
			</linearGradient>
			<path style="fill:url(#SVGID_00000047770826584674335170000014555053467585779599_);" d="M921.605,2395.642
				c0,0,82.353,312.972,80.864,706.816c-0.027,7.181-5.069,13.377-12.095,14.858c-10.354,2.181-25.575,4.77-38.176,4.417
				c-6.726-0.189-12.349-5.177-13.481-11.811c-11.547-67.716-77.814-449.2-115.57-511.133c0,0-24.841,339.766-16.9,516.039
				c0.197,4.384-3.013,8.185-7.371,8.689c-6.611,0.765-17.188,1.345-30.649-0.085c-5.109-0.542-9.232-4.405-9.962-9.491
				c-8.225-57.311-55.566-398.446-53.553-644.186c0.114-13.858,36.648-74.113,36.648-74.113H921.605z"/>
			
				<linearGradient id="SVGID_00000169520232822329726320000003443875912524616605_" gradientUnits="userSpaceOnUse" x1="2609.7839" y1="-9100.543" x2="2413.1362" y2="-8829.3047" gradientTransform="matrix(1 0 0 1 6353.127 0)">
				<stop  offset="0" style="stop-color:#FF928E"/>
				<stop  offset="1" style="stop-color:#FE7062"/>
			</linearGradient>
			<path style="fill:url(#SVGID_00000169520232822329726320000003443875912524616605_);" d="M1036.138,2016.869
				c-13.365-16.754-25.075-34.712-34.869-53.216c-13.679-25.844-1.1,16.73-4.838-12.455
				c-102.439-73.922-256.691-36.506-316.358-28.989c-19.565,2.464-37.458,12.109-50.351,27.03
				c-51.129,59.169-163.323,221.162-31.266,384.395c16.898-9.38,40.913-24.424,57.222-41.832
				c-14.61-41.184-15.806-93.815,14.812-158.354c1.047,5.116,2.34,10.18,3.912,15.164c42.201,133.696,44.453,244.952,44.359,270.593
				c-0.013,3.482,2.077,6.616,5.31,7.912c55.541,22.256,162.456,9.01,198.346,3.662c6.58-0.981,11.007-7.107,10.098-13.698
				c-17.614-127.61,72.784-337.536,96.66-390.115C1030.891,2023.183,1033.266,2019.778,1036.138,2016.869z"/>
			
				<linearGradient id="SVGID_00000059303948510202068350000001742853758023469972_" gradientUnits="userSpaceOnUse" x1="-4743.5894" y1="1785.4966" x2="-4830.5352" y2="2161.2278" gradientTransform="matrix(1 0 0 1 5585.3584 0)">
				<stop  offset="0" style="stop-color:#FEBBBA"/>
				<stop  offset="1" style="stop-color:#FF928E"/>
			</linearGradient>
			<path style="fill:url(#SVGID_00000059303948510202068350000001742853758023469972_);" d="M776.07,1814.755l-10.705,109.364
				c0,0,61.524,18.531,106.271-13.042l-31.456-99.395L776.07,1814.755z"/>
			<g>
				
					<linearGradient id="SVGID_00000030476914975343212340000011593512576190644120_" gradientUnits="userSpaceOnUse" x1="965.7159" y1="1676.6736" x2="1298.0425" y2="1434.55">
					<stop  offset="0" style="stop-color:#FEBBBA"/>
					<stop  offset="1" style="stop-color:#FF928E"/>
				</linearGradient>
				<path style="fill:url(#SVGID_00000030476914975343212340000011593512576190644120_);" d="M847.459,1690.105
					c1.481,1.394,62.492,121.207,62.492,121.207l-69.152,33.383l-74.698-104.967C766.101,1739.728,822.669,1666.77,847.459,1690.105
					z"/>
				
					<linearGradient id="SVGID_00000041297067330062461890000010955934832487932591_" gradientUnits="userSpaceOnUse" x1="-4592.1987" y1="-4129.332" x2="-4407.9404" y2="-4129.332" gradientTransform="matrix(0.6854 -0.7281 0.7281 0.6854 6936.3574 1318.7853)">
					<stop  offset="0" style="stop-color:#09005D"/>
					<stop  offset="1" style="stop-color:#1A0F91"/>
				</linearGradient>
				<path style="fill:url(#SVGID_00000041297067330062461890000010955934832487932591_);" d="M796.698,1742.635
					c-1.234,3.192-0.931,6.754,0.83,9.688l34.489,57.492c0.524,0.873,1.147,1.661,1.892,2.354
					c4.105,3.821,18.153,14.936,29.012-0.196c9.256-12.898,17.94-24.624,27.246-29.46c5.434-2.825,12.121-0.57,14.88,4.898
					c5.682,11.263,16.689,34.221,23.604,55.991c1.733,5.456-1.083,11.315-6.39,13.464c-14.002,5.673-41.677,15.932-66.234,19.321
					c-4.034,0.557-8.028-1.145-10.429-4.434c-10.566-14.474-40.344-54.923-50.508-65.049c-9.442-9.406-26.869-5.859-34.721-3.603
					c-2.98,0.856-6.155,0.444-8.811-1.156c-7.968-4.799-21.871-16.748-9.152-36.982c3.163-5.03,1.55-11.731-3.414-14.996
					c-8.895-5.851-18.547-16.835-9.351-34.62c9.31-18.006,25.934-19.622,37.257-18.239c5.01,0.613,10.096-2.015,12.018-6.681
					c0.854-2.076,2.545-3.845,5.691-4.483c5.934-1.204,9.83-6.631,8.665-12.573c-1.997-10.189-0.493-23.425,15.775-32.37
					c29.837-16.405,55.973,10.325,62.618,32.889c6.646,22.565-26.714,38.511-47.699,41.172
					C808.55,1717.018,800.099,1733.842,796.698,1742.635z"/>
				
					<linearGradient id="SVGID_00000071559051602499161350000017862499952184924058_" gradientUnits="userSpaceOnUse" x1="-4700.314" y1="-4016.7344" x2="-4576.5898" y2="-4143.6724" gradientTransform="matrix(0.6854 -0.7281 0.7281 0.6854 6936.3574 1318.7853)">
					<stop  offset="0" style="stop-color:#FEBBBA"/>
					<stop  offset="1" style="stop-color:#FF928E"/>
				</linearGradient>
				<path style="fill:url(#SVGID_00000071559051602499161350000017862499952184924058_);" d="M808.044,1827.819
					c0,0-13.267-38.821-30.25-37.396c-16.984,1.425-30.349,18.344-9.302,37.363C794.672,1851.443,808.044,1827.819,808.044,1827.819
					z"/>
			</g>
			
				<linearGradient id="SVGID_00000120544730341768273530000001988541804678076330_" gradientUnits="userSpaceOnUse" x1="-4816.811" y1="1856.286" x2="-4996.7979" y2="2186.9597" gradientTransform="matrix(1 0 0 1 5585.3584 0)">
				<stop  offset="0" style="stop-color:#E1473D"/>
				<stop  offset="1" style="stop-color:#E9605A"/>
			</linearGradient>
			<path style="fill:url(#SVGID_00000120544730341768273530000001988541804678076330_);" d="M664.89,2123.449
				c-22.385-61.263-14.265-135.24-14.18-135.979l6.168,0.704c-0.082,0.727-8.03,73.284,13.846,133.143L664.89,2123.449z"/>
			
				<linearGradient id="SVGID_00000010306854808972765090000017450113500542054806_" gradientUnits="userSpaceOnUse" x1="-4746.2974" y1="2471.8879" x2="-4807.3677" y2="2580.5723" gradientTransform="matrix(1 0 0 1 5585.3584 0)">
				<stop  offset="0" style="stop-color:#09005D"/>
				<stop  offset="1" style="stop-color:#1A0F91"/>
			</linearGradient>
			<path style="fill:url(#SVGID_00000010306854808972765090000017450113500542054806_);" d="M820.12,2590.811
				c-1.38,0-2.642-0.926-3.002-2.326c-6.83-26.34-57.969-55.286-58.484-55.575c-1.495-0.839-2.029-2.731-1.188-4.228
				c0.839-1.495,2.722-2.03,4.227-1.189c2.198,1.233,53.965,30.537,61.455,59.433c0.43,1.66-0.567,3.355-2.226,3.784
				C820.642,2590.779,820.378,2590.811,820.12,2590.811z"/>
			<g>
				
					<linearGradient id="SVGID_00000110431214685811779050000007530184735883342738_" gradientUnits="userSpaceOnUse" x1="2716.6052" y1="-9023.1074" x2="2519.958" y2="-8751.8691" gradientTransform="matrix(1 0 0 1 6353.127 0)">
					<stop  offset="0" style="stop-color:#FF928E"/>
					<stop  offset="1" style="stop-color:#FE7062"/>
				</linearGradient>
				<path style="fill:url(#SVGID_00000110431214685811779050000007530184735883342738_);" d="M1244.074,2051.264
					c-115.859,17.384-191.373-55.719-247.643-100.066c-74.292-58.548-132.105-30.064-132.105-30.064l79.228,151.208
					c118.317,111.556,239.628,86.782,316.106,50.633C1260.837,2093.769,1253.033,2069.327,1244.074,2051.264z"/>
				
					<linearGradient id="SVGID_00000023966939340231429170000006530799630287502238_" gradientUnits="userSpaceOnUse" x1="-4828.4985" y1="1776.316" x2="-5360.5625" y2="2457.0449" gradientTransform="matrix(1 0 0 1 6353.127 0)">
					<stop  offset="0" style="stop-color:#FEBBBA"/>
					<stop  offset="1" style="stop-color:#FF928E"/>
				</linearGradient>
				<path style="fill:url(#SVGID_00000023966939340231429170000006530799630287502238_);" d="M1406.913,1982.142l-38.421,20.676
					c-46.079,28.055-87.312,42.879-124.418,48.446c8.959,18.063,16.763,42.505,15.586,71.711
					c48.685-23.012,79.207-50.633,79.207-50.633C1425.905,2020.443,1406.913,1982.142,1406.913,1982.142z"/>
			</g>
			
				<linearGradient id="SVGID_00000040567660653192379500000001766403235110177925_" gradientUnits="userSpaceOnUse" x1="-4757.291" y1="1831.9702" x2="-5289.3564" y2="2512.7009" gradientTransform="matrix(1 0 0 1 6353.127 0)">
				<stop  offset="0" style="stop-color:#FEBBBA"/>
				<stop  offset="1" style="stop-color:#FF928E"/>
			</linearGradient>
			<path style="fill:url(#SVGID_00000040567660653192379500000001766403235110177925_);" d="M1520.102,2036.285
				c-2.48-8.246-8.577-14.917-16.567-18.13l-77.975-31.357c0,0-1.177-10.001,16.475-16.796
				c17.653-6.795,13.526-26.566,13.526-26.566s-24.116,11.001-59.422,28.449c-20.191,9.978-31.52,27.597-37.527,40.858
				l20.072,26.398c48.058,14.437,96.688,17.198,145.731,11.471L1520.102,2036.285z"/>
		</g>
		<g>
			
				<linearGradient id="SVGID_00000102511254157955600140000002084365487373705631_" gradientUnits="userSpaceOnUse" x1="2734.9221" y1="2190.187" x2="2545.9451" y2="2190.187">
				<stop  offset="0" style="stop-color:#FEBBBA"/>
				<stop  offset="1" style="stop-color:#FF928E"/>
			</linearGradient>
			<path style="fill:url(#SVGID_00000102511254157955600140000002084365487373705631_);" d="M2545.945,2151.474
				c0,0,70.191,161.98,113.386,140.383c43.194-21.598,75.591-199.776,75.591-199.776S2599.938,2059.685,2545.945,2151.474z"/>
			
				<linearGradient id="SVGID_00000021120004480105263260000001611695288202626454_" gradientUnits="userSpaceOnUse" x1="2599.3154" y1="3204.0903" x2="2799.1653" y2="3204.0903">
				<stop  offset="0" style="stop-color:#4F52FF"/>
				<stop  offset="1" style="stop-color:#4042E2"/>
			</linearGradient>
			<path style="fill:url(#SVGID_00000021120004480105263260000001611695288202626454_);" d="M2790.334,3156.65
				c0,0,5.868,33.219,8.744,66.102c1.125,12.851-8.784,24.01-21.672,24.548c-43.791,1.823-137.462,5.37-171.074,3.87
				c-5.053-0.226-8.356-5.399-6.487-10.098c1.567-3.938,4.591-7.122,8.44-8.892l154.728-71.112L2790.334,3156.65z"/>
			
				<linearGradient id="SVGID_00000098916608786424502230000009642497453559996070_" gradientUnits="userSpaceOnUse" x1="-416.8426" y1="3156.5132" x2="-366.514" y2="3156.5132" gradientTransform="matrix(-1 0 0 1 2378.2981 0)">
				<stop  offset="0" style="stop-color:#FEBBBA"/>
				<stop  offset="1" style="stop-color:#FF928E"/>
			</linearGradient>
			<path style="fill:url(#SVGID_00000098916608786424502230000009642497453559996070_);" d="M2795.141,3137.132l-4.714,39.735
				c0,0-27.104,12.617-45.615-1.591l11.224-44.281L2795.141,3137.132z"/>
			
				<linearGradient id="SVGID_00000004528953795589932390000014067666289264183709_" gradientUnits="userSpaceOnUse" x1="-473.7089" y1="3348.0132" x2="-439.359" y2="2426.3093" gradientTransform="matrix(-1 0 0 1 2378.2981 0)">
				<stop  offset="0" style="stop-color:#09005D"/>
				<stop  offset="1" style="stop-color:#1A0F91"/>
			</linearGradient>
			<path style="fill:url(#SVGID_00000004528953795589932390000014067666289264183709_);" d="M2791.598,2390.11
				c2.036,10.376,10.93,517.809-43.31,745.207c-0.884,3.71,0.996,7.534,4.528,8.978c8.319,3.399,24.628,8.321,44.174,8.977
				c6.053,0.203,11.48-3.73,13.187-9.541c15.505-52.759,89.8-317.101,99.492-569.619c10.83-282.164,0-9.607,0-9.607l-6.351-174.417
				L2791.598,2390.11z"/>
			
				<linearGradient id="SVGID_00000100364517206407431840000015927865314765019280_" gradientUnits="userSpaceOnUse" x1="2906.2451" y1="3214.4902" x2="2986.9875" y2="3214.4902">
				<stop  offset="0" style="stop-color:#4F52FF"/>
				<stop  offset="1" style="stop-color:#4042E2"/>
			</linearGradient>
			<path style="fill:url(#SVGID_00000100364517206407431840000015927865314765019280_);" d="M2968.321,3173.98
				c0,0,9.341,16.77,18.384,61.333c1.632,8.048-3.99,15.751-12.163,16.554c-14.46,1.422-36.72,3.25-54.552,3.127
				c-8.219-0.056-14.634-7.214-13.644-15.374c1.975-16.265,8.129-42.953,27.136-63.753L2968.321,3173.98z"/>
			
				<linearGradient id="SVGID_00000098901863193375668570000000765474000476778171_" gradientUnits="userSpaceOnUse" x1="-598.2267" y1="3153.9324" x2="-554.7731" y2="3153.9324" gradientTransform="matrix(-1 0 0 1 2378.2981 0)">
				<stop  offset="0" style="stop-color:#FEBBBA"/>
				<stop  offset="1" style="stop-color:#FF928E"/>
			</linearGradient>
			<path style="fill:url(#SVGID_00000098901863193375668570000000765474000476778171_);" d="M2976.525,3122.873l-11.015,60.089
				c0,0-10.892,8.102-32.438,2.229l5.258-64.652L2976.525,3122.873z"/>
			
				<linearGradient id="SVGID_00000013172441915793994080000002443651185234470582_" gradientUnits="userSpaceOnUse" x1="-558.6613" y1="3344.8474" x2="-524.3115" y2="2423.1455" gradientTransform="matrix(-1 0 0 1 2378.2981 0)">
				<stop  offset="0" style="stop-color:#09005D"/>
				<stop  offset="1" style="stop-color:#1A0F91"/>
			</linearGradient>
			<path style="fill:url(#SVGID_00000013172441915793994080000002443651185234470582_);" d="M3006.284,2405.681
				c44.362,267.725-9.623,661.707-27.83,738.818c-1.114,4.721-4.924,8.338-9.71,9.131c-8.126,1.347-21.506,2.447-34.697-1.385
				c-4.545-1.32-7.738-5.419-7.924-10.149c-2.443-62.343,1.954-445.064-39.38-596.317c-2.096-7.665-6.777-14.35-13.253-18.954
				l-80.229-57.036l-6.15-92.193L3006.284,2405.681z"/>
			<g>
				
					<linearGradient id="SVGID_00000000214030519677310620000006832919732305823129_" gradientUnits="userSpaceOnUse" x1="3576.325" y1="1472.2644" x2="3318.6484" y2="1723.1599">
					<stop  offset="0" style="stop-color:#FF928E"/>
					<stop  offset="1" style="stop-color:#FE7062"/>
				</linearGradient>
				<path style="fill:url(#SVGID_00000000214030519677310620000006832919732305823129_);" d="M2718.724,1908.504
					c161.98-16.198,284.518,24.795,284.518,24.795c39.628,231.226,6.929,497.93,6.929,497.93
					c-102.922,26.991-219.023-16.503-219.023-16.503c-17.105-96.646-96.919-368.643-96.919-368.643
					C2629.274,2038.021,2677.917,1912.585,2718.724,1908.504z"/>
			</g>
			
				<linearGradient id="SVGID_00000136380906228831919320000005921587547602771110_" gradientUnits="userSpaceOnUse" x1="3610.863" y1="1507.7379" x2="3353.187" y2="1758.6331">
				<stop  offset="0" style="stop-color:#FF928E"/>
				<stop  offset="1" style="stop-color:#FE7062"/>
			</linearGradient>
			<path style="fill:url(#SVGID_00000136380906228831919320000005921587547602771110_);" d="M2952.25,2062.027l50.991-128.728
				c0,0,124.177,84.373,144.598,191.348c-23.463,1.728-66.157,7.831-107.949,28.932
				C3030.708,2103.067,2952.25,2062.027,2952.25,2062.027z"/>
			
				<linearGradient id="SVGID_00000034771853617949816280000017313928897207907220_" gradientUnits="userSpaceOnUse" x1="-761.5738" y1="2207.7048" x2="-436.1866" y2="2207.7048" gradientTransform="matrix(-1 0 0 1 2378.2981 0)">
				<stop  offset="0" style="stop-color:#FEBBBA"/>
				<stop  offset="1" style="stop-color:#FF928E"/>
			</linearGradient>
			<path style="fill:url(#SVGID_00000034771853617949816280000017313928897207907220_);" d="M2832.935,2183.157
				c0,0,139.42,78.793,186.461,11.513c9.767-13.97,12.102-27.854,9.696-41.091c41.792-21.101,84.486-27.204,107.949-28.932
				c6.157,32.25,2.902,66.55-16.048,101.215c-82.403,150.736-306.508-8.33-306.508-8.33L2832.935,2183.157z"/>
			<g>
				
					<linearGradient id="SVGID_00000166639279342645494250000010047950838919719071_" gradientUnits="userSpaceOnUse" x1="2790.0227" y1="1888.7274" x2="2648.2642" y2="2221.3154">
					<stop  offset="0" style="stop-color:#09005D"/>
					<stop  offset="1" style="stop-color:#1A0F91"/>
				</linearGradient>
				<path style="fill:url(#SVGID_00000166639279342645494250000010047950838919719071_);" d="M2849.687,2282.838l-76.09-265.722
					c-0.864-3.016-3.437-5.217-6.554-5.579c-13.787-1.608-53.733-6.124-99.855-10.025c-47.157-3.989-100.768-7.335-139.479-6.275
					c-14.55,0.398-23.767,15.753-17.267,28.777c29.861,59.834,103.51,204.61,145.137,262.067c3.812,5.262,9.93,8.318,16.427,8.258
					l170.278-1.585C2847.421,2292.705,2851.101,2287.777,2849.687,2282.838z"/>
				
					<linearGradient id="SVGID_00000045603747664242034510000003982994052923113894_" gradientUnits="userSpaceOnUse" x1="-460.3452" y1="2173.5879" x2="-358.9732" y2="2173.5879" gradientTransform="matrix(-1 0 0 1 2378.2981 0)">
					<stop  offset="0" style="stop-color:#FEBBBA"/>
					<stop  offset="1" style="stop-color:#FF928E"/>
				</linearGradient>
				<path style="fill:url(#SVGID_00000045603747664242034510000003982994052923113894_);" d="M2831.303,2218.639
					c0,0,10.599-43.583,6.324-59.046c-4.275-15.463-12.56-35.344-40.172-30.927c-27.612,4.418-60.184,16.05-60.184,16.05
					s1.645,20.141,22.631,13.642l-13.014,10.07c0,0,1.861,16.127,19.587,7.511l-12.104,13.354c0,0,7.612,13.246,20.654,4.75
					C2788.067,2185.548,2794.319,2223.888,2831.303,2218.639z"/>
				
					<linearGradient id="SVGID_00000036246529439856558830000008129265196678681777_" gradientUnits="userSpaceOnUse" x1="2018.7621" y1="2766.5073" x2="2120.1387" y2="2766.5073" gradientTransform="matrix(0.8472 -0.5312 0.5312 0.8472 -661.622 848.1048)">
					<stop  offset="0" style="stop-color:#FEBBBA"/>
					<stop  offset="1" style="stop-color:#FF928E"/>
				</linearGradient>
				<path style="fill:url(#SVGID_00000036246529439856558830000008129265196678681777_);" d="M2548.393,2153.793
					c0,0-32.132-31.296-36.725-46.667c-4.592-15.372-8.134-36.616,17.607-47.542c25.74-10.924,59.516-18.372,59.516-18.372
					s9.304,17.938-11.927,23.58l16.375,1.618c0,0,6.99,14.652-12.605,16.769l17.348,4.884c0,0,0.587,15.266-14.975,14.996
					S2582.516,2138.594,2548.393,2153.793z"/>
			</g>
			
				<linearGradient id="SVGID_00000077286669592229292990000003911210114093662137_" gradientUnits="userSpaceOnUse" x1="-506.3222" y1="1869.8994" x2="-377.6742" y2="1869.8994" gradientTransform="matrix(-1 0 0 1 2378.2981 0)">
				<stop  offset="0" style="stop-color:#FEBBBA"/>
				<stop  offset="1" style="stop-color:#FF928E"/>
			</linearGradient>
			<path style="fill:url(#SVGID_00000077286669592229292990000003911210114093662137_);" d="M2842.073,1800.517l42.301,122.331
				c0.701,2.026-0.133,4.27-2.009,5.308c-11.531,6.375-53.074,24.803-103.136-6.938c-5.216-3.306-8.766-8.699-9.558-14.823
				l-13.698-105.877H2842.073z"/>
			<g>
				
					<linearGradient id="SVGID_00000065062707065995278300000016346883376820080773_" gradientUnits="userSpaceOnUse" x1="-5809.02" y1="-1711.7936" x2="-5857.0942" y2="-1870.353" gradientTransform="matrix(-0.746 -0.6659 -0.6659 0.746 -2748.0371 -803.1727)">
					<stop  offset="0" style="stop-color:#FEBBBA"/>
					<stop  offset="1" style="stop-color:#FF928E"/>
				</linearGradient>
				<path style="fill:url(#SVGID_00000065062707065995278300000016346883376820080773_);" d="M2750.032,1687.235
					c0,0-46.449,87.438-40.495,122.759c5.953,35.32,63.523,32.785,113.792,4.098l35.127-94.413L2750.032,1687.235z"/>
				
					<linearGradient id="SVGID_00000125577912453292419780000008638272240613849490_" gradientUnits="userSpaceOnUse" x1="-5852.3931" y1="-1988.0608" x2="-5812.1792" y2="-1758.6935" gradientTransform="matrix(-0.746 -0.6659 -0.6659 0.746 -2748.0371 -803.1727)">
					<stop  offset="0" style="stop-color:#09005D"/>
					<stop  offset="1" style="stop-color:#1A0F91"/>
				</linearGradient>
				<path style="fill:url(#SVGID_00000125577912453292419780000008638272240613849490_);" d="M2821.107,1767.726
					c-2.043-0.905-2.797-3.406-1.573-5.275c3.722-5.685,10.698-17.283,12.923-27.438c0,0,8.351-5.349-21.253-12.434
					c-29.604-7.086-73.75-18.085-83.03-43.282c-9.047-24.568,14.723-86.352,52.647-37.124c1.443,1.873,4.269,1.915,5.71,0.04
					c6.218-8.092,22.562-24.887,45.254-14.705c21.236,9.529,23.627,25.09,23.335,32.933c-0.085,2.307,1.977,4.1,4.246,3.668
					c10.736-2.047,36.501-3.807,48.527,22.624c9.906,21.77,3.468,34.095-2.395,40.121c-1.9,1.953-1.068,5.169,1.537,5.966
					c7.056,2.16,16.168,8.143,15.256,24.675c-1.26,22.855-26.814,20.841-34.088,19.799c-1.193-0.17-2.393,0.239-3.201,1.132
					c-6.238,6.904-34.344,36.215-64.763,39.748c-2.634,0.306-4.674-2.296-3.812-4.802l13.165-38.267
					c0.611-1.777-0.24-3.727-1.958-4.488L2821.107,1767.726z"/>
				
					<linearGradient id="SVGID_00000021800545849638185380000004873910000308547255_" gradientUnits="userSpaceOnUse" x1="-5858.1646" y1="-1712.5326" x2="-5901.417" y2="-1855.1897" gradientTransform="matrix(-0.746 -0.6659 -0.6659 0.746 -2748.0371 -803.1727)">
					<stop  offset="0" style="stop-color:#FEBBBA"/>
					<stop  offset="1" style="stop-color:#FF928E"/>
				</linearGradient>
				<path style="fill:url(#SVGID_00000021800545849638185380000004873910000308547255_);" d="M2815.816,1773.158
					c0,0,33.073-22.692,35.488-3.583c2.417,19.11-29.781,27.679-45.73,20.555L2815.816,1773.158z"/>
			</g>
		</g>
	</g>
</g>
</svg>
